<?xml version="1.0" encoding="UTF-8" standalone="no"?>
<!-- Created with Inkscape (http://www.inkscape.org/) -->

<svg
   xmlns:dc="http://purl.org/dc/elements/1.1/"
   xmlns:cc="http://creativecommons.org/ns#"
   xmlns:rdf="http://www.w3.org/1999/02/22-rdf-syntax-ns#"
   xmlns:svg="http://www.w3.org/2000/svg"
   xmlns="http://www.w3.org/2000/svg"
   xmlns:xlink="http://www.w3.org/1999/xlink"
   xmlns:sodipodi="http://sodipodi.sourceforge.net/DTD/sodipodi-0.dtd"
   xmlns:inkscape="http://www.inkscape.org/namespaces/inkscape"
   id="svg2"
   version="1.1"
   inkscape:version="0.91 r13725"
   width="2481"
   height="3503"
   sodipodi:docname="Pepper-and-Carrot_by-David-Revoy_E18P04.svg">
  <metadata
     id="metadata8">
    <rdf:RDF>
      <cc:Work
         rdf:about="">
        <dc:format>image/svg+xml</dc:format>
        <dc:type
           rdf:resource="http://purl.org/dc/dcmitype/StillImage" />
        <dc:title />
      </cc:Work>
    </rdf:RDF>
  </metadata>
  <defs
     id="defs6">
    <filter
       inkscape:label="Torn Edges"
       inkscape:menu="Distort"
       inkscape:menu-tooltip="Displace the outside of shapes and pictures without altering their content"
       height="1.4"
       y="-0.2"
       width="1.4"
       x="-0.2"
       style="color-interpolation-filters:sRGB;"
       id="filter4620">
      <feTurbulence
         baseFrequency="0.05"
         numOctaves="5"
         type="fractalNoise"
         result="result91"
         id="feTurbulence4622" />
      <feDisplacementMap
         scale="25"
         result="result5"
         xChannelSelector="R"
         in="SourceGraphic"
         in2="result91"
         id="feDisplacementMap4624" />
      <feComposite
         in="SourceGraphic"
         operator="atop"
         in2="result5"
         id="feComposite4626" />
    </filter>
    <filter
       inkscape:label="Torn Edges"
       inkscape:menu="Distort"
       inkscape:menu-tooltip="Displace the outside of shapes and pictures without altering their content"
       height="1.4"
       y="-0.2"
       width="1.4"
       x="-0.2"
       style="color-interpolation-filters:sRGB;"
       id="filter4670">
      <feTurbulence
         baseFrequency="0.024"
         numOctaves="4"
         type="fractalNoise"
         result="result91"
         id="feTurbulence4672" />
      <feDisplacementMap
         scale="21.899999999999999"
         result="result5"
         xChannelSelector="B"
         in="SourceGraphic"
         in2="result91"
         id="feDisplacementMap4674"
         yChannelSelector="R" />
      <feComposite
         in="SourceGraphic"
         operator="atop"
         in2="result5"
         id="feComposite4676" />
    </filter>
    <filter
       inkscape:label="Torn Edges"
       inkscape:menu="Distort"
       inkscape:menu-tooltip="Displace the outside of shapes and pictures without altering their content"
       height="1.4"
       y="-0.2"
       width="1.4"
       x="-0.2"
       style="color-interpolation-filters:sRGB;"
       id="filter4678">
      <feTurbulence
         baseFrequency="0.03976721629485936"
         numOctaves="5"
         type="fractalNoise"
         result="result91"
         id="feTurbulence4680" />
      <feDisplacementMap
         scale="8.8000000000000007"
         result="result5"
         xChannelSelector="R"
         in="SourceGraphic"
         in2="result91"
         id="feDisplacementMap4682"
         baseFrequency="0.040000000000000001" />
      <feComposite
         in="SourceGraphic"
         operator="atop"
         in2="result5"
         id="feComposite4684" />
    </filter>
    <filter
       inkscape:label="Torn Edges"
       inkscape:menu="Distort"
       inkscape:menu-tooltip="Displace the outside of shapes and pictures without altering their content"
       height="1.4"
       y="-0.2"
       width="1.4"
       x="-0.2"
       style="color-interpolation-filters:sRGB;"
       id="filter4686">
      <feTurbulence
         baseFrequency="0.05"
         numOctaves="5"
         type="fractalNoise"
         result="result91"
         id="feTurbulence4688" />
      <feDisplacementMap
         scale="25"
         result="result5"
         xChannelSelector="R"
         in="SourceGraphic"
         in2="result91"
         id="feDisplacementMap4690" />
      <feComposite
         in="SourceGraphic"
         operator="atop"
         in2="result5"
         id="feComposite4692" />
    </filter>
    <filter
       inkscape:label="Torn Edges"
       inkscape:menu="Distort"
       inkscape:menu-tooltip="Displace the outside of shapes and pictures without altering their content"
       height="1.4"
       y="-0.2"
       width="1.4"
       x="-0.2"
       style="color-interpolation-filters:sRGB;"
       id="filter4694">
      <feTurbulence
         baseFrequency="0.05"
         numOctaves="5"
         type="fractalNoise"
         result="result91"
         id="feTurbulence4696" />
      <feDisplacementMap
         scale="25"
         result="result5"
         xChannelSelector="R"
         in="SourceGraphic"
         in2="result91"
         id="feDisplacementMap4698" />
      <feComposite
         in="SourceGraphic"
         operator="atop"
         in2="result5"
         id="feComposite4700" />
    </filter>
    <filter
       inkscape:label="Torn Edges"
       inkscape:menu="Distort"
       inkscape:menu-tooltip="Displace the outside of shapes and pictures without altering their content"
       height="1.4"
       y="-0.2"
       width="1.4"
       x="-0.2"
       style="color-interpolation-filters:sRGB"
       id="filter4670-0">
      <feTurbulence
         baseFrequency="0.024"
         numOctaves="4"
         type="fractalNoise"
         result="result91"
         id="feTurbulence4672-6" />
      <feDisplacementMap
         scale="21.9"
         result="result5"
         xChannelSelector="B"
         in="SourceGraphic"
         in2="result91"
         id="feDisplacementMap4674-4"
         yChannelSelector="R" />
      <feComposite
         in="SourceGraphic"
         operator="atop"
         in2="result5"
         id="feComposite4676-3" />
    </filter>
  </defs>
  <sodipodi:namedview
     pagecolor="#ffffff"
     bordercolor="#666666"
     borderopacity="1"
     objecttolerance="10"
     gridtolerance="10"
     guidetolerance="10"
     inkscape:pageopacity="0"
     inkscape:pageshadow="2"
     inkscape:window-width="1261"
     inkscape:window-height="1029"
     id="namedview4"
     showgrid="false"
     inkscape:zoom="0.51948072"
     inkscape:cx="1209.0828"
     inkscape:cy="2955.1105"
     inkscape:window-x="646"
     inkscape:window-y="1"
     inkscape:window-maximized="0"
     inkscape:current-layer="layer3"
     showguides="false" />
  <g
     inkscape:groupmode="layer"
     id="layer2"
     inkscape:label="artwork"
     sodipodi:insensitive="true">
    <image
       sodipodi:absref="C:\Users\Kari\Documents\Pepper and Carrot\Episode 18\fi\..\peppercarrot_ep18_translation-master\en\.\..\gfx_Pepper-and-Carrot_by-David-Revoy_E18P04.png"
       xlink:href="../gfx_Pepper-and-Carrot_by-David-Revoy_E18P04.png"
       width="2481"
       height="3503"
       id="image10"
       x="0"
       y="0" />
  </g>
  <g
     inkscape:groupmode="layer"
     id="layer4"
     inkscape:label="translatornotes"
     style="display:inline"
     sodipodi:insensitive="true" />
  <g
     inkscape:groupmode="layer"
     id="layer3"
     inkscape:label="speechbubbles">
    <path
       style="color:#000000;display:inline;overflow:visible;visibility:visible;fill:#f2f8d1;fill-opacity:1;fill-rule:nonzero;stroke:none;stroke-width:1px;marker:none;enable-background:accumulate"
       d="m 253.33568,405.51026 c 36.39441,-19.0572 48.4084,-27.6376 48.29889,-70.8322 -0.10955,-43.1945 17.16485,-44.5253 17.16485,-44.5253 l 17.11255,23.0097 c 0,0 -6.67004,92.7921 -82.57629,92.3478 z"
       id="path3072-0"
       inkscape:connector-curvature="0"
       inkscape:transform-center-x="-94.0856"
       inkscape:transform-center-y="-90.317826" />
    <path
       style="color:#000000;display:inline;overflow:visible;visibility:visible;fill:#f2f8d1;fill-opacity:1;fill-rule:nonzero;stroke:none;stroke-width:1px;marker:none;enable-background:accumulate"
       d="M 178.8722,284.66315 C 154.06833,254.5686 159.55115,179.57237 326.63937,180.1013 c 144.91353,0.45875 171.3264,27.73639 175.75022,37.65888 4.42393,9.92239 40.05252,65.38662 -71.23126,88.79 -111.28391,23.40339 -213.62132,14.58056 -252.28613,-21.88703 z"
       id="path3525"
       inkscape:connector-curvature="0"
       sodipodi:nodetypes="cscsc" />
    <path
       style="color:#000000;display:inline;overflow:visible;visibility:visible;fill:#f2f8d1;fill-opacity:1;fill-rule:nonzero;stroke:none;stroke-width:1px;marker:none;enable-background:accumulate"
       d="m 484.29347,559.90308 c 37.92081,-16.27729 50.3726,-24.21024 49.01013,-72.5185 -1.36256,-48.30833 16.85902,-47.40901 16.85902,-47.40901 l 18.75299,28.09048 c 0,0 -4.37236,102.82332 -84.62214,91.83703 z"
       id="path3072"
       inkscape:connector-curvature="0" />
    <path
       style="color:#000000;display:inline;overflow:visible;visibility:visible;fill:#f2f8d1;fill-opacity:1;fill-rule:nonzero;stroke:none;stroke-width:1px;marker:none;enable-background:accumulate"
       d="m 431.73509,468.85246 c -5.56528,-23.45994 9.27542,-85.77536 123.36384,-80.64344 114.08839,5.13169 132.63936,34.45668 135.422,43.25421 2.78265,8.79744 26.89892,58.64981 -62.14571,71.84607 -89.04464,13.19617 -168.81368,-0.7332 -196.64013,-34.45684 z"
       id="path3525-9"
       inkscape:connector-curvature="0" />
    <path
       style="color:#000000;display:inline;overflow:visible;visibility:visible;fill:#f2f8d1;fill-opacity:1;fill-rule:nonzero;stroke:none;stroke-width:1px;marker:none;enable-background:accumulate"
       d="m 1876.6088,418.56594 c -31.5912,-14.42302 -41.9155,-21.49132 -39.8545,-65.03245 2.0611,-43.54113 -13.2841,-42.61315 -13.2841,-42.61315 l -16.3073,25.43456 c 0,0 1.7309,92.62959 69.4459,82.21104 z"
       id="path3072-6"
       inkscape:connector-curvature="0" />
    <path
       style="color:#000000;display:inline;overflow:visible;visibility:visible;fill:#f2f8d1;fill-opacity:1;fill-rule:nonzero;stroke:none;stroke-width:1px;marker:none;enable-background:accumulate"
       d="m 1774.2406,355.82251 c -3.8079,-16.90243 6.3465,-61.79939 84.4079,-58.10194 78.0616,3.69726 90.7546,24.8253 92.6585,31.16377 1.9039,6.33835 18.4047,42.25595 -42.5214,51.76353 -60.926,9.50758 -115.5056,-0.52822 -134.545,-24.82536 z"
       id="path3525-9-3"
       inkscape:connector-curvature="0" />
    <path
       style="color:#000000;display:inline;overflow:visible;visibility:visible;fill:#f2f8d1;fill-opacity:1;fill-rule:nonzero;stroke:none;stroke-width:1px;marker:none;enable-background:accumulate"
       d="m 2217.3114,322.37132 c -30.6875,4.82912 -42.4514,4.20054 -73.2223,-37.79796 -30.7709,-41.99858 -39.8317,-32.21825 -39.8317,-32.21825 l 8.3839,33.30384 c 0,0 69.3458,85.79665 104.6701,36.71237 z"
       id="path3072-6-2"
       inkscape:connector-curvature="0" />
    <path
       style="color:#000000;display:inline;overflow:visible;visibility:visible;fill:#f2f8d1;fill-opacity:1;fill-rule:nonzero;stroke:none;stroke-width:1px;marker:none;enable-background:accumulate"
       d="m 1863.2035,258.90206 c -7.6766,-24.64084 12.7942,-90.09278 170.1637,-84.70261 157.3695,5.39 182.9582,36.19107 186.7964,45.43138 3.8382,9.2403 37.1033,61.60197 -85.7216,75.46247 -122.8251,13.86033 -232.8557,-0.77015 -271.2385,-36.19124 z"
       id="path3525-9-3-6"
       inkscape:connector-curvature="0" />
    <path
       style="fill:#f2f8d1;fill-opacity:1;fill-rule:evenodd;stroke:none;stroke-width:1px;stroke-linecap:butt;stroke-linejoin:miter;stroke-opacity:1"
       d="m 789.19602,106.72211 c 60.07368,11.62 117.04237,23.40472 -6.11147,44.7459 58.25185,-0.37939 132.15302,-4.48491 29.0295,33.55943 63.74232,-15.22644 149.08661,-22.3054 65.69833,23.61589 79.57866,-23.38237 105.20046,-26.49452 62.64261,4.97177 48.2086,-16.03258 73.77171,-15.68948 48.8919,21.13001 43.96101,-5.43035 86.75541,-10.33696 15.27851,36.04531 134.0853,-44.65627 62.8443,3.91664 30.5573,34.80237 52.8765,-16.06089 98.9061,-23.03619 17.6992,53.05412 93.2068,-56.89524 103.6544,-35.22219 96.8911,-13.27998 46.7918,-47.50028 55.946,-7.51798 76.3934,6.21471 26.5051,-42.90709 48.8697,-42.02676 67.2262,1.24294 18.1707,-31.77366 64.1975,-49.61963 76.0583,48.56872 7.4173,-80.35137 45.1253,-86.44063 79.7843,-47.32578 4.2308,-57.56767 45.7544,-11.11803 76.3933,4.97177 -11.8843,-28.62094 12.9258,-41.58533 73.7103,18.49375 -57.6909,-76.18459 32.5271,-23.9753 66.8537,-4.82139 -38.5034,-52.45291 22.9868,-23.55997 61.1147,-13.67236 -29.3121,-31.21722 -20.9883,-43.29865 47.364,-24.85883 -69.3597,-51.03765 -19.8274,-46.27515 12.2229,-49.71768 -43.586,-17.83741 -63.7947,-50.43591 59.4049,-49.44511 -113.7853,-17.39134 -193.9047,-36.633 -102.1854,-51.23317 -95.2084,-7.22955 -72.1107,-28.61258 -30.5572,-52.20356 -92.9779,28.02951 -92.5819,13.01451 -64.1705,-14.9153 -67.8948,33.97759 -124.2994,31.73613 -64.6904,-11.27811 -110.3166,44.89527 -131.6651,52.59568 -126.2931,7.54928 -68.7176,28.8712 -65.2771,-18.615659 -45.6108,-34.076341 -58.0284,32.373911 -115.2372,35.446821 -84.258,-4.454852 -61.6907,32.811933 -104.0291,27.441643 -108.6289,-21.160555 -28.8861,59.881828 -47.8505,29.737592 -86.9384,-7.427106 14.1966,43.0234 -14.2519,70.211224 -95.5105,18.796851 20.0613,27.042026 7.3151,41.615463 -82.50484,-8.700593 30.81442,33.279587 -21.09141,34.495622 -100.05659,-1.395665 35.07582,32.03808 51.90538,59.388711 -65.69835,52.203561 z"
       id="path4440"
       inkscape:connector-curvature="0"
       sodipodi:nodetypes="cccccccccccccccccccccccccccccccccc" />
    <path
       style="color:#000000;display:inline;overflow:visible;visibility:visible;fill:#f2f8d1;fill-opacity:1;fill-rule:nonzero;stroke:none;stroke-width:1px;marker:none;enable-background:accumulate"
       d="m 192.33295,1134.8813 c 53.78145,-14.9643 71.92761,-23.4151 79.18237,-89.6934 7.25465,-66.27853 31.45888,-61.5515 31.45888,-61.5515 l 19.80578,41.9878 c 0,0 -25.16917,139.6765 -130.44703,109.2571 z"
       id="path3072-06"
       inkscape:connector-curvature="0" />
    <path
       style="color:#000000;display:inline;overflow:visible;visibility:visible;fill:#f2f8d1;fill-opacity:1;fill-rule:nonzero;stroke:none;stroke-width:1px;marker:none;enable-background:accumulate"
       d="m 490.38226,1031.5143 c 53.41808,-16.2137 71.36235,-25.0852 77.07044,-91.51452 5.70797,-66.42957 30.01579,-62.26797 30.01579,-62.26797 l 20.77899,41.51479 c 0,0 -21.90699,140.2252 -127.86522,112.2677 z"
       id="path3072-06-3"
       inkscape:connector-curvature="0" />
    <path
       style="color:#000000;display:inline;overflow:visible;visibility:visible;fill:#f2f8d1;fill-opacity:1;fill-rule:nonzero;stroke:none;stroke-width:1px;marker:none;enable-background:accumulate"
       d="M 99.467107,1029.843 C 91.381527,995.75894 112.943,905.22335 278.69751,912.67931 c 165.75447,7.45563 192.70643,50.06074 196.74922,62.84232 4.0428,12.78145 39.08036,85.20987 -90.28902,104.38227 -129.36941,19.1723 -245.26266,-1.0652 -285.690603,-50.0609 z"
       id="path3525-9-36"
       inkscape:connector-curvature="0" />
    <path
       style="color:#000000;display:inline;overflow:visible;visibility:visible;fill:#f2f8d1;fill-opacity:1;fill-rule:nonzero;stroke:none;stroke-width:1px;marker:none;enable-background:accumulate"
       d="m 318.68584,918.47093 c -11.5999,-39.63948 19.333,-144.93133 257.1292,-136.26022 237.7962,8.67084 276.4626,58.2202 282.2624,73.08499 5.7997,14.86477 56.0656,99.09844 -129.5314,121.39574 -185.5972,22.29691 -351.8611,-1.239 -409.8602,-58.22051 z"
       id="path3525-9-3-6-2-1"
       inkscape:connector-curvature="0" />
    <path
       style="color:#000000;display:inline;overflow:visible;visibility:visible;fill:#f2f8d1;fill-opacity:1;fill-rule:nonzero;stroke:none;stroke-width:1px;marker:none;enable-background:accumulate"
       d="m 2371.3674,1012.476 c -45.953,9.9467 -85.8229,-0.032 -113.3882,-55.51984 -36.4898,-73.45195 -62.5656,-48.93329 -62.5656,-48.93329 l 15.181,52.91849 c 0,0 67.8637,104.32144 160.7728,51.53464 z"
       id="path3072-6-2-7"
       inkscape:connector-curvature="0"
       sodipodi:nodetypes="csccc" />
    <path
       style="color:#000000;display:inline;overflow:visible;visibility:visible;fill:#f2f8d1;fill-opacity:1;fill-rule:nonzero;stroke:none;stroke-width:1px;marker:none;enable-background:accumulate"
       d="m 2316.1992,1142.94 c -45.953,9.9467 -63.757,9.7747 -113.3882,-55.5198 -49.6313,-65.2949 -62.5656,-48.9333 -62.5656,-48.9333 l 15.181,52.9185 c 0,0 59.3003,108.0523 160.7728,51.5346 z"
       id="path3072-6-2-7-5"
       inkscape:connector-curvature="0"
       sodipodi:nodetypes="csccc" />
    <path
       style="color:#000000;display:inline;overflow:visible;visibility:visible;fill:#f2f8d1;fill-opacity:1;fill-rule:nonzero;stroke:none;stroke-width:1px;marker:none;enable-background:accumulate"
       d="m 1825.822,954.02512 c -11.5999,-39.63949 19.333,-144.93134 257.1292,-136.26023 237.7962,8.67084 276.4626,58.2202 282.2624,73.08499 5.7997,14.86477 56.0656,99.09844 -129.5314,121.39572 -185.5972,22.2969 -351.8611,-1.239 -409.8602,-58.22048 z"
       id="path3525-9-3-6-2"
       inkscape:connector-curvature="0" />
    <path
       style="color:#000000;display:inline;overflow:visible;visibility:visible;fill:#f2f8d1;fill-opacity:1;fill-rule:nonzero;stroke:none;stroke-width:1px;marker:none;enable-background:accumulate"
       d="m 1841.2577,1109.4651 c -8.9377,-31.8419 14.896,-116.42166 198.1186,-109.4562 183.2224,6.9652 213.0146,46.7676 217.4834,58.7083 4.4689,11.9406 43.1989,79.6044 -99.804,97.5156 -143.0029,17.9111 -271.1096,-0.9951 -315.798,-46.7677 z"
       id="path3525-9-36-2"
       inkscape:connector-curvature="0" />
    <path
       style="fill:#f2f8d1;fill-opacity:1;fill-rule:evenodd;stroke:none;stroke-width:1px;stroke-linecap:butt;stroke-linejoin:miter;stroke-opacity:1"
       d="m 1536.9062,1127.7094 c -8.3147,-2.1115 -13.085,6.6504 -17.6133,11.9155 -5.631,6.6587 -16.2828,3.7284 -18.6276,-4.3796 -1.8896,-6.8372 -8.5721,-9.7969 -14.9998,-10.7808 -7.7882,0.066 -13.7124,2.5576 -20.1635,1.2219 -9.9895,-0.035 -13.3214,9.9941 -23.6854,8.2139 -6.8509,-1.5176 -13.9235,0.3596 -17.4064,-6.3141 -2.0686,-5.0205 -9.4853,-7.9939 -15.5206,-8.134 6.6246,5.1704 7.3326,15.429 14.7747,20.0083 9.3093,5.3019 21.2799,10.1576 31.5584,4.5412 8.7831,-6.7362 23.0518,-8.3935 30.913,0.6191 4.1235,6.3613 8.9405,14.4776 17.6287,14.38 11.887,-1.4375 25.77,-0.9378 34.7723,-10.2016 4.3297,-5.3128 13.8776,-7.4948 14.281,-15.2509 -1.889,-6.8947 -10.2901,-6.5395 -15.9115,-5.8389 z"
       id="path4396"
       inkscape:connector-curvature="0"
       sodipodi:nodetypes="ccccccccccccccc" />
    <path
       style="fill:#f2f8d1;fill-opacity:1;fill-rule:evenodd;stroke:none;stroke-width:1px;stroke-linecap:butt;stroke-linejoin:miter;stroke-opacity:1"
       d="m 1539.8375,1055.1862 c -1.5813,-8.1482 3.7466,-15.9988 11.1563,-19.5588 6.6153,-2.8122 13.5484,-7.4017 21.0897,-5.7916 8.6551,1.8705 17.2207,8.6365 26.3591,4.8328 8.9699,-6.3407 19.8021,-13.7448 31.5297,-10.7867 10.0118,2.435 13.6802,12.5384 19.8721,19.3028 4.1438,5.3732 11.4937,5.2826 17.4478,3.4336 9.1835,-1.1376 20.8932,-0.5901 26.397,7.7661 2.408,5.0986 2.2555,12.0026 8.911,14.249 9.1586,3.6687 19.057,-0.8918 28.4903,0.8447 10.0105,-1.4067 18.7041,5.4626 25.4316,11.7594 4.6294,4.5795 10.7681,9.1785 9.51,16.4725 1.32,13.3125 -3.6885,29.8398 5.6402,39.5448 5.1898,6.0947 13.3074,11.3005 13.289,20.0517 0.2829,10.2746 -7.7407,18.0776 -13.544,25.7751 -4.1521,9.7937 -15.3972,13.6847 -25.2644,15.9031 -5.5587,1.2054 -11.0836,2.9779 -16.8483,2.1064 -11.723,-0.5617 -24.2047,-2.1977 -35.3398,2.2417 -8.5318,5.6474 -19.6159,3.8712 -28.3935,-0.2193 -6.7624,-4.2617 -14.9431,-2.6977 -22.5578,-3.9041 -8.2302,-0.7004 -16.3544,-2.338 -24.5169,-3.3731 -12.5236,-0.026 -26.0643,5.2038 -37.7812,-1.2946 -10.5244,-4.1703 -16.476,-14.2 -20.8522,-23.7923 -2.1434,-3.3331 -2.5591,-8.2279 -6.5114,-10.0469 -9.5704,-5.1848 -22.1663,-5.418 -29.6012,-13.9712 -5.364,-7.0913 -4.9683,-17.2629 -0.074,-24.5111 2.7866,-5.9012 9.5384,-11.3611 8.625,-18.0919 -3.0298,-9.2036 -9.4122,-18.5883 -6.0938,-28.549 1.8048,-5.3111 7.3491,-8.071 9.7459,-13.0587 1.4687,-2.3542 2.7482,-4.8154 3.8836,-7.3344 z"
       id="path4367"
       inkscape:connector-curvature="0"
       sodipodi:nodetypes="ccccccccccccccccccccccccccccccc" />
    <path
       style="fill:#f2f8d1;fill-opacity:1;fill-rule:evenodd;stroke:none;stroke-width:1px;stroke-linecap:butt;stroke-linejoin:miter;stroke-opacity:1;filter:url(#filter4686)"
       d="m 1220.0072,1687.8755 -1.4071,87.932 40.0199,-15.4281 -1.629,106.4231 28.4277,-156.8515 -37.0884,21.9866 17.3087,-69.5723 -37.8287,-8.6465 z"
       id="path4634"
       inkscape:connector-curvature="0"
       sodipodi:nodetypes="ccccccccc"
       transform="matrix(1.8132709,0,0,1.3004069,-992.23528,-478.74448)" />
    <path
       style="color:#000000;display:inline;overflow:visible;visibility:visible;fill:#f2f8d1;fill-opacity:1;fill-rule:nonzero;stroke:none;stroke-width:1px;marker:none;filter:url(#filter4694);enable-background:accumulate"
       d="m 887.62667,1405.357 -56.0821,8.1636 8.86802,28.3806 c -41.31617,14.3898 -63.76706,11.5289 -93.64291,15.4572 l 49.71644,24.7101 -25.53877,3.784 c 0,0 38.58197,14.2422 42.11379,22.2274 -20.45452,11.941 -35.51424,16.5672 -52.64747,24.0048 16.95123,2.3012 31.27598,6.5898 41.76641,13.7801 l -53.94668,34.36 52.21405,-0.5011 c -36.03646,36.6506 -82.7204,67.1303 -125.7088,99.752 l 157.99369,-57.4596 -22.92558,27.0453 c 0,0 14.92283,0.6684 22.25541,0.9348 4.11491,6.2251 -51.22307,54.381 -46.23701,49.7654 6.06913,-2.9769 58.09122,-23.4138 58.09122,-23.4138 0,0 -43.54029,44.4925 -37.37467,42.5971 6.16551,-1.8956 56.35694,-25.1026 56.35694,-25.1026 l -14.35009,34.4075 64.83342,-36.596 -24.50576,44.8306 c 8.52704,-3.7185 30.59296,-21.9487 34.86411,-22.1064 4.27114,-0.1577 -9.2525,17.757 -11.75469,25.0106 -37.47969,57.7009 -89.99961,143.4716 -89.99961,143.4716 0,0 89.14222,-81.3483 137.74826,-115.4686 31.78641,-24.77 52.81161,-38.2759 52.81161,-38.2759 0,0 1.0066,30.418 0.2747,47.5074 l 58.2789,-56.8 -3.8108,53.2927 60.2643,-77.3139 6.7512,52.6819 98.175,-81.7977 6.2397,77.5449 25.1896,-81.2759 28.6639,14.7184 26.9657,-27.4419 17.6559,34.4467 39.0096,-59.764 36.1336,32.2187 27.3543,-48.4039 c 52.8849,28.9816 125.0636,70.4257 125.0636,70.4257 l -54.6664,-91.2399 89.6114,-15.5656 -36.1507,-21.7359 93.8184,-24.6317 -42.5318,-8.4357 c 30.8606,-6.0093 76.082,-24.8532 113.1241,-33.2047 l -35.6146,-14.9323 81.7009,-46.2358 c -21.5013,-9.2993 -38.7783,-2.4166 -68.9053,-9.794 l 71.1859,-49.1368 c -27.7648,-12.3854 -51.325,-4.6031 -83.1264,-15.3335 l 49.011,-35.8517 -48.6047,-0.1377 41.7432,-45.4627 -70.2558,21.3416 64.7172,-64.2929 -113.6527,36.6307 39.6602,-46.9412 -56.7367,26.1672 -17.539,-10.4478 -47.2572,25.3672 8.9058,-38.601 c -15.9317,9.6827 -76.8118,45.2219 -76.8118,45.2219 l 14.146,-47.2601 -34.3981,31.1315 13.2504,-55.2639 -86.9867,72.2917 7.415,-23.3879 -26.0087,27.9932 3.7531,-28.9278 -44.8888,47.129 1.8771,-29.6164 -21.2426,25.5712 -13.5669,-35.6997 -25.8547,19.5287 c -17.9031,-32.8742 -20.4154,-37.0533 -31.9058,-57.1624 -22.9895,31.7173 -27.6937,36.0224 -77.3418,92.9705 l -18.7883,-15.3247 -19.4462,25.4898 -23.5459,-17.9821 -29.534,39.2175 c -14.2623,-18.3626 -20.894,-27.5015 -33.8012,-47.7404 -5.4305,22.3057 -9.0576,33.3595 -15.1127,62.4615 -70.71024,-11.484 -58.31876,-10.4696 -136.28984,-25.9897 7.4194,41.5777 16.65871,61.2999 19.51721,84.025 z"
       id="path4024"
       inkscape:connector-curvature="0"
       sodipodi:nodetypes="cccccccccccccccccsccccccccccccccccccccccccccccccccccccccccccccccccccccccccccccccccccccc"
       transform="matrix(1.4526026,0,0,1.1508646,-593.17934,-162.53143)" />
  </g>
  <g
     inkscape:groupmode="layer"
     id="layer1"
     inkscape:label="txt">
    <g
       inkscape:groupmode="layer"
       id="layer5"
       inkscape:label="frame01">
      <text
         xml:space="preserve"
         style="font-style:normal;font-variant:normal;font-weight:normal;font-stretch:normal;font-size:13.33242512px;line-height:125%;font-family:Lavi;-inkscape-font-specification:Lavi;text-align:center;letter-spacing:0px;word-spacing:0px;text-anchor:middle;fill:#b17d62;fill-opacity:1;stroke:#b17d62;stroke-width:4.39599991;stroke-miterlimit:4;stroke-dasharray:none;stroke-opacity:1"
         x="383.75476"
         y="260.35852"
         id="text4246-6-5-6"
         sodipodi:linespacing="125%"
         transform="matrix(0.96240981,0,-0.13855859,1.0390584,0,0)"><tspan
           sodipodi:role="line"
           style="font-size:49.99659729px;fill:#b17d62;fill-opacity:1;stroke:#b17d62;stroke-width:4.39599991;stroke-miterlimit:4;stroke-dasharray:none;stroke-opacity:1"
           x="383.75476"
           y="260.35852"
           id="tspan4252-7-3-1">HAHA HA !</tspan></text>
      <text
         xml:space="preserve"
         style="font-style:normal;font-variant:normal;font-weight:normal;font-stretch:normal;font-size:11.66310501px;line-height:125%;font-family:Lavi;-inkscape-font-specification:Lavi;text-align:center;letter-spacing:0px;word-spacing:0px;text-anchor:middle;fill:#b17d62;fill-opacity:1;stroke:#b17d62;stroke-width:4.14599991;stroke-miterlimit:4;stroke-dasharray:none;stroke-opacity:1"
         x="665.66791"
         y="435.52612"
         id="text4246-6-5-6-8"
         sodipodi:linespacing="125%"
         transform="matrix(0.92887408,0,-0.13373044,1.0765722,0,0)"><tspan
           sodipodi:role="line"
           style="font-size:43.73664474px;fill:#b17d62;fill-opacity:1;stroke:#b17d62;stroke-width:4.14599991;stroke-miterlimit:4;stroke-dasharray:none;stroke-opacity:1"
           x="665.66791"
           y="435.52612"
           id="tspan4252-7-3-1-7">HuHu Hu !</tspan></text>
      <text
         xml:space="preserve"
         style="font-style:normal;font-variant:normal;font-weight:normal;font-stretch:normal;font-size:8.81517601px;line-height:125%;font-family:Lavi;-inkscape-font-specification:Lavi;text-align:center;letter-spacing:0px;word-spacing:0px;text-anchor:middle;fill:#b17d62;fill-opacity:1;stroke:#b17d62;stroke-width:2.90656137;stroke-miterlimit:4;stroke-dasharray:none;stroke-opacity:1"
         x="2018.0402"
         y="334.73953"
         id="text4246-6-5-6-8-9"
         sodipodi:linespacing="125%"
         transform="matrix(0.94217397,0,-0.13564523,1.0613751,0,0)"><tspan
           sodipodi:role="line"
           style="font-size:33.05691147px;fill:#b17d62;fill-opacity:1;stroke:#b17d62;stroke-width:2.90656137;stroke-miterlimit:4;stroke-dasharray:none;stroke-opacity:1"
           x="2018.0402"
           y="334.73953"
           id="tspan4252-7-3-1-7-2">Pfff !</tspan></text>
      <text
         xml:space="preserve"
         style="font-style:normal;font-variant:normal;font-weight:normal;font-stretch:normal;font-size:11.28102493px;line-height:125%;font-family:Lavi;-inkscape-font-specification:Lavi;text-align:center;letter-spacing:0px;word-spacing:0px;text-anchor:middle;fill:#b17d62;fill-opacity:1;stroke:#b17d62;stroke-width:3.71960711;stroke-miterlimit:4;stroke-dasharray:none;stroke-opacity:1"
         x="2113.0081"
         y="260.2634"
         id="text4246-6-5-6-0"
         sodipodi:linespacing="125%"
         transform="matrix(0.98303971,0,-0.14152869,1.0172529,0,0)"><tspan
           sodipodi:role="line"
           style="font-size:42.30384445px;fill:#b17d62;fill-opacity:1;stroke:#b17d62;stroke-width:3.71960711;stroke-miterlimit:4;stroke-dasharray:none;stroke-opacity:1"
           x="2113.0081"
           y="260.2634"
           id="tspan4252-7-3-1-2">HAHA HA HA !</tspan></text>
      <text
         xml:space="preserve"
         style="font-style:normal;font-variant:normal;font-weight:normal;font-stretch:normal;font-size:14.58454418px;line-height:125%;font-family:Lavi;-inkscape-font-specification:Lavi;text-align:center;letter-spacing:0px;word-spacing:0px;text-anchor:middle;fill:#b17d62;fill-opacity:1;stroke:#b17d62;stroke-width:4.80885172;stroke-miterlimit:4;stroke-dasharray:none;stroke-opacity:1"
         x="1112.2097"
         y="159.39041"
         id="text4246-6-5-6-8-9-3"
         sodipodi:linespacing="125%"
         transform="matrix(0.98520217,0,-0.14184002,1.0150201,0,0)"><tspan
           sodipodi:role="line"
           style="font-size:54.69203949px;fill:#b17d62;fill-opacity:1;stroke:#b17d62;stroke-width:4.80885172;stroke-miterlimit:4;stroke-dasharray:none;stroke-opacity:1"
           x="1112.2097"
           y="159.39041"
           id="tspan4252-7-3-1-7-2-6">LOPETTAKAA</tspan></text>
      <text
         xml:space="preserve"
         style="font-style:normal;font-variant:normal;font-weight:normal;font-stretch:normal;font-size:13.3725462px;line-height:125%;font-family:Lavi;-inkscape-font-specification:Lavi;text-align:center;letter-spacing:0px;word-spacing:0px;text-anchor:middle;fill:#b17d62;fill-opacity:1;stroke:#b17d62;stroke-width:2.57556796;stroke-miterlimit:4;stroke-dasharray:none;stroke-opacity:1"
         x="1357.1331"
         y="216.45667"
         id="text4246-6-5-6-8-9-3-3"
         sodipodi:linespacing="125%"
         transform="matrix(0.977744,0,-0.14076626,1.0227626,0,0)"><tspan
           sodipodi:role="line"
           style="font-size:50.14704895px;fill:#b17d62;fill-opacity:1;stroke:#b17d62;stroke-width:2.57556796;stroke-miterlimit:4;stroke-dasharray:none;stroke-opacity:1"
           x="1357.1331"
           y="216.45667"
           id="tspan4252-7-3-1-7-2-6-5">Ei se ole minun vikani!!!</tspan></text>
      <text
         xml:space="preserve"
         style="font-style:normal;font-variant:normal;font-weight:normal;font-stretch:normal;font-size:11.65460587px;line-height:125%;font-family:Lavi;-inkscape-font-specification:Lavi;text-align:center;letter-spacing:0px;word-spacing:0px;text-anchor:middle;fill:#b17d62;fill-opacity:1;stroke:#b17d62;stroke-width:2.24469066;stroke-miterlimit:4;stroke-dasharray:none;stroke-opacity:1"
         x="1318.2793"
         y="273.10712"
         id="text4246-6-5-6-8-9-3-3-9"
         sodipodi:linespacing="125%"
         transform="matrix(0.9491014,0,-0.13664257,1.0536282,0,0)"><tspan
           sodipodi:role="line"
           style="font-size:43.70477295px;fill:#b17d62;fill-opacity:1;stroke:#b17d62;stroke-width:2.24469066;stroke-miterlimit:4;stroke-dasharray:none;stroke-opacity:1"
           x="1318.2793"
           y="273.10712"
           id="tspan4252-7-3-1-7-2-6-5-1">Olkaa hyvä...</tspan></text>
      <text
         xml:space="preserve"
         style="font-style:normal;font-variant:normal;font-weight:normal;font-stretch:normal;font-size:14.58454418px;line-height:125%;font-family:Lavi;-inkscape-font-specification:Lavi;text-align:center;letter-spacing:0px;word-spacing:0px;text-anchor:middle;fill:#b17d62;fill-opacity:1;stroke:#b17d62;stroke-width:4.80885172;stroke-miterlimit:4;stroke-dasharray:none;stroke-opacity:1"
         x="1565.0656"
         y="281.79663"
         id="text4246-6-5-6-8-9-3-6"
         sodipodi:linespacing="125%"
         transform="matrix(0.98520217,0,-0.14184002,1.0150201,0,0)"><tspan
           sodipodi:role="line"
           style="font-size:54.69203949px;fill:#b17d62;fill-opacity:1;stroke:#b17d62;stroke-width:4.80885172;stroke-miterlimit:4;stroke-dasharray:none;stroke-opacity:1"
           x="1565.0656"
           y="281.79663"
           id="tspan4252-7-3-1-7-2-6-2">LOPETTAKAA</tspan></text>
      <text
         xml:space="preserve"
         style="font-style:normal;font-variant:normal;font-weight:normal;font-stretch:normal;font-size:18.36458969px;line-height:125%;font-family:Lavi;-inkscape-font-specification:Lavi;text-align:center;letter-spacing:0px;word-spacing:0px;text-anchor:middle;fill:#b17d62;fill-opacity:1;stroke:#b17d62;stroke-width:3.91479564;stroke-miterlimit:4;stroke-dasharray:none;stroke-opacity:1"
         x="1906.7139"
         y="264.71585"
         id="text4246-6-5-6-8-9-3-6-9"
         sodipodi:linespacing="125%"
         transform="matrix(0.91243157,0,-0.13136321,1.0959726,0,0)"><tspan
           sodipodi:role="line"
           style="font-size:68.86721039px;fill:#b17d62;fill-opacity:1;stroke:#b17d62;stroke-width:3.91479564;stroke-miterlimit:4;stroke-dasharray:none;stroke-opacity:1"
           x="1906.7139"
           y="264.71585"
           id="tspan4252-7-3-1-7-2-6-2-7">!!!</tspan></text>
      <text
         xml:space="preserve"
         style="font-style:normal;font-variant:normal;font-weight:normal;font-stretch:normal;font-size:18.36458969px;line-height:125%;font-family:Lavi;-inkscape-font-specification:Lavi;text-align:center;letter-spacing:0px;word-spacing:0px;text-anchor:middle;fill:#b17d62;fill-opacity:1;stroke:#b17d62;stroke-width:3.91479564;stroke-miterlimit:4;stroke-dasharray:none;stroke-opacity:1"
         x="1424.8634"
         y="145.26141"
         id="text4246-6-5-6-8-9-3-6-9-6"
         sodipodi:linespacing="125%"
         transform="matrix(0.91243157,0,-0.13136321,1.0959726,0,0)"><tspan
           sodipodi:role="line"
           style="font-size:68.86721039px;fill:#b17d62;fill-opacity:1;stroke:#b17d62;stroke-width:3.91479564;stroke-miterlimit:4;stroke-dasharray:none;stroke-opacity:1"
           x="1424.8634"
           y="145.26141"
           id="tspan4252-7-3-1-7-2-6-2-7-3">!!!</tspan></text>
    </g>
    <g
       inkscape:groupmode="layer"
       id="layer6"
       inkscape:label="frame02">
      <text
         xml:space="preserve"
         style="font-style:normal;font-variant:normal;font-weight:normal;font-stretch:normal;font-size:17.58842278px;line-height:125%;font-family:Lavi;-inkscape-font-specification:Lavi;text-align:center;letter-spacing:0px;word-spacing:0px;text-anchor:middle;fill:#b17d62;fill-opacity:1;stroke:#b17d62;stroke-width:3.399;stroke-miterlimit:4;stroke-dasharray:none;stroke-opacity:1"
         x="741.59198"
         y="874.19165"
         id="text4246-6-5-6-0-0-7"
         sodipodi:linespacing="125%"
         transform="matrix(0.95274608,0,-0.1371673,1.0495976,0,0)"><tspan
           sodipodi:role="line"
           style="font-size:65.95658112px;fill:#b17d62;fill-opacity:1;stroke:#b17d62;stroke-width:3.399;stroke-miterlimit:4;stroke-dasharray:none;stroke-opacity:1"
           x="741.59198"
           y="874.19165"
           id="tspan4252-7-3-1-2-9-9">HAHA HA HA !</tspan></text>
      <text
         xml:space="preserve"
         style="font-style:normal;font-variant:normal;font-weight:normal;font-stretch:normal;font-size:16.94486046px;line-height:125%;font-family:Lavi;-inkscape-font-specification:Lavi;text-align:center;letter-spacing:0px;word-spacing:0px;text-anchor:middle;fill:#b17d62;fill-opacity:1;stroke:#b17d62;stroke-width:3.824;stroke-miterlimit:4;stroke-dasharray:none;stroke-opacity:1"
         x="681.68524"
         y="956.62524"
         id="text4246-6-5-6-8-2"
         sodipodi:linespacing="125%"
         transform="matrix(0.92887407,0,-0.36893682,1.0765722,0,0)"><tspan
           sodipodi:role="line"
           style="font-size:63.54322433px;fill:#b17d62;fill-opacity:1;stroke:#b17d62;stroke-width:3.824;stroke-miterlimit:4;stroke-dasharray:none;stroke-opacity:1"
           x="681.68524"
           y="956.62524"
           id="tspan4252-7-3-1-7-6">HuHu Hu !</tspan></text>
      <text
         xml:space="preserve"
         style="font-style:normal;font-variant:normal;font-weight:normal;font-stretch:normal;font-size:17.58842278px;line-height:125%;font-family:Lavi;-inkscape-font-specification:Lavi;text-align:center;letter-spacing:0px;word-spacing:0px;text-anchor:middle;fill:#b17d62;fill-opacity:1;stroke:#b17d62;stroke-width:3.39900002;stroke-miterlimit:4;stroke-dasharray:none;stroke-opacity:1"
         x="2338.7043"
         y="897.25958"
         id="text4246-6-5-6-0-0"
         sodipodi:linespacing="125%"
         transform="matrix(0.95274607,0,-0.1371673,1.0495976,0,0)"><tspan
           sodipodi:role="line"
           style="font-size:65.95658112px;fill:#b17d62;fill-opacity:1;stroke:#b17d62;stroke-width:3.39900002;stroke-miterlimit:4;stroke-dasharray:none;stroke-opacity:1"
           x="2338.7043"
           y="897.25958"
           id="tspan4252-7-3-1-2-9">HAHA HA HA !</tspan></text>
      <text
         xml:space="preserve"
         style="font-style:normal;font-variant:normal;font-weight:normal;font-stretch:normal;font-size:15.94935226px;line-height:125%;font-family:Lavi;-inkscape-font-specification:Lavi;text-align:center;letter-spacing:0px;word-spacing:0px;text-anchor:middle;fill:#b17d62;fill-opacity:1;stroke:#b17d62;stroke-width:2.56396532;stroke-miterlimit:4;stroke-dasharray:none;stroke-opacity:1"
         x="2268.8306"
         y="1081.6497"
         id="text4246-6-5-6-8-2-0"
         sodipodi:linespacing="125%"
         transform="matrix(0.97751233,0,-0.15257477,1.023005,0,0)"><tspan
           sodipodi:role="line"
           style="font-size:59.81007004px;fill:#b17d62;fill-opacity:1;stroke:#b17d62;stroke-width:2.56396532;stroke-miterlimit:4;stroke-dasharray:none;stroke-opacity:1"
           x="2268.8306"
           y="1081.6497"
           id="tspan4252-7-3-1-7-6-2">HAHA HA !!</tspan></text>
      <text
         xml:space="preserve"
         style="font-style:normal;font-variant:normal;font-weight:normal;font-stretch:normal;font-size:9.52694416px;line-height:125%;font-family:Lavi;-inkscape-font-specification:Lavi;text-align:center;letter-spacing:0px;word-spacing:0px;text-anchor:middle;fill:#b17d62;fill-opacity:1;stroke:#b17d62;stroke-width:0.79391199;stroke-opacity:1"
         x="1636.0841"
         y="1090.7448"
         id="text4246"
         sodipodi:linespacing="125%"
         transform="scale(0.99954161,1.0004586)"><tspan
           sodipodi:role="line"
           style="font-size:35.72603989px;fill:#b17d62;fill-opacity:1;stroke:#b17d62;stroke-width:0.79391199;stroke-opacity:1"
           x="1636.0841"
           y="1090.7448"
           id="tspan4252">Murr...</tspan><tspan
           sodipodi:role="line"
           style="font-size:35.72603989px;fill:#b17d62;fill-opacity:1;stroke:#b17d62;stroke-width:0.79391199;stroke-opacity:1"
           x="1636.0841"
           y="1135.4023"
           id="tspan4270">   Lopettakaa...</tspan><tspan
           sodipodi:role="line"
           style="font-size:35.72603989px;fill:#b17d62;fill-opacity:1;stroke:#b17d62;stroke-width:0.79391199;stroke-opacity:1"
           x="1636.0841"
           y="1180.0598"
           id="tspan4272">        sanoin...</tspan></text>
    </g>
    <g
       inkscape:groupmode="layer"
       id="layer7"
       inkscape:label="frame03">
      <text
         xml:space="preserve"
         style="font-style:normal;font-variant:normal;font-weight:normal;font-stretch:normal;font-size:17.58842278px;line-height:125%;font-family:Lavi;-inkscape-font-specification:Lavi;text-align:center;letter-spacing:0px;word-spacing:0px;text-anchor:middle;fill:#a64925;fill-opacity:1;stroke:#a64925;stroke-width:5.19899988;stroke-miterlimit:4;stroke-dasharray:none;stroke-opacity:1;filter:url(#filter4678)"
         x="1670.5698"
         y="1653.399"
         id="text4246-6-5-6-0-0-9"
         sodipodi:linespacing="125%"
         transform="matrix(0.8650869,-0.39918643,-0.23711807,1.2653692,-127.04995,44.274983)"><tspan
           sodipodi:role="line"
           style="font-size:65.95658112px;letter-spacing:4.47999907px;fill:#a64925;fill-opacity:1;stroke:#a64925;stroke-width:5.19899988;stroke-miterlimit:4;stroke-dasharray:none;stroke-opacity:1"
           x="1672.8098"
           y="1653.399"
           id="tspan4252-7-3-1-2-9-2">Sanoin...</tspan></text>
      <text
         xml:space="preserve"
         style="font-style:normal;font-variant:normal;font-weight:normal;font-stretch:normal;font-size:43.73806px;line-height:125%;font-family:Lavi;-inkscape-font-specification:Lavi;text-align:center;letter-spacing:0px;word-spacing:0px;text-anchor:middle;fill:#a64925;fill-opacity:1;stroke:#a64925;stroke-width:5.72100019;stroke-miterlimit:4;stroke-dasharray:none;stroke-opacity:1;filter:url(#filter4620)"
         x="2717.158"
         y="1452.1812"
         id="text4246-6-5-6-0-0-9-2"
         sodipodi:linespacing="125%"
         transform="matrix(0.81372898,-0.28824445,-0.41389971,1.9975999,-313.15717,-481.98356)"><tspan
           sodipodi:role="line"
           style="font-size:164.01771545px;letter-spacing:11.14065075px;fill:#a64925;fill-opacity:1;stroke:#a64925;stroke-width:5.72100019;stroke-miterlimit:4;stroke-dasharray:none;stroke-opacity:1"
           x="2722.7283"
           y="1452.1812"
           id="tspan4252-7-3-1-2-9-2-8">LOPETTAKAA !!!</tspan></text>
      <text
         xml:space="preserve"
         style="font-style:normal;font-variant:normal;font-weight:normal;font-stretch:normal;font-size:34.76185226px;line-height:125%;font-family:Lavi;-inkscape-font-specification:Lavi;text-align:center;letter-spacing:0px;word-spacing:0px;text-anchor:middle;fill:#532c1e;fill-opacity:1;stroke:#532c1e;stroke-width:6.71780205;stroke-miterlimit:4;stroke-dasharray:none;stroke-opacity:1;filter:url(#filter4670)"
         x="3345.321"
         y="1884.4843"
         id="text4246-6-5-6-0-0-7-1"
         sodipodi:linespacing="125%"
         transform="matrix(0.86020818,-0.41700231,-0.26406323,1.5343936,-463.05594,180.64973)"><tspan
           sodipodi:role="line"
           style="font-style:normal;font-variant:normal;font-weight:normal;font-stretch:normal;font-size:130.35693359px;font-family:'Drukaatie burti';-inkscape-font-specification:'Drukaatie burti';fill:#532c1e;fill-opacity:1;stroke:#532c1e;stroke-width:6.71780205;stroke-miterlimit:4;stroke-dasharray:none;stroke-opacity:1;"
           x="3345.321"
           y="1884.4843"
           id="tspan4252-7-3-1-2-9-9-2"><tspan
             style="font-style:normal;font-variant:normal;font-weight:normal;font-stretch:normal;font-size:177.8764801px;font-family:'Drukaatie burti';-inkscape-font-specification:'Drukaatie burti';fill:#532c1e;fill-opacity:1;stroke:#532c1e;stroke-width:6.71780205;stroke-opacity:1;"
             id="tspan4654"><tspan
   style="font-size:150px;fill:#532c1e;fill-opacity:1;stroke:#532c1e;stroke-opacity:1;"
   id="tspan4666">B</tspan>A<tspan
   style="font-size:211.08355713px;fill:#532c1e;fill-opacity:1;stroke:#532c1e;stroke-width:6.71780205;stroke-opacity:1;"
   id="tspan4656">AAM !</tspan><tspan
   id="tspan4660"
   style="font-size:232.19190979px;fill:#532c1e;fill-opacity:1;stroke:#532c1e;stroke-width:6.71780205;stroke-opacity:1;">!</tspan><tspan
   id="tspan4664"
   style="font-size:253.30026245px;fill:#532c1e;fill-opacity:1;stroke:#532c1e;stroke-width:6.71780205;stroke-opacity:1;">!</tspan></tspan></tspan></text>
    </g>
    <g
       inkscape:groupmode="layer"
       id="layer8"
       inkscape:label="frame04">
      <text
         xml:space="preserve"
         style="font-style:normal;font-variant:normal;font-weight:normal;font-stretch:normal;font-size:34.76185226px;line-height:125%;font-family:Lavi;-inkscape-font-specification:Lavi;text-align:center;letter-spacing:0px;word-spacing:0px;text-anchor:middle;fill:#532c1e;fill-opacity:1;stroke:#532c1e;stroke-width:6.71780205;stroke-miterlimit:4;stroke-dasharray:none;stroke-opacity:1;filter:url(#filter4670-0)"
         x="3345.321"
         y="1884.4843"
         id="text4246-6-5-6-0-0-7-1-7"
         sodipodi:linespacing="125%"
         transform="matrix(0.59775824,-0.37103712,0.06248198,1.3741661,-1626.8319,1459.7234)"><tspan
           sodipodi:role="line"
           style="font-style:normal;font-variant:normal;font-weight:normal;font-stretch:normal;font-size:177.8764801px;font-family:'Drukaatie burti';-inkscape-font-specification:'Drukaatie burti';letter-spacing:6.35266399px;fill:#532c1e;fill-opacity:1;stroke:#532c1e;stroke-width:6.71780205;stroke-miterlimit:4;stroke-dasharray:none;stroke-opacity:1"
           x="3348.4973"
           y="1884.4843"
           id="tspan4252-7-3-1-2-9-9-2-5"><tspan
   style="font-size:121.15057373px;letter-spacing:6.35266399px;fill:#532c1e;fill-opacity:1;stroke:#532c1e;stroke-opacity:1"
   id="tspan4747">C</tspan>R<tspan
   style="font-size:211.08355713px;letter-spacing:6.35266399px;fill:#532c1e;fill-opacity:1;stroke:#532c1e;stroke-width:6.71780205;stroke-opacity:1"
   id="tspan4656-0">AC<tspan
   style="font-size:238.28637695px;fill:#532c1e;fill-opacity:1;stroke:#532c1e;stroke-opacity:1"
   id="tspan4755">K </tspan></tspan><tspan
   id="tspan4660-9"
   style="font-size:232.19190979px;letter-spacing:6.35266399px;fill:#532c1e;fill-opacity:1;stroke:#532c1e;stroke-width:6.71780205;stroke-opacity:1">!</tspan><tspan
   id="tspan4664-3"
   style="font-size:266.90167236px;letter-spacing:6.35266399px;fill:#532c1e;fill-opacity:1;stroke:#532c1e;stroke-width:6.71780205;stroke-opacity:1">!</tspan></tspan></text>
    </g>
  </g>
</svg>
