<?xml version="1.0" encoding="UTF-8" standalone="no"?>
<!-- Created with Inkscape (http://www.inkscape.org/) -->

<svg
   xmlns:dc="http://purl.org/dc/elements/1.1/"
   xmlns:cc="http://creativecommons.org/ns#"
   xmlns:rdf="http://www.w3.org/1999/02/22-rdf-syntax-ns#"
   xmlns:svg="http://www.w3.org/2000/svg"
   xmlns="http://www.w3.org/2000/svg"
   xmlns:xlink="http://www.w3.org/1999/xlink"
   xmlns:sodipodi="http://sodipodi.sourceforge.net/DTD/sodipodi-0.dtd"
   xmlns:inkscape="http://www.inkscape.org/namespaces/inkscape"
   id="svg2"
   version="1.1"
   inkscape:version="0.91 r13725"
   width="2481"
   height="3503"
   sodipodi:docname="Pepper-and-Carrot_by-David-Revoy_E18P04.svg">
  <metadata
     id="metadata8">
    <rdf:RDF>
      <cc:Work
         rdf:about="">
        <dc:format>image/svg+xml</dc:format>
        <dc:type
           rdf:resource="http://purl.org/dc/dcmitype/StillImage" />
        <dc:title />
      </cc:Work>
    </rdf:RDF>
  </metadata>
  <defs
     id="defs6">
    <filter
       inkscape:label="Torn Edges"
       inkscape:menu="Distort"
       inkscape:menu-tooltip="Displace the outside of shapes and pictures without altering their content"
       height="1.4"
       y="-0.2"
       width="1.4"
       x="-0.2"
       style="color-interpolation-filters:sRGB;"
       id="filter4620">
      <feTurbulence
         baseFrequency="0.05"
         numOctaves="5"
         type="fractalNoise"
         result="result91"
         id="feTurbulence4622" />
      <feDisplacementMap
         scale="25"
         result="result5"
         xChannelSelector="R"
         in="SourceGraphic"
         in2="result91"
         id="feDisplacementMap4624" />
      <feComposite
         in="SourceGraphic"
         operator="atop"
         in2="result5"
         id="feComposite4626" />
    </filter>
    <filter
       inkscape:label="Torn Edges"
       inkscape:menu="Distort"
       inkscape:menu-tooltip="Displace the outside of shapes and pictures without altering their content"
       height="1.4"
       y="-0.2"
       width="1.4"
       x="-0.2"
       style="color-interpolation-filters:sRGB;"
       id="filter4670">
      <feTurbulence
         baseFrequency="0.024"
         numOctaves="4"
         type="fractalNoise"
         result="result91"
         id="feTurbulence4672" />
      <feDisplacementMap
         scale="21.899999999999999"
         result="result5"
         xChannelSelector="B"
         in="SourceGraphic"
         in2="result91"
         id="feDisplacementMap4674"
         yChannelSelector="R" />
      <feComposite
         in="SourceGraphic"
         operator="atop"
         in2="result5"
         id="feComposite4676" />
    </filter>
    <filter
       inkscape:label="Torn Edges"
       inkscape:menu="Distort"
       inkscape:menu-tooltip="Displace the outside of shapes and pictures without altering their content"
       height="1.4"
       y="-0.2"
       width="1.4"
       x="-0.2"
       style="color-interpolation-filters:sRGB;"
       id="filter4678">
      <feTurbulence
         baseFrequency="0.03976721629485936"
         numOctaves="5"
         type="fractalNoise"
         result="result91"
         id="feTurbulence4680" />
      <feDisplacementMap
         scale="8.8000000000000007"
         result="result5"
         xChannelSelector="R"
         in="SourceGraphic"
         in2="result91"
         id="feDisplacementMap4682"
         baseFrequency="0.040000000000000001" />
      <feComposite
         in="SourceGraphic"
         operator="atop"
         in2="result5"
         id="feComposite4684" />
    </filter>
    <filter
       inkscape:label="Torn Edges"
       inkscape:menu="Distort"
       inkscape:menu-tooltip="Displace the outside of shapes and pictures without altering their content"
       height="1.4"
       y="-0.2"
       width="1.4"
       x="-0.2"
       style="color-interpolation-filters:sRGB;"
       id="filter4686">
      <feTurbulence
         baseFrequency="0.05"
         numOctaves="5"
         type="fractalNoise"
         result="result91"
         id="feTurbulence4688" />
      <feDisplacementMap
         scale="25"
         result="result5"
         xChannelSelector="R"
         in="SourceGraphic"
         in2="result91"
         id="feDisplacementMap4690" />
      <feComposite
         in="SourceGraphic"
         operator="atop"
         in2="result5"
         id="feComposite4692" />
    </filter>
    <filter
       inkscape:label="Torn Edges"
       inkscape:menu="Distort"
       inkscape:menu-tooltip="Displace the outside of shapes and pictures without altering their content"
       height="1.4"
       y="-0.2"
       width="1.4"
       x="-0.2"
       style="color-interpolation-filters:sRGB;"
       id="filter4694">
      <feTurbulence
         baseFrequency="0.05"
         numOctaves="5"
         type="fractalNoise"
         result="result91"
         id="feTurbulence4696" />
      <feDisplacementMap
         scale="25"
         result="result5"
         xChannelSelector="R"
         in="SourceGraphic"
         in2="result91"
         id="feDisplacementMap4698" />
      <feComposite
         in="SourceGraphic"
         operator="atop"
         in2="result5"
         id="feComposite4700" />
    </filter>
    <filter
       inkscape:label="Torn Edges"
       inkscape:menu="Distort"
       inkscape:menu-tooltip="Displace the outside of shapes and pictures without altering their content"
       height="1.4"
       y="-0.2"
       width="1.4"
       x="-0.2"
       style="color-interpolation-filters:sRGB"
       id="filter4670-0">
      <feTurbulence
         baseFrequency="0.024"
         numOctaves="4"
         type="fractalNoise"
         result="result91"
         id="feTurbulence4672-6" />
      <feDisplacementMap
         scale="21.9"
         result="result5"
         xChannelSelector="B"
         in="SourceGraphic"
         in2="result91"
         id="feDisplacementMap4674-4"
         yChannelSelector="R" />
      <feComposite
         in="SourceGraphic"
         operator="atop"
         in2="result5"
         id="feComposite4676-3" />
    </filter>
  </defs>
  <sodipodi:namedview
     pagecolor="#ffffff"
     bordercolor="#666666"
     borderopacity="1"
     objecttolerance="10"
     gridtolerance="10"
     guidetolerance="10"
     inkscape:pageopacity="0"
     inkscape:pageshadow="2"
     inkscape:window-width="1920"
     inkscape:window-height="1017"
     id="namedview4"
     showgrid="false"
     inkscape:zoom="0.36732834"
     inkscape:cx="984.212"
     inkscape:cy="1526.2721"
     inkscape:window-x="-8"
     inkscape:window-y="-8"
     inkscape:window-maximized="1"
     inkscape:current-layer="layer8"
     showguides="false" />
  <g
     inkscape:groupmode="layer"
     id="layer2"
     inkscape:label="artwork"
     sodipodi:insensitive="true">
    <image
       sodipodi:absref="C:\Users\George\Documents\GitHub\peppercarrot_ep18_translation\el\..\gfx_Pepper-and-Carrot_by-David-Revoy_E18P04.png"
       xlink:href="../gfx_Pepper-and-Carrot_by-David-Revoy_E18P04.png"
       y="0"
       x="0"
       id="image10"
       height="3503"
       width="2481" />
  </g>
  <g
     inkscape:groupmode="layer"
     id="layer4"
     inkscape:label="translatornotes"
     style="display:inline"
     sodipodi:insensitive="true" />
  <g
     inkscape:groupmode="layer"
     id="layer3"
     inkscape:label="speechbubbles">
    <path
       style="color:#000000;display:inline;overflow:visible;visibility:visible;fill:#f2f8d1;fill-opacity:1;fill-rule:nonzero;stroke:none;stroke-width:1px;marker:none;enable-background:accumulate"
       d="m 253.33568,405.51026 c 36.39441,-19.0572 48.4084,-27.6376 48.29889,-70.8322 -0.10955,-43.1945 17.16485,-44.5253 17.16485,-44.5253 l 17.11255,23.0097 c 0,0 -6.67004,92.7921 -82.57629,92.3478 z"
       id="path3072-0"
       inkscape:connector-curvature="0"
       inkscape:transform-center-x="-94.0856"
       inkscape:transform-center-y="-90.317826" />
    <path
       style="color:#000000;display:inline;overflow:visible;visibility:visible;fill:#f2f8d1;fill-opacity:1;fill-rule:nonzero;stroke:none;stroke-width:1px;marker:none;enable-background:accumulate"
       d="M 178.8722,284.66315 C 154.06833,254.5686 159.55115,179.57237 326.63937,180.1013 c 144.91353,0.45875 171.3264,27.73639 175.75022,37.65888 4.42393,9.92239 40.05252,65.38662 -71.23126,88.79 -111.28391,23.40339 -213.62132,14.58056 -252.28613,-21.88703 z"
       id="path3525"
       inkscape:connector-curvature="0"
       sodipodi:nodetypes="cscsc" />
    <path
       style="color:#000000;display:inline;overflow:visible;visibility:visible;fill:#f2f8d1;fill-opacity:1;fill-rule:nonzero;stroke:none;stroke-width:1px;marker:none;enable-background:accumulate"
       d="m 484.29347,559.90308 c 37.92081,-16.27729 50.3726,-24.21024 49.01013,-72.5185 -1.36256,-48.30833 16.85902,-47.40901 16.85902,-47.40901 l 18.75299,28.09048 c 0,0 -4.37236,102.82332 -84.62214,91.83703 z"
       id="path3072"
       inkscape:connector-curvature="0" />
    <path
       style="color:#000000;display:inline;overflow:visible;visibility:visible;fill:#f2f8d1;fill-opacity:1;fill-rule:nonzero;stroke:none;stroke-width:1px;marker:none;enable-background:accumulate"
       d="m 431.73509,468.85246 c -5.56528,-23.45994 9.27542,-85.77536 123.36384,-80.64344 114.08839,5.13169 132.63936,34.45668 135.422,43.25421 2.78265,8.79744 26.89892,58.64981 -62.14571,71.84607 -89.04464,13.19617 -168.81368,-0.7332 -196.64013,-34.45684 z"
       id="path3525-9"
       inkscape:connector-curvature="0" />
    <path
       style="color:#000000;display:inline;overflow:visible;visibility:visible;fill:#f2f8d1;fill-opacity:1;fill-rule:nonzero;stroke:none;stroke-width:1px;marker:none;enable-background:accumulate"
       d="m 1876.6088,395.46595 c -31.5912,-14.42302 -41.9155,-21.49132 -39.8545,-65.03245 2.0611,-43.54113 -13.2841,-42.61315 -13.2841,-42.61315 l -16.3073,25.43456 c 0,0 1.7309,92.62959 69.4459,82.21104 z"
       id="path3072-6"
       inkscape:connector-curvature="0" />
    <path
       style="color:#000000;display:inline;overflow:visible;visibility:visible;fill:#f2f8d1;fill-opacity:1;fill-rule:nonzero;stroke:none;stroke-width:1px;marker:none;enable-background:accumulate"
       d="m 1666.5199,338.49752 c -4.2529,-16.90243 7.0881,-61.79939 94.2722,-58.10194 87.1842,3.69726 101.3606,24.8253 103.487,31.16377 2.1264,6.33835 20.5556,42.25595 -47.4906,51.76353 -68.0462,9.50758 -129.0042,-0.52822 -150.2686,-24.82536 z"
       id="path3525-9-3"
       inkscape:connector-curvature="0" />
    <path
       style="color:#000000;display:inline;overflow:visible;visibility:visible;fill:#f2f8d1;fill-opacity:1;fill-rule:nonzero;stroke:none;stroke-width:1px;marker:none;enable-background:accumulate"
       d="m 2217.3114,322.37132 c -30.6875,4.82912 -42.4514,4.20054 -73.2223,-37.79796 -30.7709,-41.99858 -39.8317,-32.21825 -39.8317,-32.21825 l 8.3839,33.30384 c 0,0 69.3458,85.79665 104.6701,36.71237 z"
       id="path3072-6-2"
       inkscape:connector-curvature="0" />
    <path
       style="color:#000000;display:inline;overflow:visible;visibility:visible;fill:#f2f8d1;fill-opacity:1;fill-rule:nonzero;stroke:none;stroke-width:1px;marker:none;enable-background:accumulate"
       d="m 1840.1035,285.85205 c -7.6766,-24.64084 12.7942,-90.09278 170.1637,-84.70261 157.3695,5.39 182.9582,36.19107 186.7964,45.43138 3.8382,9.2403 37.1033,61.60197 -85.7216,75.46247 -122.8251,13.86033 -232.8557,-0.77015 -271.2385,-36.19124 z"
       id="path3525-9-3-6"
       inkscape:connector-curvature="0" />
    <path
       style="fill:#f2f8d1;fill-opacity:1;fill-rule:evenodd;stroke:none;stroke-width:1px;stroke-linecap:butt;stroke-linejoin:miter;stroke-opacity:1"
       d="m 826.5563,104.79711 c 48.87075,11.62 95.21557,23.40472 -4.97177,44.7459 47.38868,-0.37939 107.5083,-4.48491 23.6159,33.55943 51.85525,-15.22644 121.28399,-22.3054 53.44649,23.61589 64.73833,-23.38237 85.58206,-26.49452 50.96062,4.97177 39.21845,-16.03258 60.01426,-15.68948 39.77414,21.13001 35.76302,-5.43035 70.57682,-10.33696 12.42942,36.04531 109.0802,-44.65627 51.1247,3.91664 24.8588,34.80237 43.0157,-16.06089 80.4614,-23.03619 14.3985,53.05412 75.825,-56.89524 84.3243,-35.22219 78.8222,-13.27998 38.0658,-47.50028 45.5128,-7.51798 62.1471,6.21471 21.5622,-42.90709 39.7562,-42.02676 54.6894,1.24294 14.7822,-31.77366 52.2255,-49.61963 61.8745,48.56872 6.0341,-80.35137 36.7101,-86.44063 64.9056,-47.32578 3.4418,-57.56767 37.2219,-11.11803 62.1471,4.97177 -9.6682,-28.62094 10.5152,-41.58533 59.9643,18.49375 -46.9324,-76.18459 26.4612,-23.9753 54.3863,-4.82139 -31.3229,-52.45291 18.7001,-23.55997 49.7177,-13.67236 -23.8458,-31.21722 -17.0743,-43.29865 38.5312,-24.85883 -56.425,-51.03765 -16.1297,-46.27515 9.9435,-49.71768 -35.4577,-17.83741 -51.8978,-50.43591 48.3267,-49.44511 -92.5658,-17.39134 -157.744,-36.633 -83.1291,-51.23317 -77.4534,-7.22955 -58.6631,-28.61258 -24.8588,-52.20356 -75.6388,28.02951 -75.3166,13.01451 -52.2036,-14.9153 -55.2332,33.97759 -101.1192,31.73613 -52.6265,-11.27811 -89.744,44.89527 -107.1114,52.59568 -102.7412,7.54928 -55.9026,28.8712 -53.1038,-18.615658 -37.105,-34.07634 -47.2068,32.37391 -93.747,35.44682 -68.545,-4.454852 -50.1861,32.811932 -84.6291,27.441647 -88.3711,-21.160555 -23.4993,59.881827 -38.9271,29.737592 -70.7255,-7.427106 11.5491,43.0234 -11.5941,70.211223 -77.6991,18.796851 16.3201,27.042026 5.9509,41.615462 -67.11889,-8.700593 25.06794,33.279587 -17.15815,34.495622 -81.39741,-1.395665 28.53466,32.03808 42.22574,59.38871 -53.4465,52.20356 z"
       id="path4440"
       inkscape:connector-curvature="0"
       sodipodi:nodetypes="cccccccccccccccccccccccccccccccccc" />
    <path
       style="color:#000000;display:inline;overflow:visible;visibility:visible;fill:#f2f8d1;fill-opacity:1;fill-rule:nonzero;stroke:none;stroke-width:1px;marker:none;enable-background:accumulate"
       d="m 192.33295,1134.8813 c 53.78145,-14.9643 71.92761,-23.4151 79.18237,-89.6934 7.25465,-66.27853 31.45888,-61.5515 31.45888,-61.5515 l 19.80578,41.9878 c 0,0 -25.16917,139.6765 -130.44703,109.2571 z"
       id="path3072-06"
       inkscape:connector-curvature="0" />
    <path
       style="color:#000000;display:inline;overflow:visible;visibility:visible;fill:#f2f8d1;fill-opacity:1;fill-rule:nonzero;stroke:none;stroke-width:1px;marker:none;enable-background:accumulate"
       d="m 490.38226,1031.5143 c 53.41808,-16.2137 71.36235,-25.0852 77.07044,-91.51452 5.70797,-66.42957 30.01579,-62.26797 30.01579,-62.26797 l 20.77899,41.51479 c 0,0 -21.90699,140.2252 -127.86522,112.2677 z"
       id="path3072-06-3"
       inkscape:connector-curvature="0" />
    <path
       style="color:#000000;display:inline;overflow:visible;visibility:visible;fill:#f2f8d1;fill-opacity:1;fill-rule:nonzero;stroke:none;stroke-width:1px;marker:none;enable-background:accumulate"
       d="M 99.467107,1029.843 C 91.381527,995.75894 112.943,905.22335 278.69751,912.67931 c 165.75447,7.45563 192.70643,50.06074 196.74922,62.84232 4.0428,12.78145 39.08036,85.20987 -90.28902,104.38227 -129.36941,19.1723 -245.26266,-1.0652 -285.690603,-50.0609 z"
       id="path3525-9-36"
       inkscape:connector-curvature="0" />
    <path
       style="color:#000000;display:inline;overflow:visible;visibility:visible;fill:#f2f8d1;fill-opacity:1;fill-rule:nonzero;stroke:none;stroke-width:1px;marker:none;enable-background:accumulate"
       d="m 318.68584,918.47093 c -11.5999,-39.63948 19.333,-144.93133 257.1292,-136.26022 237.7962,8.67084 276.4626,58.2202 282.2624,73.08499 5.7997,14.86477 56.0656,99.09844 -129.5314,121.39574 -185.5972,22.29691 -351.8611,-1.239 -409.8602,-58.22051 z"
       id="path3525-9-3-6-2-1"
       inkscape:connector-curvature="0" />
    <path
       style="color:#000000;display:inline;overflow:visible;visibility:visible;fill:#f2f8d1;fill-opacity:1;fill-rule:nonzero;stroke:none;stroke-width:1px;marker:none;enable-background:accumulate"
       d="m 2371.3674,1012.476 c -45.953,9.9467 -85.8229,-0.032 -113.3882,-55.51984 -36.4898,-73.45195 -62.5656,-48.93329 -62.5656,-48.93329 l 15.181,52.91849 c 0,0 67.8637,104.32144 160.7728,51.53464 z"
       id="path3072-6-2-7"
       inkscape:connector-curvature="0"
       sodipodi:nodetypes="csccc" />
    <path
       style="color:#000000;display:inline;overflow:visible;visibility:visible;fill:#f2f8d1;fill-opacity:1;fill-rule:nonzero;stroke:none;stroke-width:1px;marker:none;enable-background:accumulate"
       d="m 2316.1992,1142.94 c -45.953,9.9467 -63.757,9.7747 -113.3882,-55.5198 -49.6313,-65.2949 -62.5656,-48.9333 -62.5656,-48.9333 l 15.181,52.9185 c 0,0 59.3003,108.0523 160.7728,51.5346 z"
       id="path3072-6-2-7-5"
       inkscape:connector-curvature="0"
       sodipodi:nodetypes="csccc" />
    <path
       style="color:#000000;display:inline;overflow:visible;visibility:visible;fill:#f2f8d1;fill-opacity:1;fill-rule:nonzero;stroke:none;stroke-width:1px;marker:none;enable-background:accumulate"
       d="m 1825.822,954.02512 c -11.5999,-39.63949 19.333,-144.93134 257.1292,-136.26023 237.7962,8.67084 276.4626,58.2202 282.2624,73.08499 5.7997,14.86477 56.0656,99.09844 -129.5314,121.39572 -185.5972,22.2969 -351.8611,-1.239 -409.8602,-58.22048 z"
       id="path3525-9-3-6-2"
       inkscape:connector-curvature="0" />
    <path
       style="color:#000000;display:inline;overflow:visible;visibility:visible;fill:#f2f8d1;fill-opacity:1;fill-rule:nonzero;stroke:none;stroke-width:1px;marker:none;enable-background:accumulate"
       d="m 1841.2577,1109.4651 c -8.9377,-31.8419 14.896,-116.42166 198.1186,-109.4562 183.2224,6.9652 213.0146,46.7676 217.4834,58.7083 4.4689,11.9406 43.1989,79.6044 -99.804,97.5156 -143.0029,17.9111 -271.1096,-0.9951 -315.798,-46.7677 z"
       id="path3525-9-36-2"
       inkscape:connector-curvature="0" />
    <path
       style="fill:#f2f8d1;fill-opacity:1;fill-rule:evenodd;stroke:none;stroke-width:1px;stroke-linecap:butt;stroke-linejoin:miter;stroke-opacity:1"
       d="m 1536.9062,1127.7094 c -8.3147,-2.1115 -13.085,6.6504 -17.6133,11.9155 -5.631,6.6587 -16.2828,3.7284 -18.6276,-4.3796 -1.8896,-6.8372 -8.5721,-9.7969 -14.9998,-10.7808 -7.7882,0.066 -13.7124,2.5576 -20.1635,1.2219 -9.9895,-0.035 -13.3214,9.9941 -23.6854,8.2139 -6.8509,-1.5176 -13.9235,0.3596 -17.4064,-6.3141 -2.0686,-5.0205 -9.4853,-7.9939 -15.5206,-8.134 6.6246,5.1704 7.3326,15.429 14.7747,20.0083 9.3093,5.3019 21.2799,10.1576 31.5584,4.5412 8.7831,-6.7362 23.0518,-8.3935 30.913,0.6191 4.1235,6.3613 8.9405,14.4776 17.6287,14.38 11.887,-1.4375 25.77,-0.9378 34.7723,-10.2016 4.3297,-5.3128 13.8776,-7.4948 14.281,-15.2509 -1.889,-6.8947 -10.2901,-6.5395 -15.9115,-5.8389 z"
       id="path4396"
       inkscape:connector-curvature="0"
       sodipodi:nodetypes="ccccccccccccccc" />
    <path
       style="fill:#f2f8d1;fill-opacity:1;fill-rule:evenodd;stroke:none;stroke-width:1px;stroke-linecap:butt;stroke-linejoin:miter;stroke-opacity:1"
       d="m 1537.0821,1055.1862 c -1.3631,-8.1482 3.2297,-15.9988 9.6171,-19.5588 5.7026,-2.8122 11.6792,-7.4017 18.1801,-5.7916 7.461,1.8705 14.8448,8.6365 22.7224,4.8328 7.7324,-6.3407 17.0701,-13.7448 27.1797,-10.7867 8.6305,2.435 11.7928,12.5384 17.1305,19.3028 3.5721,5.3732 9.9079,5.2826 15.0406,3.4336 7.9165,-1.1376 18.0106,-0.5901 22.7551,7.7661 2.0758,5.0986 1.9443,12.0026 7.6816,14.249 7.895,3.6687 16.4278,-0.8918 24.5596,0.8447 8.6294,-1.4067 16.1236,5.4626 21.9229,11.7594 3.9907,4.5795 9.2825,9.1785 8.198,16.4725 1.1379,13.3125 -3.1796,29.8398 4.862,39.5448 4.4738,6.0947 11.4715,11.3005 11.4556,20.0517 0.2439,10.2746 -6.6727,18.0776 -11.6754,25.7751 -3.5792,9.7937 -13.2729,13.6847 -21.7788,15.9031 -4.7918,1.2054 -9.5544,2.9779 -14.5238,2.1064 -10.1056,-0.5617 -20.8653,-2.1977 -30.4641,2.2417 -7.3547,5.6474 -16.9096,3.8712 -24.4762,-0.2193 -5.8294,-4.2617 -12.8815,-2.6977 -19.4456,-3.9041 -7.0947,-0.7004 -14.0981,-2.338 -21.1344,-3.3731 -10.7958,-0.026 -22.4684,5.2038 -32.5687,-1.2946 -9.0724,-4.1703 -14.2029,-14.2 -17.9754,-23.7923 -1.8476,-3.3331 -2.206,-8.2279 -5.613,-10.0469 -8.25,-5.1848 -19.1081,-5.418 -25.5173,-13.9712 -4.6239,-7.0913 -4.2828,-17.2629 -0.064,-24.5111 2.4021,-5.9012 8.2224,-11.3611 7.435,-18.0919 -2.6118,-9.2036 -8.1136,-18.5883 -5.253,-28.549 1.5558,-5.3111 6.3351,-8.071 8.4013,-13.0587 1.266,-2.3542 2.369,-4.8154 3.3478,-7.3344 z"
       id="path4367"
       inkscape:connector-curvature="0"
       sodipodi:nodetypes="ccccccccccccccccccccccccccccccc" />
    <path
       style="fill:#f2f8d1;fill-opacity:1;fill-rule:evenodd;stroke:none;stroke-width:1px;stroke-linecap:butt;stroke-linejoin:miter;stroke-opacity:1;filter:url(#filter4686)"
       d="m 1220.0072,1687.8755 -1.4071,87.932 40.0199,-15.4281 -1.629,106.4231 28.4277,-156.8515 -37.0884,21.9866 17.3087,-69.5723 -37.8287,-8.6465 z"
       id="path4634"
       inkscape:connector-curvature="0"
       sodipodi:nodetypes="ccccccccc" />
    <path
       style="color:#000000;display:inline;overflow:visible;visibility:visible;fill:#f2f8d1;fill-opacity:1;fill-rule:nonzero;stroke:none;stroke-width:1px;marker:none;filter:url(#filter4694);enable-background:accumulate"
       d="m 887.62667,1405.357 -56.0821,8.1636 8.86802,28.3806 c -41.31617,14.3898 -63.76706,11.5289 -93.64291,15.4572 l 49.71644,24.7101 -25.53877,3.784 c 0,0 38.58197,14.2422 42.11379,22.2274 -20.45452,11.941 -35.51424,16.5672 -52.64747,24.0048 16.95123,2.3012 31.27598,6.5898 41.76641,13.7801 l -53.94668,34.36 52.21405,-0.5011 c -36.03646,36.6506 -82.7204,67.1303 -125.7088,99.752 l 157.99369,-57.4596 -22.92558,27.0453 c 0,0 14.92283,0.6684 22.25541,0.9348 4.11491,6.2251 -51.22307,54.381 -46.23701,49.7654 6.06913,-2.9769 58.09122,-23.4138 58.09122,-23.4138 0,0 -43.54029,44.4925 -37.37467,42.5971 6.16551,-1.8956 56.35694,-25.1026 56.35694,-25.1026 l -14.35009,34.4075 64.83342,-36.596 -24.50576,44.8306 c 8.52704,-3.7185 30.59296,-21.9487 34.86411,-22.1064 4.27114,-0.1577 -9.2525,17.757 -11.75469,25.0106 -37.47969,57.7009 -89.99961,143.4716 -89.99961,143.4716 0,0 89.14222,-81.3483 137.74826,-115.4686 31.78641,-24.77 52.81161,-38.2759 52.81161,-38.2759 0,0 1.0066,30.418 0.2747,47.5074 l 58.2789,-56.8 -3.8108,53.2927 60.2643,-77.3139 6.7512,52.6819 98.175,-81.7977 6.2397,77.5449 25.1896,-81.2759 28.6639,14.7184 26.9657,-27.4419 17.6559,34.4467 39.0096,-59.764 36.1336,32.2187 27.3543,-48.4039 c 52.8849,28.9816 125.0636,70.4257 125.0636,70.4257 l -54.6664,-91.2399 89.6114,-15.5656 -36.1507,-21.7359 93.8184,-24.6317 -42.5318,-8.4357 c 30.8606,-6.0093 76.082,-24.8532 113.1241,-33.2047 l -35.6146,-14.9323 81.7009,-46.2358 c -21.5013,-9.2993 -38.7783,-2.4166 -68.9053,-9.794 l 71.1859,-49.1368 c -27.7648,-12.3854 -51.325,-4.6031 -83.1264,-15.3335 l 49.011,-35.8517 -48.6047,-0.1377 41.7432,-45.4627 -70.2558,21.3416 64.7172,-64.2929 -113.6527,36.6307 39.6602,-46.9412 -56.7367,26.1672 -17.539,-10.4478 -47.2572,25.3672 8.9058,-38.601 c -15.9317,9.6827 -76.8118,45.2219 -76.8118,45.2219 l 14.146,-47.2601 -34.3981,31.1315 13.2504,-55.2639 -86.9867,72.2917 7.415,-23.3879 -26.0087,27.9932 3.7531,-28.9278 -44.8888,47.129 1.8771,-29.6164 -21.2426,25.5712 -13.5669,-35.6997 -25.8547,19.5287 c -17.9031,-32.8742 -20.4154,-37.0533 -31.9058,-57.1624 -22.9895,31.7173 -27.6937,36.0224 -77.3418,92.9705 l -18.7883,-15.3247 -19.4462,25.4898 -23.5459,-17.9821 -29.534,39.2175 c -14.2623,-18.3626 -20.894,-27.5015 -33.8012,-47.7404 -5.4305,22.3057 -9.0576,33.3595 -15.1127,62.4615 -70.71024,-11.484 -58.31876,-10.4696 -136.28984,-25.9897 7.4194,41.5777 16.65871,61.2999 19.51721,84.025 z"
       id="path4024"
       inkscape:connector-curvature="0"
       sodipodi:nodetypes="cccccccccccccccccsccccccccccccccccccccccccccccccccccccccccccccccccccccccccccccccccccccc"
       transform="matrix(1.1452187,-0.08730418,0.08275342,1.0855236,-294.24681,25.934914)" />
  </g>
  <g
     inkscape:groupmode="layer"
     id="layer1"
     inkscape:label="txt">
    <g
       inkscape:groupmode="layer"
       id="layer5"
       inkscape:label="frame01">
      <text
         xml:space="preserve"
         style="font-style:normal;font-variant:normal;font-weight:normal;font-stretch:expanded;font-size:13.33242512px;line-height:125%;font-family:PECITA;-inkscape-font-specification:'PECITA Expanded';text-align:center;letter-spacing:0px;word-spacing:0px;text-anchor:middle;fill:#b17d62;fill-opacity:1;stroke:#b17d62;stroke-width:4.39599991;stroke-miterlimit:4;stroke-dasharray:none;stroke-opacity:1;"
         x="383.75476"
         y="260.35852"
         id="text4246-6-5-6"
         sodipodi:linespacing="125%"
         transform="matrix(0.96240981,0,-0.13855859,1.0390584,0,0)"><tspan
           sodipodi:role="line"
           style="font-size:49.99659729px;fill:#b17d62;fill-opacity:1;stroke:#b17d62;stroke-width:4.39599991;stroke-miterlimit:4;stroke-dasharray:none;stroke-opacity:1;-inkscape-font-specification:'PECITA Expanded';font-family:PECITA;font-weight:normal;font-style:normal;font-stretch:expanded;font-variant:normal;"
           x="383.75476"
           y="260.35852"
           id="tspan4252-7-3-1">ΧΑΧΑ ΧΑ!!!</tspan></text>
      <text
         xml:space="preserve"
         style="font-style:normal;font-variant:normal;font-weight:normal;font-stretch:expanded;font-size:11.66310501px;line-height:125%;font-family:PECITA;-inkscape-font-specification:'PECITA Expanded';text-align:center;letter-spacing:0px;word-spacing:0px;text-anchor:middle;fill:#b17d62;fill-opacity:1;stroke:#b17d62;stroke-width:4.14599991;stroke-miterlimit:4;stroke-dasharray:none;stroke-opacity:1;"
         x="665.66791"
         y="435.52612"
         id="text4246-6-5-6-8"
         sodipodi:linespacing="125%"
         transform="matrix(0.92887408,0,-0.13373044,1.0765722,0,0)"><tspan
           sodipodi:role="line"
           style="font-size:43.73664474px;fill:#b17d62;fill-opacity:1;stroke:#b17d62;stroke-width:4.14599991;stroke-miterlimit:4;stroke-dasharray:none;stroke-opacity:1;-inkscape-font-specification:'PECITA Expanded';font-family:PECITA;font-weight:normal;font-style:normal;font-stretch:expanded;font-variant:normal;"
           x="665.66791"
           y="435.52612"
           id="tspan4252-7-3-1-7">ΧεΧε Χε!</tspan></text>
      <text
         xml:space="preserve"
         style="font-style:normal;font-variant:normal;font-weight:normal;font-stretch:expanded;font-size:8.81517601px;line-height:125%;font-family:PECITA;-inkscape-font-specification:'PECITA Expanded';text-align:center;letter-spacing:0px;word-spacing:0px;text-anchor:middle;fill:#b17d62;fill-opacity:1;stroke:#b17d62;stroke-width:2.90656137;stroke-miterlimit:4;stroke-dasharray:none;stroke-opacity:1;"
         x="1921.4442"
         y="316.60269"
         id="text4246-6-5-6-8-9"
         sodipodi:linespacing="125%"
         transform="matrix(0.94217397,0,-0.13564523,1.0613751,0,0)"><tspan
           sodipodi:role="line"
           style="font-size:33.05691147px;fill:#b17d62;fill-opacity:1;stroke:#b17d62;stroke-width:2.90656137;stroke-miterlimit:4;stroke-dasharray:none;stroke-opacity:1;-inkscape-font-specification:'PECITA Expanded';font-family:PECITA;font-weight:normal;font-style:normal;font-stretch:expanded;font-variant:normal;"
           x="1921.4442"
           y="316.60269"
           id="tspan4252-7-3-1-7-2">Πφφφ!</tspan></text>
      <text
         xml:space="preserve"
         style="font-style:normal;font-variant:normal;font-weight:normal;font-stretch:expanded;font-size:11.28102493px;line-height:125%;font-family:PECITA;-inkscape-font-specification:'PECITA Expanded';text-align:center;letter-spacing:0px;word-spacing:0px;text-anchor:middle;fill:#b17d62;fill-opacity:1;stroke:#b17d62;stroke-width:3.71960711;stroke-miterlimit:4;stroke-dasharray:none;stroke-opacity:1;"
         x="2099.2495"
         y="273.50986"
         id="text4246-6-5-6-0"
         sodipodi:linespacing="125%"
         transform="matrix(0.9830397,0,-0.14152869,1.0172529,0,0)"><tspan
           sodipodi:role="line"
           style="font-size:42.30384445px;fill:#b17d62;fill-opacity:1;stroke:#b17d62;stroke-width:3.71960711;stroke-miterlimit:4;stroke-dasharray:none;stroke-opacity:1;-inkscape-font-specification:'PECITA Expanded';font-family:PECITA;font-weight:normal;font-style:normal;font-stretch:expanded;font-variant:normal;"
           x="2099.2495"
           y="273.50986"
           id="tspan4252-7-3-1-2">ΑΧΑΧΑ ΧΑΑ!</tspan></text>
      <text
         xml:space="preserve"
         style="font-style:normal;font-variant:normal;font-weight:normal;font-stretch:expanded;font-size:14.58454418px;line-height:125%;font-family:PECITA;-inkscape-font-specification:'PECITA Expanded';text-align:center;letter-spacing:0px;word-spacing:0px;text-anchor:middle;fill:#b17d62;fill-opacity:1;stroke:#b17d62;stroke-width:4.80885172;stroke-miterlimit:4;stroke-dasharray:none;stroke-opacity:1;"
         x="1112.2097"
         y="159.39041"
         id="text4246-6-5-6-8-9-3"
         sodipodi:linespacing="125%"
         transform="matrix(0.98520217,0,-0.14184002,1.0150201,0,0)"><tspan
           sodipodi:role="line"
           style="font-size:54.69203949px;fill:#b17d62;fill-opacity:1;stroke:#b17d62;stroke-width:4.80885172;stroke-miterlimit:4;stroke-dasharray:none;stroke-opacity:1;-inkscape-font-specification:'PECITA Expanded';font-family:PECITA;font-weight:normal;font-style:normal;font-stretch:expanded;font-variant:normal;"
           x="1112.2097"
           y="159.39041"
           id="tspan4252-7-3-1-7-2-6">ΣΤΑΜΑΤΗΣΤΕ !!!</tspan></text>
      <text
         xml:space="preserve"
         style="font-style:normal;font-variant:normal;font-weight:normal;font-stretch:normal;font-size:16.93099403px;line-height:125%;font-family:Lavi;-inkscape-font-specification:Lavi;text-align:center;letter-spacing:0px;word-spacing:0px;text-anchor:middle;fill:#b17d62;fill-opacity:1;stroke:#b17d62;stroke-width:3.60919476;stroke-miterlimit:4;stroke-dasharray:none;stroke-opacity:1"
         x="1255.8224"
         y="158.17899"
         id="text4246-6-5-6-8-9-3-6-9-3"
         sodipodi:linespacing="125%"
         transform="matrix(0.96138104,0,-0.13841049,1.0401703,0,0)"><tspan
           sodipodi:role="line"
           style="font-size:63.4912262px;fill:#b17d62;fill-opacity:1;stroke:#b17d62;stroke-width:3.60919476;stroke-miterlimit:4;stroke-dasharray:none;stroke-opacity:1"
           x="1255.8224"
           y="158.17899"
           id="tspan4252-7-3-1-7-2-6-2-7-6" /></text>
      <text
         xml:space="preserve"
         style="font-style:normal;font-variant:normal;font-weight:normal;font-stretch:expanded;font-size:13.3725462px;line-height:125%;font-family:PECITA;-inkscape-font-specification:'PECITA Expanded';text-align:center;letter-spacing:0px;word-spacing:0px;text-anchor:middle;fill:#b17d62;fill-opacity:1;stroke:#b17d62;stroke-width:2.57556796;stroke-miterlimit:4;stroke-dasharray:none;stroke-opacity:1"
         x="1348.78"
         y="216.45667"
         id="text4246-6-5-6-8-9-3-3"
         sodipodi:linespacing="125%"
         transform="matrix(0.977744,0,-0.14076626,1.0227626,0,0)"><tspan
           sodipodi:role="line"
           style="font-style:normal;font-variant:normal;font-weight:normal;font-stretch:expanded;font-size:50.14704895px;font-family:PECITA;-inkscape-font-specification:'PECITA Expanded';fill:#b17d62;fill-opacity:1;stroke:#b17d62;stroke-width:2.57556796;stroke-miterlimit:4;stroke-dasharray:none;stroke-opacity:1"
           x="1348.78"
           y="216.45667"
           id="tspan4252-7-3-1-7-2-6-5">Δεν φταίω εγώ!</tspan></text>
      <text
         xml:space="preserve"
         style="font-style:normal;font-variant:normal;font-weight:normal;font-stretch:expanded;font-size:11.65460587px;line-height:125%;font-family:PECITA;-inkscape-font-specification:'PECITA Expanded';text-align:center;letter-spacing:0px;word-spacing:0px;text-anchor:middle;fill:#b17d62;fill-opacity:1;stroke:#b17d62;stroke-width:2.24469066;stroke-miterlimit:4;stroke-dasharray:none;stroke-opacity:1"
         x="1305.6898"
         y="265.35571"
         id="text4246-6-5-6-8-9-3-3-9"
         sodipodi:linespacing="125%"
         transform="matrix(0.9491014,0,-0.13664257,1.0536282,0,0)"><tspan
           sodipodi:role="line"
           style="font-style:normal;font-variant:normal;font-weight:normal;font-stretch:expanded;font-size:43.70477295px;font-family:PECITA;-inkscape-font-specification:'PECITA Expanded';fill:#b17d62;fill-opacity:1;stroke:#b17d62;stroke-width:2.24469066;stroke-miterlimit:4;stroke-dasharray:none;stroke-opacity:1"
           x="1305.6898"
           y="265.35571"
           id="tspan4252-7-3-1-7-2-6-5-1">Ελάτε...</tspan></text>
      <text
         xml:space="preserve"
         style="font-style:normal;font-variant:normal;font-weight:normal;font-stretch:expanded;font-size:14.58454418px;line-height:125%;font-family:PECITA;-inkscape-font-specification:'PECITA Expanded';text-align:center;letter-spacing:0px;word-spacing:0px;text-anchor:middle;fill:#b17d62;fill-opacity:1;stroke:#b17d62;stroke-width:4.80885172;stroke-miterlimit:4;stroke-dasharray:none;stroke-opacity:1;"
         x="1495.9598"
         y="291.73938"
         id="text4246-6-5-6-8-9-3-6"
         sodipodi:linespacing="125%"
         transform="matrix(0.98520217,0,-0.14184002,1.0150201,0,0)"><tspan
           sodipodi:role="line"
           style="font-size:54.69203949px;fill:#b17d62;fill-opacity:1;stroke:#b17d62;stroke-width:4.80885172;stroke-miterlimit:4;stroke-dasharray:none;stroke-opacity:1;-inkscape-font-specification:'PECITA Expanded';font-family:PECITA;font-weight:normal;font-style:normal;font-stretch:expanded;font-variant:normal;"
           x="1495.9598"
           y="291.73938"
           id="tspan4252-7-3-1-7-2-6-2">ΣΤΑΜΑΤΗΣΤΕ!!!</tspan></text>
      <text
         xml:space="preserve"
         style="font-style:normal;font-variant:normal;font-weight:normal;font-stretch:normal;font-size:18.36458969px;line-height:125%;font-family:Lavi;-inkscape-font-specification:Lavi;text-align:center;letter-spacing:0px;word-spacing:0px;text-anchor:middle;fill:#b17d62;fill-opacity:1;stroke:#b17d62;stroke-width:3.91479564;stroke-miterlimit:4;stroke-dasharray:none;stroke-opacity:1"
         x="1730.7595"
         y="273.49802"
         id="text4246-6-5-6-8-9-3-6-9"
         sodipodi:linespacing="125%"
         transform="matrix(0.91243158,0,-0.13136321,1.0959726,0,0)"><tspan
           sodipodi:role="line"
           style="font-size:68.86721039px;fill:#b17d62;fill-opacity:1;stroke:#b17d62;stroke-width:3.91479564;stroke-miterlimit:4;stroke-dasharray:none;stroke-opacity:1"
           x="1730.7595"
           y="273.49802"
           id="tspan4252-7-3-1-7-2-6-2-7" /></text>
    </g>
    <g
       inkscape:groupmode="layer"
       id="layer6"
       inkscape:label="frame02">
      <text
         xml:space="preserve"
         style="font-style:normal;font-variant:normal;font-weight:normal;font-stretch:expanded;font-size:17.58842278px;line-height:125%;font-family:PECITA;-inkscape-font-specification:'PECITA Expanded';text-align:center;letter-spacing:0px;word-spacing:0px;text-anchor:middle;fill:#b17d62;fill-opacity:1;stroke:#b17d62;stroke-width:3.39899993;stroke-miterlimit:4;stroke-dasharray:none;stroke-opacity:1;"
         x="741.59198"
         y="874.19165"
         id="text4246-6-5-6-0-0-7"
         sodipodi:linespacing="125%"
         transform="matrix(0.95274608,0,-0.1371673,1.0495976,0,0)"><tspan
           sodipodi:role="line"
           style="font-size:65.95658112px;fill:#b17d62;fill-opacity:1;stroke:#b17d62;stroke-width:3.39899993;stroke-miterlimit:4;stroke-dasharray:none;stroke-opacity:1;-inkscape-font-specification:'PECITA Expanded';font-family:PECITA;font-weight:normal;font-style:normal;font-stretch:expanded;font-variant:normal;"
           x="741.59198"
           y="874.19165"
           id="tspan4252-7-3-1-2-9-9">ΧΑΧΑ ΧΑΧΑΑΑ!</tspan></text>
      <text
         xml:space="preserve"
         style="font-style:normal;font-variant:normal;font-weight:normal;font-stretch:expanded;font-size:16.94486046px;line-height:125%;font-family:PECITA;-inkscape-font-specification:'PECITA Expanded';text-align:center;letter-spacing:0px;word-spacing:0px;text-anchor:middle;fill:#b17d62;fill-opacity:1;stroke:#b17d62;stroke-width:3.82399988;stroke-miterlimit:4;stroke-dasharray:none;stroke-opacity:1;"
         x="681.68524"
         y="956.62524"
         id="text4246-6-5-6-8-2"
         sodipodi:linespacing="125%"
         transform="matrix(0.92887407,0,-0.36893682,1.0765722,0,0)"><tspan
           sodipodi:role="line"
           style="font-size:63.54322433px;fill:#b17d62;fill-opacity:1;stroke:#b17d62;stroke-width:3.82399988;stroke-miterlimit:4;stroke-dasharray:none;stroke-opacity:1;-inkscape-font-specification:'PECITA Expanded';font-family:PECITA;font-weight:normal;font-style:normal;font-stretch:expanded;font-variant:normal;"
           x="681.68524"
           y="956.62524"
           id="tspan4252-7-3-1-7-6">Χε Χεεε!</tspan></text>
      <text
         xml:space="preserve"
         style="font-style:normal;font-variant:normal;font-weight:normal;font-stretch:expanded;font-size:17.58842278px;line-height:125%;font-family:PECITA;-inkscape-font-specification:'PECITA Expanded';text-align:center;letter-spacing:0px;word-spacing:0px;text-anchor:middle;fill:#b17d62;fill-opacity:1;stroke:#b17d62;stroke-width:3.39899993;stroke-miterlimit:4;stroke-dasharray:none;stroke-opacity:1;"
         x="2338.7043"
         y="897.25958"
         id="text4246-6-5-6-0-0"
         sodipodi:linespacing="125%"
         transform="matrix(0.95274607,0,-0.1371673,1.0495976,0,0)"><tspan
           sodipodi:role="line"
           style="font-size:65.95658112px;fill:#b17d62;fill-opacity:1;stroke:#b17d62;stroke-width:3.39899993;stroke-miterlimit:4;stroke-dasharray:none;stroke-opacity:1;-inkscape-font-specification:'PECITA Expanded';font-family:PECITA;font-weight:normal;font-style:normal;font-stretch:expanded;font-variant:normal;"
           x="2338.7043"
           y="897.25958"
           id="tspan4252-7-3-1-2-9">Αχαχα χαχα!!!</tspan></text>
      <text
         xml:space="preserve"
         style="font-style:normal;font-variant:normal;font-weight:normal;font-stretch:expanded;font-size:15.94935226px;line-height:125%;font-family:PECITA;-inkscape-font-specification:'PECITA Expanded';text-align:center;letter-spacing:0px;word-spacing:0px;text-anchor:middle;fill:#b17d62;fill-opacity:1;stroke:#b17d62;stroke-width:2.56396532;stroke-miterlimit:4;stroke-dasharray:none;stroke-opacity:1;"
         x="2268.8306"
         y="1081.6497"
         id="text4246-6-5-6-8-2-0"
         sodipodi:linespacing="125%"
         transform="matrix(0.97751233,0,-0.15257477,1.023005,0,0)"><tspan
           sodipodi:role="line"
           style="font-size:59.81007004px;fill:#b17d62;fill-opacity:1;stroke:#b17d62;stroke-width:2.56396532;stroke-miterlimit:4;stroke-dasharray:none;stroke-opacity:1;-inkscape-font-specification:'PECITA Expanded';font-family:PECITA;font-weight:normal;font-style:normal;font-stretch:expanded;font-variant:normal;"
           x="2268.8306"
           y="1081.6497"
           id="tspan4252-7-3-1-7-6-2">ΑΧΑΧΑ ΧΑ!!!</tspan></text>
      <text
         xml:space="preserve"
         style="font-style:normal;font-variant:normal;font-weight:normal;font-stretch:expanded;font-size:9.52694416px;line-height:125%;font-family:PECITA;-inkscape-font-specification:'PECITA Expanded';text-align:center;letter-spacing:0px;word-spacing:0px;text-anchor:middle;fill:#b17d62;fill-opacity:1;stroke:#b17d62;stroke-width:0.79391199;stroke-opacity:1;"
         x="1605.27"
         y="1090.7448"
         id="text4246"
         sodipodi:linespacing="125%"
         transform="scale(0.99954161,1.0004586)"><tspan
           sodipodi:role="line"
           style="font-size:35.72603989px;fill:#b17d62;fill-opacity:1;stroke:#b17d62;stroke-width:0.79391199;stroke-opacity:1;-inkscape-font-specification:'PECITA Expanded';font-family:PECITA;font-weight:normal;font-style:normal;font-stretch:expanded;font-variant:normal;"
           x="1605.27"
           y="1090.7448"
           id="tspan4252">Γκρρ...</tspan><tspan
           sodipodi:role="line"
           style="font-size:35.72603989px;fill:#b17d62;fill-opacity:1;stroke:#b17d62;stroke-width:0.79391199;stroke-opacity:1;-inkscape-font-specification:'PECITA Expanded';font-family:PECITA;font-weight:normal;font-style:normal;font-stretch:expanded;font-variant:normal;"
           x="1605.27"
           y="1138.0092"
           id="tspan4270">Σταματήστε</tspan><tspan
           sodipodi:role="line"
           style="font-size:35.72603989px;fill:#b17d62;fill-opacity:1;stroke:#b17d62;stroke-width:0.79391199;stroke-opacity:1;-inkscape-font-specification:'PECITA Expanded';font-family:PECITA;font-weight:normal;font-style:normal;font-stretch:expanded;font-variant:normal;"
           x="1605.27"
           y="1182.6666"
           id="tspan4272">Είπα...</tspan></text>
    </g>
    <g
       inkscape:groupmode="layer"
       id="layer7"
       inkscape:label="frame03">
      <text
         xml:space="preserve"
         style="font-style:normal;font-variant:normal;font-weight:normal;font-stretch:expanded;font-size:17.58842278px;line-height:125%;font-family:PECITA;-inkscape-font-specification:'PECITA Expanded';text-align:center;letter-spacing:0px;word-spacing:0px;text-anchor:middle;fill:#a64925;fill-opacity:1;stroke:#a64925;stroke-width:5.19899988;stroke-miterlimit:4;stroke-dasharray:none;stroke-opacity:1;filter:url(#filter4678)"
         x="1670.5698"
         y="1653.399"
         id="text4246-6-5-6-0-0-9"
         sodipodi:linespacing="125%"
         transform="matrix(0.8650869,-0.39918643,-0.23711807,1.2653692,24.50124,29.945961)"><tspan
           sodipodi:role="line"
           style="font-style:normal;font-variant:normal;font-weight:normal;font-stretch:expanded;font-size:65.95658112px;font-family:PECITA;-inkscape-font-specification:'PECITA Expanded';letter-spacing:4.47999907px;fill:#a64925;fill-opacity:1;stroke:#a64925;stroke-width:5.19899988;stroke-miterlimit:4;stroke-dasharray:none;stroke-opacity:1"
           x="1672.8098"
           y="1653.399"
           id="tspan4252-7-3-1-2-9-2">Είπα...</tspan></text>
      <text
         xml:space="preserve"
         style="font-style:normal;font-variant:normal;font-weight:normal;font-stretch:expanded;font-size:43.73806px;line-height:125%;font-family:PECITA;-inkscape-font-specification:'PECITA Expanded';text-align:center;letter-spacing:0px;word-spacing:0px;text-anchor:middle;fill:#a64925;fill-opacity:1;stroke:#a64925;stroke-width:5.72100019;stroke-miterlimit:4;stroke-dasharray:none;stroke-opacity:1;filter:url(#filter4620);"
         x="2717.158"
         y="1452.1812"
         id="text4246-6-5-6-0-0-9-2"
         sodipodi:linespacing="125%"
         transform="matrix(0.81372898,-0.28824445,-0.41389971,1.9975999,-347.80716,-505.08355)"><tspan
           sodipodi:role="line"
           style="font-size:164.01771545px;letter-spacing:11.14065075px;fill:#a64925;fill-opacity:1;stroke:#a64925;stroke-width:5.72100019;stroke-miterlimit:4;stroke-dasharray:none;stroke-opacity:1;-inkscape-font-specification:'PECITA Expanded';font-family:PECITA;font-weight:normal;font-style:normal;font-stretch:expanded;font-variant:normal;"
           x="2722.7283"
           y="1452.1812"
           id="tspan4252-7-3-1-2-9-2-8">ΣΤΑΜΑΤΗΣΤΕ!!!</tspan></text>
      <text
         xml:space="preserve"
         style="font-style:normal;font-variant:normal;font-weight:normal;font-stretch:normal;font-size:34.76185226px;line-height:125%;font-family:Lavi;-inkscape-font-specification:Lavi;text-align:center;letter-spacing:0px;word-spacing:0px;text-anchor:middle;fill:#532c1e;fill-opacity:1;stroke:#532c1e;stroke-width:6.71780205;stroke-miterlimit:4;stroke-dasharray:none;stroke-opacity:1;filter:url(#filter4670)"
         x="3345.321"
         y="1884.4843"
         id="text4246-6-5-6-0-0-7-1"
         sodipodi:linespacing="125%"
         transform="matrix(0.86020818,-0.41700231,-0.26406323,1.5343936,-463.05594,180.64973)"><tspan
           sodipodi:role="line"
           style="font-style:normal;font-variant:normal;font-weight:normal;font-stretch:normal;font-size:130.35693359px;font-family:'Drukaatie burti';-inkscape-font-specification:'Drukaatie burti';fill:#532c1e;fill-opacity:1;stroke:#532c1e;stroke-width:6.71780205;stroke-miterlimit:4;stroke-dasharray:none;stroke-opacity:1"
           x="3345.321"
           y="1884.4843"
           id="tspan4252-7-3-1-2-9-9-2"><tspan
   style="font-size:113.6465571px"
   id="tspan4244">Μ</tspan>Π<tspan
   style="font-size:147.74052423px"
   id="tspan4236">Α<tspan
   style="font-size:170.46983565px"
   id="tspan4240">Α</tspan>Α</tspan>Μ!!!</tspan></text>
    </g>
    <g
       inkscape:groupmode="layer"
       id="layer8"
       inkscape:label="frame04">
      <text
         xml:space="preserve"
         style="font-style:normal;font-variant:normal;font-weight:normal;font-stretch:normal;font-size:34.76185226px;line-height:125%;font-family:Lavi;-inkscape-font-specification:Lavi;text-align:center;letter-spacing:0px;word-spacing:0px;text-anchor:middle;fill:#532c1e;fill-opacity:1;stroke:#532c1e;stroke-width:6.71780205;stroke-miterlimit:4;stroke-dasharray:none;stroke-opacity:1;filter:url(#filter4670-0)"
         x="3345.321"
         y="1884.4843"
         id="text4246-6-5-6-0-0-7-1-7"
         sodipodi:linespacing="125%"
         transform="matrix(1.0403689,-0.50561898,0.10874683,1.872601,-3142.5546,956.68398)"><tspan
           sodipodi:role="line"
           style="font-style:normal;font-variant:normal;font-weight:normal;font-stretch:normal;font-size:177.8764801px;font-family:'Drukaatie burti';-inkscape-font-specification:'Drukaatie burti';letter-spacing:6.35266399px;fill:#532c1e;fill-opacity:1;stroke:#532c1e;stroke-width:6.71780205;stroke-miterlimit:4;stroke-dasharray:none;stroke-opacity:1"
           x="3348.4973"
           y="1884.4843"
           id="tspan4252-7-3-1-2-9-9-2-5"><tspan
   style="font-size:156.41619873px"
   id="tspan4246"><tspan
   style="font-size:136.01408386px"
   id="tspan4256"><tspan
   style="font-size:115.61197662px"
   id="tspan4258"><tspan
   style="font-size:95.20986176px"
   id="tspan4260"><tspan
   style="font-size:74.80774689px"
   id="tspan4262"><tspan
   style="font-size:54.40563583px"
   id="tspan4264">Κ</tspan>Ρ</tspan>Α</tspan>Κ</tspan>!</tspan>!</tspan>!</tspan></text>
      <flowRoot
         xml:space="preserve"
         id="flowRoot4248"
         style="fill:black;stroke:none;stroke-opacity:1;stroke-width:1px;stroke-linejoin:miter;stroke-linecap:butt;fill-opacity:1;font-family:sans-serif;font-style:normal;font-weight:normal;font-size:40px;line-height:125%;letter-spacing:0px;word-spacing:0px"><flowRegion
           id="flowRegion4250"><rect
             id="rect4252"
             width="149.7298"
             height="62.614281"
             x="446.46704"
             y="2659.0684" /></flowRegion><flowPara
           id="flowPara4254"></flowPara></flowRoot>    </g>
  </g>
</svg>
