<?xml version="1.0" encoding="UTF-8" standalone="no"?>
<!-- Created with Inkscape (http://www.inkscape.org/) -->

<svg
   xmlns:dc="http://purl.org/dc/elements/1.1/"
   xmlns:cc="http://creativecommons.org/ns#"
   xmlns:rdf="http://www.w3.org/1999/02/22-rdf-syntax-ns#"
   xmlns:svg="http://www.w3.org/2000/svg"
   xmlns="http://www.w3.org/2000/svg"
   xmlns:xlink="http://www.w3.org/1999/xlink"
   xmlns:sodipodi="http://sodipodi.sourceforge.net/DTD/sodipodi-0.dtd"
   xmlns:inkscape="http://www.inkscape.org/namespaces/inkscape"
   id="svg2"
   version="1.1"
   inkscape:version="0.48.5 r10040"
   width="2481"
   height="3503"
   sodipodi:docname="Pepper-and-Carrot_by-David-Revoy_E18P03.svg">
  <metadata
     id="metadata8">
    <rdf:RDF>
      <cc:Work
         rdf:about="">
        <dc:format>image/svg+xml</dc:format>
        <dc:type
           rdf:resource="http://purl.org/dc/dcmitype/StillImage" />
        <dc:title />
      </cc:Work>
    </rdf:RDF>
  </metadata>
  <defs
     id="defs6" />
  <sodipodi:namedview
     pagecolor="#ffffff"
     bordercolor="#666666"
     borderopacity="1"
     objecttolerance="10"
     gridtolerance="10"
     guidetolerance="10"
     inkscape:pageopacity="0"
     inkscape:pageshadow="2"
     inkscape:window-width="1680"
     inkscape:window-height="980"
     id="namedview4"
     showgrid="false"
     inkscape:zoom="0.45172237"
     inkscape:cx="1034.5681"
     inkscape:cy="2152.9368"
     inkscape:window-x="0"
     inkscape:window-y="1"
     inkscape:window-maximized="1"
     inkscape:current-layer="layer8" />
  <g
     inkscape:groupmode="layer"
     id="layer2"
     inkscape:label="artwork"
     sodipodi:insensitive="true">
    <image
       sodipodi:absref="/Users/gand/Documents/Pepper&amp;Carrot/peppercarrot_ep18_translation/it/../gfx_Pepper-and-Carrot_by-David-Revoy_E18P03.png"
       xlink:href="../gfx_Pepper-and-Carrot_by-David-Revoy_E18P03.png"
       width="2481"
       height="3503"
       id="image10"
       x="0"
       y="0" />
  </g>
  <g
     inkscape:groupmode="layer"
     id="layer4"
     inkscape:label="translatornotes"
     sodipodi:insensitive="true" />
  <g
     inkscape:groupmode="layer"
     id="layer3"
     inkscape:label="speechbubbles">
    <path
       style="fill:#f2f8d1;fill-opacity:1;fill-rule:evenodd;stroke:none;stroke-width:1px;stroke-linecap:butt;stroke-linejoin:miter;stroke-opacity:1"
       d="m 764.85813,196.21438 c 105.86475,58.30006 414.69347,137.43117 489.00157,32.59722 49.5106,30.57977 83.6882,53.74546 126.142,5.65951 75.1554,42.15856 89.6839,23.38305 105.7453,11.47473 38.5539,4.51986 56.3,6.27213 114.3337,33.43301 -60.5296,-17.08447 -75.7335,-19.14275 -110.3876,-17.61403 -46.9449,31.25258 -87.5473,2.56601 -105.3025,-8.45039 -43.4117,50.37627 -69.3679,33.60757 -121.2759,-3.59033 -111.1988,44.23165 -247.9278,70.54692 -495.48334,-21.34733 -8.78409,-16.28656 -2.77323,-32.16239 -2.77323,-32.16239 z"
       id="path4385"
       inkscape:connector-curvature="0"
       sodipodi:nodetypes="cccccccccc" />
    <path
       style="color:#000000;display:inline;overflow:visible;visibility:visible;fill:#f2f8d1;fill-opacity:1;fill-rule:nonzero;stroke:none;stroke-width:1px;marker:none;enable-background:accumulate"
       d="m 330.23471,227.93958 c 0,-39.81524 24.30276,-71.85149 101.12555,-75.58427 76.82286,-3.73264 299.3551,2.19206 333.01907,15.25644 33.66392,13.06444 47.40581,38.86136 46.57296,65.03667 -1.45901,45.85424 -86.24519,59.99104 -163.06798,58.12472 -76.82287,-1.86639 -194.36055,3.71544 -235.79308,-5.61629 -41.43254,-9.33174 -78.40378,-25.48949 -81.85652,-57.21727 z"
       id="path3986"
       inkscape:connector-curvature="0"
       sodipodi:nodetypes="csssssc" />
    <path
       style="color:#000000;display:inline;overflow:visible;visibility:visible;fill:#f2f8d1;fill-opacity:1;fill-rule:nonzero;stroke:none;stroke-width:1px;marker:none;enable-background:accumulate"
       d="m 961.70413,278.01685 c 0,-39.81524 19.52222,-71.85149 81.23337,-75.58427 61.7113,-3.73264 240.4696,2.19206 267.5117,15.25644 27.0419,13.06444 38.0806,38.86136 37.4117,65.03667 -1.172,45.85425 -69.2801,59.99105 -130.9913,58.12473 -61.7112,-1.86639 -156.1283,3.71544 -189.4108,-5.61629 -33.28242,-9.33174 -62.98111,-25.48949 -65.75467,-57.21728 z"
       id="path3986-3"
       inkscape:connector-curvature="0"
       sodipodi:nodetypes="csssssc" />
    <path
       style="color:#000000;display:inline;overflow:visible;visibility:visible;fill:#f2f8d1;fill-opacity:1;fill-rule:nonzero;stroke:none;stroke-width:1px;marker:none;enable-background:accumulate"
       d="m 342.48588,1621.9246 c -24.71539,-4.34 -56.25161,-49.209 -63.74568,-64.4565 21.77418,-3.9427 21.23419,-17.1203 21.23419,-17.1203 -38.47422,6.4938 -77.16203,-67.2008 -63.8235,-69.2482 -13.09993,-13.8953 16.36709,-35.0555 30.02872,-18.9354 -22.55891,11.5802 15.28181,86.958 62.14107,71.318 -1.7791,23.9892 -18.56612,39.2657 -27.6804,41.3802 25.14929,49.2632 32.09083,49.9965 41.8456,57.0622 z"
       id="path5162"
       inkscape:connector-curvature="0"
       sodipodi:nodetypes="cccccccc" />
    <path
       style="color:#000000;display:inline;overflow:visible;visibility:visible;fill:#f2f8d1;fill-opacity:1;fill-rule:nonzero;stroke:none;stroke-width:1px;marker:none;enable-background:accumulate"
       d="m 192.03816,1347.4012 c -6.55046,16.9399 -43.49604,18.3604 -57.09672,14.9171 27.41583,18.9504 26.46004,30.7247 -10.76293,32.5528 62.42359,34.1537 11.41187,28.9854 1.35017,37.6457 49.01407,11.7701 27.08466,26.4182 18.35847,41.0003 56.33681,0.5009 37.90034,23.8753 40.27483,42.4916 4.776,-8.7356 27.46546,-35.3305 28.83068,-5.7189 0.10305,-5.5972 37.15535,-51.9945 92.24837,-6.8674 -1.33098,-23.2371 17.5182,-28.0152 35.41652,4.0883 -5.98154,-34.7505 57.50594,-24.6947 91.13358,-13.7898 -16.99228,-21.0517 9.86127,-29.5356 38.43529,-25.343 -4.0064,-11.5426 5.64138,-19.4767 27.42929,-24.1884 -28.95268,-6.9725 -34.28857,-14.1644 19.47008,-21.904 -40.90718,-0.7487 -79.05339,-2.2825 -31.06037,-28.6769 -15.05675,-0.6387 -50.78045,21.3855 -34.12466,-43.0689 -25.89091,20.6342 -53.51414,32.0228 -88.15623,-11.2004 -16.39441,21.5934 -44.83011,32.2786 -57.20104,5.3069 -4.44637,11.4985 -22.88336,15.8229 -38.53501,16.3474 -6.05253,-4.5675 -12.29499,-10.7713 -18.80931,-18.8993 -10.64706,17.0666 -26.57394,28.5926 -57.20101,5.3069 z"
       id="path3549-3-7"
       inkscape:connector-curvature="0"
       sodipodi:nodetypes="cccccccccccccccccccc" />
    <path
       style="color:#000000;display:inline;overflow:visible;visibility:visible;fill:#f2f8d1;fill-opacity:1;fill-rule:nonzero;stroke:none;stroke-width:1px;marker:none;enable-background:accumulate"
       d="m 1234.7515,1447.0481 c 4.1064,18.9755 5.8021,41.3586 4.3648,45.455 -1.4372,4.0964 -24.1183,16.5382 -23.4659,22.8435 0.6524,6.3052 12.9649,15.7466 12.3589,19.7007 -0.606,3.954 -15.6638,15.9454 -14.8094,20.9326 0.8544,4.9873 15.7897,27.2412 15.0414,30.3641 -0.7485,3.1228 -4.6926,20.055 -2.189,37.166 9.0042,-32.3444 15.7135,-35.6328 15.0611,-41.9381 -0.6524,-6.3053 -11.8721,-19.3562 -10.7197,-25.1152 1.1524,-5.7588 15.3791,-17.6078 14.2398,-24.2575 -1.1392,-6.6496 -9.3553,-14.6538 -9.3553,-14.6538 6.163,-1.4836 36.9542,-14.0313 37.0766,-48.2765 0.1225,-34.2453 -37.6033,-22.2208 -37.6033,-22.2208 z"
       id="path5050"
       inkscape:connector-curvature="0" />
    <path
       style="color:#000000;display:inline;overflow:visible;visibility:visible;fill:#f2f8d1;fill-opacity:1;fill-rule:nonzero;stroke:none;stroke-width:1px;marker:none;enable-background:accumulate"
       d="m 1135.6402,1408.8128 c -2.6249,-12.2911 20.9798,-57.291 125.6401,-56.2704 104.6604,1.0206 128.6219,46.7521 128.9947,63.3583 0.3727,16.6062 -23.3129,44.0371 -38.3578,49.2439 -15.0449,5.2068 -54.3934,17.9289 -80.2241,16.4031 -25.8304,-1.5259 -62.783,3.4798 -104.5714,-22.6966 -39.8356,-24.9531 -29.5307,-46.8478 -31.4815,-50.0383 z"
       id="path3365"
       inkscape:connector-curvature="0"
       sodipodi:nodetypes="csssssc" />
    <path
       style="color:#000000;display:inline;overflow:visible;visibility:visible;fill:#f2f8d1;fill-opacity:1;fill-rule:nonzero;stroke:none;stroke-width:1px;marker:none;enable-background:accumulate"
       d="m 1808.0176,1597.5757 c 12.8534,16.1094 29.6793,33.5611 34.0041,37.3181 1.5869,-6.9257 4.1747,-12.6522 6.1138,-17.163 7.496,7.6985 45.2534,48.5097 49.4889,60.5594 2.1569,-29.3959 -34.9364,-83.6296 -48.0788,-95.2447 -3.581,5.3909 -8.4161,12.9117 -10.3708,15.6951 -6.8155,-5.4595 -17.8925,-22.1473 -17.8925,-22.1473 z"
       id="path5066"
       inkscape:connector-curvature="0"
       sodipodi:nodetypes="cccccccc" />
    <path
       style="fill:#f2f8d1;fill-opacity:1;fill-rule:evenodd;stroke:none"
       d="m 1401.2576,1459.9156 c 65.6604,3.8361 164.5208,26.5551 111.437,-31.2006 103.0359,40.9211 144.1246,48.488 311.7285,-15.7664 -13.9281,89.5274 90.8131,28.8586 169.1937,8.4015 -44.4738,58.7304 51.5287,47.39 114.1104,49.0824 -132.3852,65.1616 -62.8682,85.8851 -10.7039,110.4278 -201.615,-41.2482 -122.5444,10.9143 -114.1771,39.4385 -111.6088,-47.1386 -192.7747,-35.9511 -256.8981,7.8878 -33.5372,-23.8408 -44.0642,-73.1155 -167.6975,2.6292 45.4632,-65.3894 -14.1288,-58.526 -110.6087,-26.2923 15.1207,-22.2724 104.9888,-56.141 -46.3843,-52.5849 94.5503,-21.1734 114.3782,-49.8554 0,-92.023 z"
       id="path4584"
       inkscape:connector-curvature="0"
       sodipodi:nodetypes="cccccccccccc" />
    <path
       style="fill:#f2f8d1;fill-opacity:1;fill-rule:evenodd;stroke:none;stroke-width:1px;stroke-linecap:butt;stroke-linejoin:miter;stroke-opacity:1"
       d="m 2025.1457,2049.0219 c -21.8345,6.7049 -82.7428,58.8611 -49.5636,12.9731 l -31.0439,12.8188 c -60.1735,-27.8239 -257.04,-10.8316 -322.8909,4.518 l -18.0643,-27.5956 3.6032,23.166 -20.9438,-34.3111 11.7374,46.205 -11.0551,-15.6862 4.643,17.3201 -10.7383,-8.4218 1.8163,14.8251 c -24.9667,13.7655 -39.1621,40.9089 -44.786,68.9129 l -20.1625,-2.5375 18.7297,10.95 c -0.2383,1.7006 -0.4531,3.4002 -0.6303,5.0951 -0.012,0.1159 -0.023,0.2352 -0.034,0.3514 l -21.1925,-4.0002 20.3494,14.9135 c -0.044,0.7966 -0.089,1.5918 -0.1268,2.3957 l -40.5474,-9.34 40.2046,25.3813 c -0.01,28.5077 2.9083,57.7627 4.4188,70.5504 1.0474,8.8666 2.1731,15.1865 8.2919,29.4387 l -37.7647,43.0511 50.0431,-23.4879 c 1.0628,0.524 2.148,1.0472 3.2378,1.5714 l -12.9283,14.641 22.5066,-10.1975 c 2.3032,1.031 4.6566,2.0567 7.0554,3.0766 l -23.3075,32.7984 34.7656,-28.1266 c 83.6809,32.7361 262.5686,65.3224 387.3627,-13.8784 l 44.5236,17.0736 -33.1663,-24.6361 c 2.4365,-1.7026 4.8577,-3.4422 7.2594,-5.2275 l 8.1343,0.7195 -5.3894,-5.463 c 0.5147,-0.9033 1.0284,-1.8081 1.5389,-2.7214 l 27.7135,12.0154 -20.8281,-24.8938 c 13.1273,-18.4077 16.5032,-39.2929 14.8808,-60.4449 l 25.1333,-12.727 c -43.444,6.585 -27.927,-7.9049 -0.6102,-15.356 l -24.5387,1.0307 c 2.3769,-17.1237 -6.4056,-48.5312 -17.9084,-64.9228 l 1.1472,-12.4292 c -20.1351,1.1908 -7.1693,-9.503 -0.2297,-18.8152 -22.1096,8.3788 -19.3981,4.8593 -10.6987,-11.4309 -37.2359,4.6418 19.933,-38.3686 30.0531,-49.1422 z"
       id="path4212"
       inkscape:connector-curvature="0"
       sodipodi:nodetypes="ccccccccccccccccccccccscccccccccccccccccccccccccccc" />
    <path
       style="color:#000000;display:inline;overflow:visible;visibility:visible;fill:#f2f8d1;fill-opacity:1;fill-rule:nonzero;stroke:none;stroke-width:1px;marker:none;enable-background:accumulate"
       d="m 367.79744,2698.9679 c 36.39441,-19.0572 48.4084,-27.6376 48.29889,-70.8322 -0.10955,-43.1945 17.16485,-44.5253 17.16485,-44.5253 l 17.11255,23.0097 c 0,0 -6.67004,92.7921 -82.57629,92.3478 z"
       id="path3072-0"
       inkscape:connector-curvature="0"
       inkscape:transform-center-x="-94.0856"
       inkscape:transform-center-y="-90.317826" />
    <path
       style="color:#000000;display:inline;overflow:visible;visibility:visible;fill:#f2f8d1;fill-opacity:1;fill-rule:nonzero;stroke:none;stroke-width:1px;marker:none;enable-background:accumulate"
       d="m 247.16308,2570.0648 c -29.71815,-35.5036 -23.14904,-123.9793 177.04365,-123.3553 173.62462,0.5412 205.27057,32.7216 210.57086,44.4275 5.30042,11.7058 47.98794,77.1389 -85.34401,104.7487 -133.3321,27.6098 -255.94519,17.2012 -302.2705,-25.8209 z"
       id="path3525"
       inkscape:connector-curvature="0"
       sodipodi:nodetypes="cscsc" />
    <path
       style="color:#000000;display:inline;overflow:visible;visibility:visible;fill:#f2f8d1;fill-opacity:1;fill-rule:nonzero;stroke:none;stroke-width:1px;marker:none;enable-background:accumulate"
       d="m 657.44703,2691.9394 c 41.26377,0.4885 55.8622,-1.7171 74.19559,-46.4321 18.33332,-44.7151 34.62678,-36.5079 34.62678,-36.5079 l 5.75891,33.2804 c 0,0 -45.6706,92.2277 -114.58128,49.6596 z"
       id="path3072"
       inkscape:connector-curvature="0" />
    <path
       style="color:#000000;display:inline;overflow:visible;visibility:visible;fill:#f2f8d1;fill-opacity:1;fill-rule:nonzero;stroke:none;stroke-width:1px;marker:none;enable-background:accumulate"
       d="m 602.8976,2601.6372 c -6.57038,-29.8177 10.95058,-109.0209 145.64353,-102.4982 134.69285,6.5224 156.59423,43.7946 159.87936,54.9763 3.28524,11.1816 31.75688,74.5442 -73.36926,91.3167 -105.12624,16.7724 -199.30168,-0.9319 -232.15363,-43.7948 z"
       id="path3525-9"
       inkscape:connector-curvature="0" />
    <path
       style="color:#000000;display:inline;overflow:visible;visibility:visible;fill:#f2f8d1;fill-opacity:1;fill-rule:nonzero;stroke:none;stroke-width:1px;marker:none;enable-background:accumulate"
       d="m 1715.8244,2731.9556 c -48.806,-21.3553 -64.7562,-31.8209 -61.5722,-96.2896 3.1844,-64.4687 -20.5229,-63.0947 -20.5229,-63.0947 l -25.1934,37.6594 c 0,0 2.674,137.151 107.2885,121.7249 z"
       id="path3072-6"
       inkscape:connector-curvature="0" />
    <path
       style="color:#000000;display:inline;overflow:visible;visibility:visible;fill:#f2f8d1;fill-opacity:1;fill-rule:nonzero;stroke:none;stroke-width:1px;marker:none;enable-background:accumulate"
       d="m 1391.253,2647.6059 c -6.5704,-25.0264 10.9506,-91.5026 145.6435,-86.028 134.6929,5.4743 156.5943,36.7573 159.8794,46.1423 3.2852,9.3848 31.7569,62.5658 -73.3693,76.6431 -105.1262,14.0773 -199.3017,-0.7821 -232.1536,-36.7574 z"
       id="path3525-9-3"
       inkscape:connector-curvature="0" />
    <path
       style="color:#000000;display:inline;overflow:visible;visibility:visible;fill:#f2f8d1;fill-opacity:1;fill-rule:nonzero;stroke:none;stroke-width:1px;marker:none;enable-background:accumulate"
       d="m 2094.8166,2651.8782 c -35.5068,5.8296 -49.1181,5.0708 -84.7214,-45.6289 -35.6032,-50.6998 -46.087,-38.8932 -46.087,-38.8932 l 9.7006,40.2037 c 0,0 80.236,103.5719 121.1078,44.3184 z"
       id="path3072-6-2"
       inkscape:connector-curvature="0" />
    <path
       style="color:#000000;display:inline;overflow:visible;visibility:visible;fill:#f2f8d1;fill-opacity:1;fill-rule:nonzero;stroke:none;stroke-width:1px;marker:none;enable-background:accumulate"
       d="m 1658.3708,2607.7929 c -8.8822,-29.7459 14.8034,-108.7581 196.8867,-102.2512 182.0833,6.5067 211.6905,43.6891 216.1315,54.8438 4.441,11.1547 42.9302,74.3646 -99.1836,91.0967 -142.1139,16.7319 -269.4241,-0.9297 -313.8346,-43.6893 z"
       id="path3525-9-3-6"
       inkscape:connector-curvature="0" />
  </g>
  <g
     inkscape:groupmode="layer"
     id="layer1"
     inkscape:label="txt">
    <g
       inkscape:groupmode="layer"
       id="layer5"
       inkscape:label="frame01">
      <text
         xml:space="preserve"
         style="font-size:12px;font-style:normal;font-variant:normal;font-weight:normal;font-stretch:normal;text-align:center;line-height:125%;letter-spacing:0px;word-spacing:0px;text-anchor:middle;fill:#b17d62;fill-opacity:1;stroke:none;font-family:Lavi;-inkscape-font-specification:Lavi"
         x="568.03223"
         y="235.33878"
         id="text4246"
         sodipodi:linespacing="125%"><tspan
           sodipodi:role="line"
           style="font-size:45px;fill:#b17d62;fill-opacity:1"
           x="568.03223"
           y="235.33878"
           id="tspan4252">Cannella, molto bene.</tspan></text>
      <text
         xml:space="preserve"
         style="font-size:12px;font-style:normal;font-variant:normal;font-weight:normal;font-stretch:normal;text-align:center;line-height:125%;letter-spacing:0px;word-spacing:0px;text-anchor:middle;fill:#b17d62;fill-opacity:1;stroke:none;font-family:Lavi;-inkscape-font-specification:Lavi"
         x="1162.6538"
         y="285.41605"
         id="text4246-6"
         sodipodi:linespacing="125%"><tspan
           sodipodi:role="line"
           style="font-size:45px;fill:#b17d62;fill-opacity:1"
           x="1162.6538"
           y="285.41605"
           id="tspan4252-7">Camomilla, bene.</tspan></text>
    </g>
    <g
       inkscape:groupmode="layer"
       id="layer6"
       inkscape:label="frame02"
       style="display:inline">
      <text
         xml:space="preserve"
         style="font-style:normal;font-variant:normal;font-weight:normal;font-stretch:normal;font-size:14.82606888px;line-height:125%;font-family:Lavi;-inkscape-font-specification:Lavi;text-align:center;letter-spacing:0px;word-spacing:0px;text-anchor:middle;fill:#b17d62;fill-opacity:1;stroke:#b17d62;stroke-width:1.10773635;stroke-opacity:1"
         x="322.81226"
         y="1380.5071"
         id="text4246-6-5"
         sodipodi:linespacing="125%"
         transform="scale(0.95778249,1.0440784)"><tspan
           sodipodi:role="line"
           style="font-size:55.59775925px;fill:#b17d62;fill-opacity:1;stroke:#b17d62;stroke-width:1.10773635;stroke-opacity:1"
           x="322.81226"
           y="1380.5071"
           id="tspan4252-7-3">Pepper ?!</tspan></text>
    </g>
    <g
       inkscape:groupmode="layer"
       id="layer7"
       inkscape:label="frame03"
       style="display:inline">
      <text
         xml:space="preserve"
         style="font-size:12px;font-style:normal;font-variant:normal;font-weight:normal;font-stretch:normal;text-align:center;line-height:125%;letter-spacing:0px;word-spacing:0px;text-anchor:middle;fill:#b17d62;fill-opacity:1;stroke:none;font-family:Lavi;-inkscape-font-specification:Lavi"
         x="1266.8469"
         y="1432.3241"
         id="text4246-6-2"
         sodipodi:linespacing="125%"><tspan
           sodipodi:role="line"
           style="font-size:45px;fill:#b17d62;fill-opacity:1"
           x="1266.8469"
           y="1432.3241"
           id="tspan4278">Ma io...</tspan></text>
    </g>
    <g
       inkscape:groupmode="layer"
       id="layer8"
       inkscape:label="frame04">
      <text
         xml:space="preserve"
         style="font-size:15.28652954px;font-style:normal;font-variant:normal;font-weight:normal;font-stretch:normal;text-align:center;line-height:125%;letter-spacing:0px;word-spacing:0px;text-anchor:middle;fill:#b17d62;fill-opacity:1;stroke:#b17d62;stroke-width:1;stroke-opacity:1;display:inline;font-family:Lavi;-inkscape-font-specification:Lavi"
         x="1862.2501"
         y="1380.5809"
         id="text4246-6-2-1"
         sodipodi:linespacing="125%"
         transform="scale(0.94299065,1.0604559)"><tspan
           sodipodi:role="line"
           style="font-size:57.32448959px;fill:#b17d62;fill-opacity:1;stroke:#b17d62;stroke-width:1;stroke-opacity:1"
           x="1862.2501"
           y="1380.5809"
           id="tspan4278-2" /><tspan
           sodipodi:role="line"
           style="font-size:57.32448959px;fill:#b17d62;fill-opacity:1;stroke:#b17d62;stroke-width:1;stroke-opacity:1"
           x="1862.2501"
           y="1452.2366"
           id="tspan4327">Hai sbagliato ancora!!!</tspan></text>
      <text
         xml:space="preserve"
         style="font-size:12px;font-style:normal;font-variant:normal;font-weight:normal;font-stretch:normal;text-align:center;line-height:125%;letter-spacing:0px;word-spacing:0px;text-anchor:middle;fill:#b17d62;fill-opacity:1;stroke:none;display:inline;font-family:Lavi;-inkscape-font-specification:Lavi"
         x="1787.0167"
         y="2151.093"
         id="text4246-6-2-7"
         sodipodi:linespacing="125%"><tspan
           sodipodi:role="line"
           style="font-size:45px;fill:#b17d62;fill-opacity:1"
           x="1787.0167"
           y="2151.093"
           id="tspan4357">Ti ricordo che</tspan><tspan
           sodipodi:role="line"
           style="font-size:45px;fill:#b17d62;fill-opacity:1;stroke:none"
           x="1787.0167"
           y="2207.343"
           id="tspan3708">Hippiah <tspan
   style="stroke:#b27f64;stroke-opacity:1"
   id="tspan4384">non </tspan>è</tspan><tspan
           sodipodi:role="line"
           style="font-size:45px;fill:#b17d62;fill-opacity:1;stroke:none"
           x="1787.0167"
           y="2263.593"
           id="tspan3038">una magia per fare</tspan><tspan
           sodipodi:role="line"
           style="font-size:45px;fill:#b17d62;fill-opacity:1;stroke:none"
           x="1787.0167"
           y="2319.843"
           id="tspan3714">diserbanti!...</tspan></text>
    </g>
    <g
       inkscape:groupmode="layer"
       id="layer9"
       inkscape:label="frame05">
      <text
         xml:space="preserve"
         style="font-style:normal;font-variant:normal;font-weight:normal;font-stretch:normal;font-size:13.33242512px;line-height:125%;font-family:Lavi;-inkscape-font-specification:Lavi;text-align:center;letter-spacing:0px;word-spacing:0px;text-anchor:middle;fill:#b17d62;fill-opacity:1;stroke:#b17d62;stroke-width:4.39599991;stroke-miterlimit:4;stroke-dasharray:none;stroke-opacity:1"
         x="812.90161"
         y="2453.823"
         id="text4246-6-5-6"
         sodipodi:linespacing="125%"
         transform="matrix(0.96240981,0,-0.13855859,1.0390584,0,0)"><tspan
           sodipodi:role="line"
           style="font-size:49.99659729px;fill:#b17d62;fill-opacity:1;stroke:#b17d62;stroke-width:4.39599991;stroke-miterlimit:4;stroke-dasharray:none;stroke-opacity:1"
           x="812.90161"
           y="2453.823"
           id="tspan4252-7-3-1">HA HAHA HA !</tspan></text>
      <text
         xml:space="preserve"
         style="font-style:normal;font-variant:normal;font-weight:normal;font-stretch:normal;font-size:13.33242512px;line-height:125%;font-family:Lavi;-inkscape-font-specification:Lavi;text-align:center;letter-spacing:0px;word-spacing:0px;text-anchor:middle;fill:#b17d62;fill-opacity:1;stroke:#b17d62;stroke-width:4.39599991;stroke-miterlimit:4;stroke-dasharray:none;stroke-opacity:1"
         x="1147.7004"
         y="2494.9968"
         id="text4246-6-5-6-8"
         sodipodi:linespacing="125%"
         transform="matrix(0.96240981,0,-0.13855859,1.0390584,0,0)"><tspan
           sodipodi:role="line"
           style="font-size:49.99659729px;fill:#b17d62;fill-opacity:1;stroke:#b17d62;stroke-width:4.39599991;stroke-miterlimit:4;stroke-dasharray:none;stroke-opacity:1"
           x="1147.7004"
           y="2494.9968"
           id="tspan4252-7-3-1-7">HA HA !</tspan></text>
      <text
         xml:space="preserve"
         style="font-style:normal;font-variant:normal;font-weight:normal;font-stretch:normal;font-size:13.33242512px;line-height:125%;font-family:Lavi;-inkscape-font-specification:Lavi;text-align:center;letter-spacing:0px;word-spacing:0px;text-anchor:middle;fill:#b17d62;fill-opacity:1;stroke:#b17d62;stroke-width:4.39599991;stroke-miterlimit:4;stroke-dasharray:none;stroke-opacity:1"
         x="1973.8583"
         y="2544.5718"
         id="text4246-6-5-6-8-9"
         sodipodi:linespacing="125%"
         transform="matrix(0.96240981,0,-0.13855859,1.0390584,0,0)"><tspan
           sodipodi:role="line"
           style="font-size:49.99659729px;fill:#b17d62;fill-opacity:1;stroke:#b17d62;stroke-width:4.39599991;stroke-miterlimit:4;stroke-dasharray:none;stroke-opacity:1"
           x="1973.8583"
           y="2544.5718"
           id="tspan4252-7-3-1-7-2">HA HA !</tspan></text>
      <text
         xml:space="preserve"
         style="font-style:normal;font-variant:normal;font-weight:normal;font-stretch:normal;font-size:13.33242512px;line-height:125%;font-family:Lavi;-inkscape-font-specification:Lavi;text-align:center;letter-spacing:0px;word-spacing:0px;text-anchor:middle;fill:#b17d62;fill-opacity:1;stroke:#b17d62;stroke-width:4.39599991;stroke-miterlimit:4;stroke-dasharray:none;stroke-opacity:1"
         x="2305.4133"
         y="2500.9087"
         id="text4246-6-5-6-0"
         sodipodi:linespacing="125%"
         transform="matrix(0.96240981,0,-0.13855859,1.0390584,0,0)"><tspan
           sodipodi:role="line"
           style="font-size:49.99659729px;fill:#b17d62;fill-opacity:1;stroke:#b17d62;stroke-width:4.39599991;stroke-miterlimit:4;stroke-dasharray:none;stroke-opacity:1"
           x="2305.4133"
           y="2500.9087"
           id="tspan4252-7-3-1-2">HA HAHA HA !</tspan></text>
    </g>
  </g>
</svg>
