<?xml version="1.0" encoding="UTF-8" standalone="no"?>
<!-- Created with Inkscape (http://www.inkscape.org/) -->

<svg
   xmlns:dc="http://purl.org/dc/elements/1.1/"
   xmlns:cc="http://creativecommons.org/ns#"
   xmlns:rdf="http://www.w3.org/1999/02/22-rdf-syntax-ns#"
   xmlns:svg="http://www.w3.org/2000/svg"
   xmlns="http://www.w3.org/2000/svg"
   xmlns:xlink="http://www.w3.org/1999/xlink"
   xmlns:sodipodi="http://sodipodi.sourceforge.net/DTD/sodipodi-0.dtd"
   xmlns:inkscape="http://www.inkscape.org/namespaces/inkscape"
   id="svg2"
   version="1.1"
   inkscape:version="0.91 r13725"
   width="2481"
   height="3503"
   sodipodi:docname="Pepper-and-Carrot_by-David-Revoy_E18P03.svg">
  <metadata
     id="metadata8">
    <rdf:RDF>
      <cc:Work
         rdf:about="">
        <dc:format>image/svg+xml</dc:format>
        <dc:type
           rdf:resource="http://purl.org/dc/dcmitype/StillImage" />
        <dc:title />
      </cc:Work>
    </rdf:RDF>
  </metadata>
  <defs
     id="defs6" />
  <sodipodi:namedview
     pagecolor="#ffffff"
     bordercolor="#666666"
     borderopacity="1"
     objecttolerance="10"
     gridtolerance="10"
     guidetolerance="10"
     inkscape:pageopacity="0"
     inkscape:pageshadow="2"
     inkscape:window-width="1920"
     inkscape:window-height="1017"
     id="namedview4"
     showgrid="false"
     inkscape:zoom="0.30245747"
     inkscape:cx="373.67969"
     inkscape:cy="1308.5864"
     inkscape:window-x="-8"
     inkscape:window-y="-8"
     inkscape:window-maximized="1"
     inkscape:current-layer="layer3" />
  <g
     inkscape:groupmode="layer"
     id="layer2"
     inkscape:label="artwork"
     sodipodi:insensitive="true">
    <image
       sodipodi:absref="D:\Pepper&amp;Carrot\peppercarrot_ep18_translation-master\peppercarrot_ep18_translation-master\br\..\gfx_Pepper-and-Carrot_by-David-Revoy_E18P03.png"
       xlink:href="..\gfx_Pepper-and-Carrot_by-David-Revoy_E18P03.png"
       width="2481"
       height="3503"
       id="image10"
       x="0"
       y="0" />
  </g>
  <g
     inkscape:groupmode="layer"
     id="layer4"
     inkscape:label="translatornotes"
     sodipodi:insensitive="true" />
  <g
     inkscape:groupmode="layer"
     id="layer3"
     inkscape:label="speechbubbles">
    <path
       style="fill:#f2f8d1;fill-opacity:1;fill-rule:evenodd;stroke:none;stroke-width:1px;stroke-linecap:butt;stroke-linejoin:miter;stroke-opacity:1"
       d="m 764.85813,196.21438 c 105.86475,58.30006 414.69347,137.43117 489.00157,32.59722 49.5106,30.57977 83.6882,53.74546 126.142,5.65951 75.1554,42.15856 89.6839,23.38305 105.7453,11.47473 38.5539,4.51986 56.3,6.27213 114.3337,33.43301 -60.5296,-17.08447 -75.7335,-19.14275 -110.3876,-17.61403 -46.9449,31.25258 -87.5473,2.56601 -105.3025,-8.45039 -43.4117,50.37627 -69.3679,33.60757 -121.2759,-3.59033 -111.1988,44.23165 -247.9278,70.54692 -495.48334,-21.34733 -8.78409,-16.28656 -2.77323,-32.16239 -2.77323,-32.16239 z"
       id="path4385"
       inkscape:connector-curvature="0"
       sodipodi:nodetypes="cccccccccc" />
    <path
       style="color:#000000;display:inline;overflow:visible;visibility:visible;fill:#f2f8d1;fill-opacity:1;fill-rule:nonzero;stroke:none;stroke-width:1px;marker:none;enable-background:accumulate"
       d="m 330.23471,227.93958 c 0,-39.81524 23.40699,-71.85149 97.39817,-75.58427 73.99125,-3.73264 288.32118,2.19206 320.74434,15.25644 32.4231,13.06444 45.65848,38.86136 44.85633,65.03667 -1.40524,45.85424 -83.06629,59.99104 -157.05747,58.12472 -73.99126,-1.86639 -187.19662,3.71544 -227.102,-5.61629 -39.90538,-9.33174 -75.51389,-25.48949 -78.83937,-57.21727 z"
       id="path3986"
       inkscape:connector-curvature="0"
       sodipodi:nodetypes="csssssc" />
    <path
       style="color:#000000;display:inline;overflow:visible;visibility:visible;fill:#f2f8d1;fill-opacity:1;fill-rule:nonzero;stroke:none;stroke-width:1px;marker:none;enable-background:accumulate"
       d="m 945.84977,275.84294 c 0,-39.81524 20.10389,-71.85149 83.65373,-75.58427 63.5501,-3.73264 247.6345,2.19206 275.4824,15.25644 27.8476,13.06444 39.2152,38.86136 38.5263,65.03667 -1.2069,45.85425 -71.3443,59.99105 -134.8942,58.12473 -63.5499,-1.86639 -160.7802,3.71544 -195.0543,-5.61629 -34.27416,-9.33174 -64.85773,-25.48949 -67.71393,-57.21728 z"
       id="path3986-3"
       inkscape:connector-curvature="0"
       sodipodi:nodetypes="csssssc" />
    <path
       style="color:#000000;display:inline;overflow:visible;visibility:visible;fill:#f2f8d1;fill-opacity:1;fill-rule:nonzero;stroke:none;stroke-width:1px;marker:none;enable-background:accumulate"
       d="m 342.48588,1621.9246 c -24.71539,-4.34 -56.25161,-49.209 -63.74568,-64.4565 21.77418,-3.9427 21.23419,-17.1203 21.23419,-17.1203 -38.47422,6.4938 -77.16203,-67.2008 -63.8235,-69.2482 -13.09993,-13.8953 16.36709,-35.0555 30.02872,-18.9354 -22.55891,11.5802 15.28181,86.958 62.14107,71.318 -1.7791,23.9892 -18.56612,39.2657 -27.6804,41.3802 25.14929,49.2632 32.09083,49.9965 41.8456,57.0622 z"
       id="path5162"
       inkscape:connector-curvature="0"
       sodipodi:nodetypes="cccccccc" />
    <path
       style="color:#000000;display:inline;overflow:visible;visibility:visible;fill:#f2f8d1;fill-opacity:1;fill-rule:nonzero;stroke:none;stroke-width:1px;marker:none;enable-background:accumulate"
       d="m 192.03816,1347.4012 c -6.55046,16.9399 -43.49604,18.3604 -57.09672,14.9171 27.41583,18.9504 26.46004,30.7247 -10.76293,32.5528 62.42359,34.1537 11.41187,28.9854 1.35017,37.6457 49.01407,11.7701 27.08466,26.4182 18.35847,41.0003 56.33681,0.5009 37.90034,23.8753 40.27483,42.4916 4.776,-8.7356 27.46546,-35.3305 28.83068,-5.7189 0.10305,-5.5972 37.15535,-51.9945 92.24837,-6.8674 -1.33098,-23.2371 17.5182,-28.0152 35.41652,4.0883 -5.98154,-34.7505 57.50594,-24.6947 91.13358,-13.7898 -16.99228,-21.0517 9.86127,-29.5356 38.43529,-25.343 -4.0064,-11.5426 5.64138,-19.4767 27.42929,-24.1884 -28.95268,-6.9725 -34.28857,-14.1644 19.47008,-21.904 -40.90718,-0.7487 -79.05339,-2.2825 -31.06037,-28.6769 -15.05675,-0.6387 -50.78045,21.3855 -34.12466,-43.0689 -25.89091,20.6342 -53.51414,32.0228 -88.15623,-11.2004 -16.39441,21.5934 -44.83011,32.2786 -57.20104,5.3069 -4.44637,11.4985 -22.88336,15.8229 -38.53501,16.3474 -6.05253,-4.5675 -12.29499,-10.7713 -18.80931,-18.8993 -10.64706,17.0666 -26.57394,28.5926 -57.20101,5.3069 z"
       id="path3549-3-7"
       inkscape:connector-curvature="0"
       sodipodi:nodetypes="cccccccccccccccccccc" />
    <path
       style="color:#000000;display:inline;overflow:visible;visibility:visible;fill:#f2f8d1;fill-opacity:1;fill-rule:nonzero;stroke:none;stroke-width:1px;marker:none;enable-background:accumulate"
       d="m 1234.7515,1447.0481 c 4.1064,18.9755 5.8021,41.3586 4.3648,45.455 -1.4372,4.0964 -24.1183,16.5382 -23.4659,22.8435 0.6524,6.3052 12.9649,15.7466 12.3589,19.7007 -0.606,3.954 -15.6638,15.9454 -14.8094,20.9326 0.8544,4.9873 15.7897,27.2412 15.0414,30.3641 -0.7485,3.1228 -4.6926,20.055 -2.189,37.166 9.0042,-32.3444 15.7135,-35.6328 15.0611,-41.9381 -0.6524,-6.3053 -11.8721,-19.3562 -10.7197,-25.1152 1.1524,-5.7588 15.3791,-17.6078 14.2398,-24.2575 -1.1392,-6.6496 -9.3553,-14.6538 -9.3553,-14.6538 6.163,-1.4836 36.9542,-14.0313 37.0766,-48.2765 0.1225,-34.2453 -37.6033,-22.2208 -37.6033,-22.2208 z"
       id="path5050"
       inkscape:connector-curvature="0" />
    <path
       style="color:#000000;display:inline;overflow:visible;visibility:visible;fill:#f2f8d1;fill-opacity:1;fill-rule:nonzero;stroke:none;stroke-width:1px;marker:none;enable-background:accumulate"
       d="m 1135.6402,1408.8128 c -2.6249,-12.2911 20.9798,-57.291 125.6401,-56.2704 104.6604,1.0206 128.6219,46.7521 128.9947,63.3583 0.3727,16.6062 -23.3129,44.0371 -38.3578,49.2439 -15.0449,5.2068 -54.3934,17.9289 -80.2241,16.4031 -25.8304,-1.5259 -62.783,3.4798 -104.5714,-22.6966 -39.8356,-24.9531 -29.5307,-46.8478 -31.4815,-50.0383 z"
       id="path3365"
       inkscape:connector-curvature="0"
       sodipodi:nodetypes="csssssc" />
    <path
       style="color:#000000;display:inline;overflow:visible;visibility:visible;fill:#f2f8d1;fill-opacity:1;fill-rule:nonzero;stroke:none;stroke-width:1px;marker:none;enable-background:accumulate"
       d="m 1747.866,1595.8051 c 12.8534,16.1094 29.6793,33.5611 34.0041,37.3181 1.5869,-6.9257 4.1747,-12.6522 6.1138,-17.163 7.496,7.6985 45.2534,48.5097 49.4889,60.5594 2.1569,-29.3959 -34.9364,-83.6296 -48.0788,-95.2447 -3.581,5.3909 -8.4161,12.9117 -10.3708,15.6951 -6.8155,-5.4595 -17.8925,-22.1473 -17.8925,-22.1473 z"
       id="path5066"
       inkscape:connector-curvature="0"
       sodipodi:nodetypes="cccccccc" />
    <path
       style="fill:#f2f8d1;fill-opacity:1;fill-rule:evenodd;stroke:none;stroke-width:1px;stroke-linecap:butt;stroke-linejoin:miter;stroke-opacity:1"
       d="m 1343.8734,1457.7143 c 48.9024,3.8361 122.5317,26.5551 82.9959,-31.2006 76.7392,40.9211 107.3412,48.488 232.1692,-15.7664 -10.3733,89.5274 67.6358,28.8586 126.0122,8.4015 -33.1232,58.7304 38.3776,47.39 84.9871,49.0824 -98.5978,65.1616 -46.823,85.8851 -7.972,110.4278 -150.1589,-41.2482 -91.2686,10.9143 -85.0368,39.4385 -83.1241,-47.1386 -143.5748,-35.9511 -191.3326,7.8878 -24.9779,-23.8408 -32.8183,-73.1155 -124.8978,2.6292 33.86,-65.3894 -10.5228,-58.526 -82.3792,-26.2923 11.2616,-22.2724 78.1936,-56.141 -34.546,-52.5849 70.4192,-21.1734 85.1865,-49.8554 0,-92.023 z"
       id="path4584"
       inkscape:connector-curvature="0"
       sodipodi:nodetypes="cccccccccccc" />
    <path
       style="fill:#f2f8d1;fill-opacity:1;fill-rule:evenodd;stroke:none;stroke-width:1px;stroke-linecap:butt;stroke-linejoin:miter;stroke-opacity:1"
       d="m 2024.4654,2026.4606 c -22.4864,7.1681 -85.2132,62.9275 -51.0434,13.8694 l -31.9708,13.7043 c -61.9701,-29.7461 -264.7144,-11.5799 -332.5313,4.8302 l -18.6037,-29.5021 3.7108,24.7664 -21.5691,-36.6814 12.0878,49.397 -11.3851,-16.7698 4.7816,18.5167 -11.0589,-9.0037 1.8705,15.8493 c -25.7121,14.7165 -40.3314,43.7351 -46.1232,73.6737 l -20.7645,-2.7127 19.289,11.7064 c -0.2455,1.8182 -0.4667,3.6352 -0.6492,5.4472 -0.012,0.1239 -0.024,0.2514 -0.035,0.3756 l -21.8252,-4.2766 20.9569,15.9439 c -0.045,0.8516 -0.092,1.7017 -0.1305,2.5611 l -41.758,-9.9852 41.4049,27.1348 c -0.01,30.4771 2.9952,61.7532 4.5508,75.4244 1.0786,9.4791 2.2379,16.2357 8.5394,31.4724 l -38.8922,46.0254 51.5372,-25.1106 c 1.0946,0.5602 2.2122,1.1196 3.3345,1.68 l -13.3143,15.6524 23.1786,-10.9019 c 2.3719,1.1022 4.7956,2.1987 7.266,3.289 l -24.0034,35.0643 35.8036,-30.0696 c 86.1794,34.9976 270.4081,69.8351 398.9281,-14.8372 l 45.8529,18.2531 -34.1565,-26.3382 c 2.5092,-1.8202 5.0027,-3.68 7.4761,-5.5885 l 8.3772,0.7692 -5.5503,-5.8405 c 0.5301,-0.9657 1.0591,-1.933 1.5848,-2.9093 l 28.541,12.8454 -21.45,-26.6136 c 13.5192,-19.6794 16.9959,-42.0074 15.3251,-64.6207 l 25.8837,-13.6063 c -44.7411,7.0399 -28.7608,-8.451 -0.6284,-16.4169 l -25.2714,1.1019 c 2.4479,-18.3067 -6.5968,-51.884 -18.443,-69.408 l 1.1814,-13.2878 c -20.7363,1.2731 -7.3834,-10.1596 -0.2366,-20.1151 -22.7697,8.9577 -19.9772,5.195 -11.0181,-12.2206 -38.3476,4.9625 20.5281,-41.0193 30.9504,-52.5372 z"
       id="path4212"
       inkscape:connector-curvature="0"
       sodipodi:nodetypes="ccccccccccccccccccccccscccccccccccccccccccccccccccc" />
    <path
       style="color:#000000;display:inline;overflow:visible;visibility:visible;fill:#f2f8d1;fill-opacity:1;fill-rule:nonzero;stroke:none;stroke-width:1px;marker:none;enable-background:accumulate"
       d="m 367.79744,2698.9679 c 36.39441,-19.0572 48.4084,-27.6376 48.29889,-70.8322 -0.10955,-43.1945 17.16485,-44.5253 17.16485,-44.5253 l 17.11255,23.0097 c 0,0 -6.67004,92.7921 -82.57629,92.3478 z"
       id="path3072-0"
       inkscape:connector-curvature="0"
       inkscape:transform-center-x="-94.0856"
       inkscape:transform-center-y="-90.317826" />
    <path
       style="color:#000000;display:inline;overflow:visible;visibility:visible;fill:#f2f8d1;fill-opacity:1;fill-rule:nonzero;stroke:none;stroke-width:1px;marker:none;enable-background:accumulate"
       d="m 247.16308,2570.0648 c -29.71815,-35.5036 -23.14904,-123.9793 177.04365,-123.3553 173.62462,0.5412 205.27057,32.7216 210.57086,44.4275 5.30042,11.7058 47.98794,77.1389 -85.34401,104.7487 -133.3321,27.6098 -255.94519,17.2012 -302.2705,-25.8209 z"
       id="path3525"
       inkscape:connector-curvature="0"
       sodipodi:nodetypes="cscsc" />
    <path
       style="color:#000000;display:inline;overflow:visible;visibility:visible;fill:#f2f8d1;fill-opacity:1;fill-rule:nonzero;stroke:none;stroke-width:1px;marker:none;enable-background:accumulate"
       d="m 657.44703,2691.9394 c 41.26377,0.4885 55.8622,-1.7171 74.19559,-46.4321 18.33332,-44.7151 34.62678,-36.5079 34.62678,-36.5079 l 5.75891,33.2804 c 0,0 -45.6706,92.2277 -114.58128,49.6596 z"
       id="path3072"
       inkscape:connector-curvature="0" />
    <path
       style="color:#000000;display:inline;overflow:visible;visibility:visible;fill:#f2f8d1;fill-opacity:1;fill-rule:nonzero;stroke:none;stroke-width:1px;marker:none;enable-background:accumulate"
       d="m 602.8976,2601.6372 c -6.57038,-29.8177 10.95058,-109.0209 145.64353,-102.4982 134.69285,6.5224 156.59423,43.7946 159.87936,54.9763 3.28524,11.1816 31.75688,74.5442 -73.36926,91.3167 -105.12624,16.7724 -199.30168,-0.9319 -232.15363,-43.7948 z"
       id="path3525-9"
       inkscape:connector-curvature="0" />
    <path
       style="color:#000000;display:inline;overflow:visible;visibility:visible;fill:#f2f8d1;fill-opacity:1;fill-rule:nonzero;stroke:none;stroke-width:1px;marker:none;enable-background:accumulate"
       d="m 1715.8244,2731.9556 c -48.806,-21.3553 -64.7562,-31.8209 -61.5722,-96.2896 3.1844,-64.4687 -20.5229,-63.0947 -20.5229,-63.0947 l -25.1934,37.6594 c 0,0 2.674,137.151 107.2885,121.7249 z"
       id="path3072-6"
       inkscape:connector-curvature="0" />
    <path
       style="color:#000000;display:inline;overflow:visible;visibility:visible;fill:#f2f8d1;fill-opacity:1;fill-rule:nonzero;stroke:none;stroke-width:1px;marker:none;enable-background:accumulate"
       d="m 1391.253,2647.6059 c -6.5704,-25.0264 10.9506,-91.5026 145.6435,-86.028 134.6929,5.4743 156.5943,36.7573 159.8794,46.1423 3.2852,9.3848 31.7569,62.5658 -73.3693,76.6431 -105.1262,14.0773 -199.3017,-0.7821 -232.1536,-36.7574 z"
       id="path3525-9-3"
       inkscape:connector-curvature="0" />
    <path
       style="color:#000000;display:inline;overflow:visible;visibility:visible;fill:#f2f8d1;fill-opacity:1;fill-rule:nonzero;stroke:none;stroke-width:1px;marker:none;enable-background:accumulate"
       d="m 2094.8166,2651.8782 c -35.5068,5.8296 -49.1181,5.0708 -84.7214,-45.6289 -35.6032,-50.6998 -46.087,-38.8932 -46.087,-38.8932 l 9.7006,40.2037 c 0,0 80.236,103.5719 121.1078,44.3184 z"
       id="path3072-6-2"
       inkscape:connector-curvature="0" />
    <path
       style="color:#000000;display:inline;overflow:visible;visibility:visible;fill:#f2f8d1;fill-opacity:1;fill-rule:nonzero;stroke:none;stroke-width:1px;marker:none;enable-background:accumulate"
       d="m 1658.3708,2607.7929 c -8.8822,-29.7459 14.8034,-108.7581 196.8867,-102.2512 182.0833,6.5067 211.6905,43.6891 216.1315,54.8438 4.441,11.1547 42.9302,74.3646 -99.1836,91.0967 -142.1139,16.7319 -269.4241,-0.9297 -313.8346,-43.6893 z"
       id="path3525-9-3-6"
       inkscape:connector-curvature="0" />
  </g>
  <g
     inkscape:groupmode="layer"
     id="layer1"
     inkscape:label="txt">
    <g
       inkscape:groupmode="layer"
       id="layer5"
       inkscape:label="frame01">
      <text
         xml:space="preserve"
         style="font-style:normal;font-variant:normal;font-weight:normal;font-stretch:normal;font-size:12px;line-height:125%;font-family:Lavi;-inkscape-font-specification:Lavi;text-align:center;letter-spacing:0px;word-spacing:0px;text-anchor:middle;fill:#b17d62;fill-opacity:1;stroke:none"
         x="568.03223"
         y="235.33878"
         id="text4246"
         sodipodi:linespacing="125%"><tspan
           sodipodi:role="line"
           style="font-size:45px;fill:#b17d62;fill-opacity:1"
           x="568.03223"
           y="235.33878"
           id="tspan4252">Kanell, mat-tre.</tspan></text>
      <text
         xml:space="preserve"
         style="font-style:normal;font-variant:normal;font-weight:normal;font-stretch:normal;font-size:12px;line-height:125%;font-family:Lavi;-inkscape-font-specification:Lavi;text-align:center;letter-spacing:0px;word-spacing:0px;text-anchor:middle;fill:#b17d62;fill-opacity:1;stroke:none"
         x="1150.2001"
         y="283.71255"
         id="text4246-6"
         sodipodi:linespacing="125%"><tspan
           sodipodi:role="line"
           style="font-size:45px;fill:#b17d62;fill-opacity:1"
           x="1150.2001"
           y="283.71255"
           id="tspan4252-7">Kramamailh, mat.</tspan></text>
    </g>
    <g
       inkscape:groupmode="layer"
       id="layer6"
       inkscape:label="frame02"
       style="display:inline">
      <text
         xml:space="preserve"
         style="font-style:normal;font-variant:normal;font-weight:normal;font-stretch:normal;font-size:14.82606888px;line-height:125%;font-family:Lavi;-inkscape-font-specification:Lavi;text-align:center;letter-spacing:0px;word-spacing:0px;text-anchor:middle;fill:#b17d62;fill-opacity:1;stroke:#b17d62;stroke-width:1.10773635;stroke-opacity:1"
         x="322.81226"
         y="1380.5071"
         id="text4246-6-5"
         sodipodi:linespacing="125%"
         transform="scale(0.95778249,1.0440784)"><tspan
           sodipodi:role="line"
           style="font-size:55.59775925px;fill:#b17d62;fill-opacity:1;stroke:#b17d62;stroke-width:1.10773635;stroke-opacity:1"
           x="322.81226"
           y="1380.5071"
           id="tspan4252-7-3">Pepper?!</tspan></text>
    </g>
    <g
       inkscape:groupmode="layer"
       id="layer7"
       inkscape:label="frame03"
       style="display:inline">
      <text
         xml:space="preserve"
         style="font-style:normal;font-variant:normal;font-weight:normal;font-stretch:normal;font-size:12px;line-height:125%;font-family:Lavi;-inkscape-font-specification:Lavi;text-align:center;letter-spacing:0px;word-spacing:0px;text-anchor:middle;fill:#b17d62;fill-opacity:1;stroke:none"
         x="1266.8469"
         y="1432.3241"
         id="text4246-6-2"
         sodipodi:linespacing="125%"><tspan
           sodipodi:role="line"
           style="font-size:45px;fill:#b17d62;fill-opacity:1"
           x="1266.8469"
           y="1432.3241"
           id="tspan4278">Hogen...</tspan></text>
    </g>
    <g
       inkscape:groupmode="layer"
       id="layer8"
       inkscape:label="frame04">
      <text
         xml:space="preserve"
         style="font-style:normal;font-variant:normal;font-weight:normal;font-stretch:normal;font-size:14.80049419px;line-height:125%;font-family:Lavi;-inkscape-font-specification:Lavi;text-align:center;letter-spacing:0px;word-spacing:0px;text-anchor:middle;display:inline;fill:#b17d62;fill-opacity:1;stroke:#b17d62;stroke-width:0.96820503;stroke-opacity:1"
         x="1761.3817"
         y="1333.7723"
         id="text4246-6-2-1"
         sodipodi:linespacing="125%"
         transform="scale(0.91241192,1.0959962)"><tspan
           sodipodi:role="line"
           style="font-size:55.50185776px;fill:#b17d62;fill-opacity:1;stroke:#b17d62;stroke-width:0.96820503;stroke-opacity:1"
           x="1761.3817"
           y="1333.7723"
           id="tspan4278-2" /><tspan
           sodipodi:role="line"
           style="font-size:55.50185776px;fill:#b17d62;fill-opacity:1;stroke:#b17d62;stroke-width:0.96820503;stroke-opacity:1"
           x="1761.3817"
           y="1403.1497"
           id="tspan4327">C'hwitet adarre!!!</tspan></text>
      <text
         xml:space="preserve"
         style="font-style:normal;font-variant:normal;font-weight:normal;font-stretch:normal;font-size:12px;line-height:125%;font-family:Lavi;-inkscape-font-specification:Lavi;text-align:center;letter-spacing:0px;word-spacing:0px;text-anchor:middle;display:inline;fill:#b17d62;fill-opacity:1;stroke:none"
         x="1775.0167"
         y="2105.093"
         id="text4246-6-2-7"
         sodipodi:linespacing="125%"><tspan
           sodipodi:role="line"
           style="font-size:45px;fill:#b17d62;fill-opacity:1"
           x="1775.0167"
           y="2105.093"
           id="tspan4349">Degas a ran</tspan><tspan
           sodipodi:role="line"
           style="font-size:45px;fill:#b17d62;fill-opacity:1"
           x="1775.0167"
           y="2161.343"
           id="tspan3386">da soñj deoc'h</tspan><tspan
           sodipodi:role="line"
           style="font-size:45px;fill:#b17d62;fill-opacity:1"
           x="1775.0167"
           y="2217.593"
           id="tspan4353">n'eo ket Hippiah un</tspan><tspan
           sodipodi:role="line"
           style="font-size:45px;fill:#b17d62;fill-opacity:1"
           x="1775.0167"
           y="2273.843"
           id="tspan4355">hudouriezh evit ober</tspan><tspan
           sodipodi:role="line"
           style="font-size:45px;fill:#b17d62;fill-opacity:1"
           x="1775.0167"
           y="2330.093"
           id="tspan4357">dilouzaouerioù!...</tspan></text>
    </g>
    <g
       inkscape:groupmode="layer"
       id="layer9"
       inkscape:label="frame05">
      <text
         xml:space="preserve"
         style="font-style:normal;font-variant:normal;font-weight:normal;font-stretch:normal;font-size:13.33242512px;line-height:125%;font-family:Lavi;-inkscape-font-specification:Lavi;text-align:center;letter-spacing:0px;word-spacing:0px;text-anchor:middle;fill:#b17d62;fill-opacity:1;stroke:#b17d62;stroke-width:4.39599991;stroke-miterlimit:4;stroke-dasharray:none;stroke-opacity:1"
         x="812.90161"
         y="2453.823"
         id="text4246-6-5-6"
         sodipodi:linespacing="125%"
         transform="matrix(0.96240981,0,-0.13855859,1.0390584,0,0)"><tspan
           sodipodi:role="line"
           style="font-size:49.99659729px;fill:#b17d62;fill-opacity:1;stroke:#b17d62;stroke-width:4.39599991;stroke-miterlimit:4;stroke-dasharray:none;stroke-opacity:1"
           x="812.90161"
           y="2453.823"
           id="tspan4252-7-3-1">A A A A !</tspan></text>
      <text
         xml:space="preserve"
         style="font-style:normal;font-variant:normal;font-weight:normal;font-stretch:normal;font-size:13.33242512px;line-height:125%;font-family:Lavi;-inkscape-font-specification:Lavi;text-align:center;letter-spacing:0px;word-spacing:0px;text-anchor:middle;fill:#b17d62;fill-opacity:1;stroke:#b17d62;stroke-width:4.39599991;stroke-miterlimit:4;stroke-dasharray:none;stroke-opacity:1"
         x="1147.7004"
         y="2494.9968"
         id="text4246-6-5-6-8"
         sodipodi:linespacing="125%"
         transform="matrix(0.96240981,0,-0.13855859,1.0390584,0,0)"><tspan
           sodipodi:role="line"
           style="font-size:49.99659729px;fill:#b17d62;fill-opacity:1;stroke:#b17d62;stroke-width:4.39599991;stroke-miterlimit:4;stroke-dasharray:none;stroke-opacity:1"
           x="1147.7004"
           y="2494.9968"
           id="tspan4252-7-3-1-7">A A!</tspan></text>
      <text
         xml:space="preserve"
         style="font-style:normal;font-variant:normal;font-weight:normal;font-stretch:normal;font-size:13.33242512px;line-height:125%;font-family:Lavi;-inkscape-font-specification:Lavi;text-align:center;letter-spacing:0px;word-spacing:0px;text-anchor:middle;fill:#b17d62;fill-opacity:1;stroke:#b17d62;stroke-width:4.39599991;stroke-miterlimit:4;stroke-dasharray:none;stroke-opacity:1"
         x="1973.8583"
         y="2544.5718"
         id="text4246-6-5-6-8-9"
         sodipodi:linespacing="125%"
         transform="matrix(0.96240981,0,-0.13855859,1.0390584,0,0)"><tspan
           sodipodi:role="line"
           style="font-size:49.99659729px;fill:#b17d62;fill-opacity:1;stroke:#b17d62;stroke-width:4.39599991;stroke-miterlimit:4;stroke-dasharray:none;stroke-opacity:1"
           x="1973.8583"
           y="2544.5718"
           id="tspan4252-7-3-1-7-2">A A!</tspan></text>
      <text
         xml:space="preserve"
         style="font-style:normal;font-variant:normal;font-weight:normal;font-stretch:normal;font-size:13.33242512px;line-height:125%;font-family:Lavi;-inkscape-font-specification:Lavi;text-align:center;letter-spacing:0px;word-spacing:0px;text-anchor:middle;fill:#b17d62;fill-opacity:1;stroke:#b17d62;stroke-width:4.39599991;stroke-miterlimit:4;stroke-dasharray:none;stroke-opacity:1"
         x="2305.4133"
         y="2500.9087"
         id="text4246-6-5-6-0"
         sodipodi:linespacing="125%"
         transform="matrix(0.96240981,0,-0.13855859,1.0390584,0,0)"><tspan
           sodipodi:role="line"
           style="font-size:49.99659729px;fill:#b17d62;fill-opacity:1;stroke:#b17d62;stroke-width:4.39599991;stroke-miterlimit:4;stroke-dasharray:none;stroke-opacity:1"
           x="2305.4133"
           y="2500.9087"
           id="tspan4252-7-3-1-2">A A A A !</tspan></text>
    </g>
  </g>
</svg>
