<?xml version="1.0" encoding="UTF-8" standalone="no"?>
<!-- Created with Inkscape (http://www.inkscape.org/) -->

<svg
   xmlns:dc="http://purl.org/dc/elements/1.1/"
   xmlns:cc="http://creativecommons.org/ns#"
   xmlns:rdf="http://www.w3.org/1999/02/22-rdf-syntax-ns#"
   xmlns:svg="http://www.w3.org/2000/svg"
   xmlns="http://www.w3.org/2000/svg"
   xmlns:xlink="http://www.w3.org/1999/xlink"
   xmlns:sodipodi="http://sodipodi.sourceforge.net/DTD/sodipodi-0.dtd"
   xmlns:inkscape="http://www.inkscape.org/namespaces/inkscape"
   id="svg2"
   version="1.1"
   inkscape:version="0.91 r13725"
   width="2481"
   height="3503"
   sodipodi:docname="Pepper-and-Carrot_by-David-Revoy_E18P03.svg">
  <metadata
     id="metadata8">
    <rdf:RDF>
      <cc:Work
         rdf:about="">
        <dc:format>image/svg+xml</dc:format>
        <dc:type
           rdf:resource="http://purl.org/dc/dcmitype/StillImage" />
        <dc:title />
      </cc:Work>
    </rdf:RDF>
  </metadata>
  <defs
     id="defs6" />
  <sodipodi:namedview
     pagecolor="#ffffff"
     bordercolor="#666666"
     borderopacity="1"
     objecttolerance="10"
     gridtolerance="10"
     guidetolerance="10"
     inkscape:pageopacity="0"
     inkscape:pageshadow="2"
     inkscape:window-width="1600"
     inkscape:window-height="826"
     id="namedview4"
     showgrid="false"
     inkscape:zoom="0.60491494"
     inkscape:cx="1127.5506"
     inkscape:cy="394.56139"
     inkscape:window-x="1280"
     inkscape:window-y="0"
     inkscape:window-maximized="1"
     inkscape:current-layer="layer9" />
  <g
     inkscape:groupmode="layer"
     id="layer2"
     inkscape:label="artwork"
     sodipodi:insensitive="true">
    <image
       sodipodi:absref="/home/willem/Git/peppercarrot_ep18_translation/nl/../gfx_Pepper-and-Carrot_by-David-Revoy_E18P03.png"
       xlink:href="../gfx_Pepper-and-Carrot_by-David-Revoy_E18P03.png"
       width="2481"
       height="3503"
       id="image10"
       x="0"
       y="0" />
  </g>
  <g
     inkscape:groupmode="layer"
     id="layer4"
     inkscape:label="translatornotes"
     sodipodi:insensitive="true" />
  <g
     inkscape:groupmode="layer"
     id="layer3"
     inkscape:label="speechbubbles">
    <path
       style="fill:#f2f8d1;fill-opacity:1;fill-rule:evenodd;stroke:none;stroke-width:1px;stroke-linecap:butt;stroke-linejoin:miter;stroke-opacity:1"
       d="m 764.85813,196.21438 c 105.86475,58.30006 414.69347,137.43117 489.00157,32.59722 49.5106,30.57977 83.6882,53.74546 126.142,5.65951 75.1554,42.15856 89.6839,23.38305 105.7453,11.47473 38.5539,4.51986 56.3,6.27213 114.3337,33.43301 -60.5296,-17.08447 -75.7335,-19.14275 -110.3876,-17.61403 -46.9449,31.25258 -87.5473,2.56601 -105.3025,-8.45039 -43.4117,50.37627 -69.3679,33.60757 -121.2759,-3.59033 -111.1988,44.23165 -247.9278,70.54692 -495.48334,-21.34733 -8.78409,-16.28656 -2.77323,-32.16239 -2.77323,-32.16239 z"
       id="path4385"
       inkscape:connector-curvature="0"
       sodipodi:nodetypes="cccccccccc" />
    <path
       style="color:#000000;display:inline;overflow:visible;visibility:visible;fill:#f2f8d1;fill-opacity:1;fill-rule:nonzero;stroke:none;stroke-width:1px;marker:none;enable-background:accumulate"
       d="m 330.23471,227.93958 c 0,-39.81524 23.40699,-71.85149 97.39817,-75.58427 73.99125,-3.73264 288.32118,2.19206 320.74434,15.25644 32.4231,13.06444 45.65848,38.86136 44.85633,65.03667 -1.40524,45.85424 -83.06629,59.99104 -157.05747,58.12472 -73.99126,-1.86639 -187.19662,3.71544 -227.102,-5.61629 -39.90538,-9.33174 -75.51389,-25.48949 -78.83937,-57.21727 z"
       id="path3986"
       inkscape:connector-curvature="0"
       sodipodi:nodetypes="csssssc" />
    <path
       style="color:#000000;display:inline;overflow:visible;visibility:visible;fill:#f2f8d1;fill-opacity:1;fill-rule:nonzero;stroke:none;stroke-width:1px;marker:none;enable-background:accumulate"
       d="m 945.84977,275.84294 c 0,-39.81524 20.10389,-71.85149 83.65373,-75.58427 63.5501,-3.73264 247.6345,2.19206 275.4824,15.25644 27.8476,13.06444 39.2152,38.86136 38.5263,65.03667 -1.2069,45.85425 -71.3443,59.99105 -134.8942,58.12473 -63.5499,-1.86639 -160.7802,3.71544 -195.0543,-5.61629 -34.27416,-9.33174 -64.85773,-25.48949 -67.71393,-57.21728 z"
       id="path3986-3"
       inkscape:connector-curvature="0"
       sodipodi:nodetypes="csssssc" />
    <path
       style="color:#000000;display:inline;overflow:visible;visibility:visible;fill:#f2f8d1;fill-opacity:1;fill-rule:nonzero;stroke:none;stroke-width:1px;marker:none;enable-background:accumulate"
       d="m 342.48588,1621.9246 c -24.71539,-4.34 -56.25161,-49.209 -63.74568,-64.4565 21.77418,-3.9427 21.23419,-17.1203 21.23419,-17.1203 -38.47422,6.4938 -77.16203,-67.2008 -63.8235,-69.2482 -13.09993,-13.8953 16.36709,-35.0555 30.02872,-18.9354 -22.55891,11.5802 15.28181,86.958 62.14107,71.318 -1.7791,23.9892 -18.56612,39.2657 -27.6804,41.3802 25.14929,49.2632 32.09083,49.9965 41.8456,57.0622 z"
       id="path5162"
       inkscape:connector-curvature="0"
       sodipodi:nodetypes="cccccccc" />
    <path
       style="color:#000000;display:inline;overflow:visible;visibility:visible;fill:#f2f8d1;fill-opacity:1;fill-rule:nonzero;stroke:none;stroke-width:1px;marker:none;enable-background:accumulate"
       d="m 189.75428,1347.4012 c -6.33,16.9399 -42.03214,18.3604 -55.17508,14.9171 26.49313,18.9504 25.56951,30.7247 -10.40069,32.5528 60.32267,34.1537 11.02779,28.9854 1.30473,37.6457 47.36446,11.7701 26.1731,26.4182 17.7406,41.0003 54.44074,0.5009 36.62477,23.8753 38.91934,42.4916 4.61526,-8.7356 26.54109,-35.3305 27.86036,-5.7189 0.0996,-5.5972 35.90485,-51.9945 89.14367,-6.8674 -1.28619,-23.2371 16.9286,-28.0152 34.22454,4.0883 -5.78023,-34.7505 55.57053,-24.6947 88.0664,-13.7898 -16.42039,-21.0517 9.52938,-29.5356 37.14171,-25.343 -3.87156,-11.5426 5.45152,-19.4767 26.50613,-24.1884 -27.97825,-6.9725 -33.13455,-14.1644 18.8148,-21.904 -39.53041,-0.7487 -76.39278,-2.2825 -30.015,-28.6769 -14.55001,-0.6387 -49.07139,21.3855 -32.97617,-43.0689 -25.01953,20.6342 -51.71307,32.0228 -85.18925,-11.2004 -15.84264,21.5934 -43.32131,32.2786 -55.27589,5.3069 -4.29672,11.4985 -22.1132,15.8229 -37.23808,16.3474 -5.84882,-4.5675 -11.88119,-10.7713 -18.17626,-18.8993 -10.28872,17.0666 -25.67957,28.5926 -55.27586,5.3069 z"
       id="path3549-3-7"
       inkscape:connector-curvature="0"
       sodipodi:nodetypes="cccccccccccccccccccc" />
    <path
       style="color:#000000;display:inline;overflow:visible;visibility:visible;fill:#f2f8d1;fill-opacity:1;fill-rule:nonzero;stroke:none;stroke-width:1px;marker:none;enable-background:accumulate"
       d="m 1234.7515,1447.0481 c 4.1064,18.9755 5.8021,41.3586 4.3648,45.455 -1.4372,4.0964 -24.1183,16.5382 -23.4659,22.8435 0.6524,6.3052 12.9649,15.7466 12.3589,19.7007 -0.606,3.954 -15.6638,15.9454 -14.8094,20.9326 0.8544,4.9873 15.7897,27.2412 15.0414,30.3641 -0.7485,3.1228 -4.6926,20.055 -2.189,37.166 9.0042,-32.3444 15.7135,-35.6328 15.0611,-41.9381 -0.6524,-6.3053 -11.8721,-19.3562 -10.7197,-25.1152 1.1524,-5.7588 15.3791,-17.6078 14.2398,-24.2575 -1.1392,-6.6496 -9.3553,-14.6538 -9.3553,-14.6538 6.163,-1.4836 36.9542,-14.0313 37.0766,-48.2765 0.1225,-34.2453 -37.6033,-22.2208 -37.6033,-22.2208 z"
       id="path5050"
       inkscape:connector-curvature="0" />
    <path
       style="color:#000000;display:inline;overflow:visible;visibility:visible;fill:#f2f8d1;fill-opacity:1;fill-rule:nonzero;stroke:none;stroke-width:1px;marker:none;enable-background:accumulate"
       d="m 1110.8619,1408.8128 c -2.8803,-12.2911 23.0213,-57.291 137.8658,-56.2704 114.8447,1.0206 141.1378,46.7521 141.5469,63.3583 0.4089,16.6062 -25.5814,44.0371 -42.0903,49.2439 -16.5089,5.2068 -59.6863,17.9289 -88.0305,16.4031 -28.3439,-1.5259 -68.8923,3.4798 -114.747,-22.6966 -43.7119,-24.9531 -32.4043,-46.8478 -34.5449,-50.0383 z"
       id="path3365"
       inkscape:connector-curvature="0"
       sodipodi:nodetypes="csssssc" />
    <path
       style="color:#000000;display:inline;overflow:visible;visibility:visible;fill:#f2f8d1;fill-opacity:1;fill-rule:nonzero;stroke:none;stroke-width:1px;marker:none;enable-background:accumulate"
       d="m 1723.0691,1550.3042 c 15.3606,19.2518 60.2656,73.1702 65.434,77.6601 1.8965,-8.2767 4.989,-15.1202 7.3064,-20.5109 8.9582,9.2002 54.0807,57.9722 59.1424,72.3724 2.5777,-35.13 -41.7512,-99.9428 -57.4572,-113.8236 -4.2796,6.4425 -10.0578,15.4303 -12.3938,18.7567 -8.145,-6.5245 -31.3014,-39.6925 -31.3014,-39.6925 z"
       id="path5066"
       inkscape:connector-curvature="0"
       sodipodi:nodetypes="cccccccc" />
    <path
       style="fill:#f2f8d1;fill-opacity:1;fill-rule:evenodd;stroke:none;stroke-width:1px;stroke-linecap:butt;stroke-linejoin:miter;stroke-opacity:1"
       d="m 1409.9983,1421.3456 c 59.8112,3.8361 149.865,26.5551 101.51,-31.2006 93.8573,40.9211 131.2858,48.488 283.9593,-15.7664 -12.6873,89.5274 82.7234,28.8586 154.1218,8.4015 -40.512,58.7304 46.9385,47.39 103.9452,49.0824 -120.5921,65.1616 -57.2678,85.8851 -9.7503,110.4278 -183.6549,-41.2482 -111.6279,10.9143 -104.0061,39.4385 -101.6665,-47.1386 -175.6021,-35.9511 -234.0132,7.8878 -30.5497,-23.8408 -40.1391,-73.1155 -152.7588,2.6292 41.4132,-65.3894 -12.8701,-58.526 -100.7556,-26.2923 13.7737,-22.2724 95.6363,-56.141 -42.2523,-52.5849 86.1277,-21.1734 104.1892,-49.8554 0,-92.023 z"
       id="path4584"
       inkscape:connector-curvature="0"
       sodipodi:nodetypes="cccccccccccc" />
    <path
       style="fill:#f2f8d1;fill-opacity:1;fill-rule:evenodd;stroke:none;stroke-width:1px;stroke-linecap:butt;stroke-linejoin:miter;stroke-opacity:1"
       d="m 2038.8197,2046.8696 c -24.5725,6.3078 -93.1186,55.3755 -55.7788,12.2048 l -34.9368,12.0598 c -67.7191,-26.1763 -289.2723,-10.1902 -363.3808,4.2504 l -20.3295,-25.9615 4.055,21.7942 -23.5701,-32.2793 13.2093,43.4689 -12.4414,-14.7573 5.2252,16.2945 -12.0849,-7.9231 2.044,13.9472 c -28.0974,12.9504 -44.0728,38.4864 -50.402,64.8322 l -22.6909,-2.3873 21.0784,10.3016 c -0.2682,1.5999 -0.5099,3.1989 -0.7093,4.7934 -0.014,0.109 -0.026,0.2213 -0.038,0.3306 l -23.8501,-3.7633 22.9013,14.0303 c -0.05,0.7495 -0.1,1.4976 -0.1427,2.2539 l -45.632,-8.7869 45.2462,23.8783 c -0.012,26.8196 3.273,54.3422 4.9729,66.3727 1.1788,8.3415 2.4456,14.2872 9.3317,27.6954 l -42.5004,40.5018 56.3185,-22.097 c 1.196,0.4929 2.4173,0.9852 3.6438,1.4783 l -14.5495,13.774 25.3289,-9.5936 c 2.592,0.9699 5.2405,1.9349 7.9402,2.8944 l -26.2303,30.8562 39.1251,-26.461 c 94.1744,30.7976 295.4943,61.4542 435.9374,-13.0566 l 50.1068,16.0626 -37.3254,-23.1773 c 2.742,-1.6018 5.4669,-3.2384 8.1697,-4.9179 l 9.1544,0.6769 -6.0652,-5.1396 c 0.5792,-0.8498 1.1573,-1.701 1.7319,-2.5602 l 31.1886,11.3039 -23.4399,-23.4197 c 14.7734,-17.3177 18.5727,-36.9661 16.7469,-56.8656 l 28.285,-11.9734 c -48.8919,6.1951 -31.429,-7.4368 -0.6868,-14.4466 l -27.6158,0.9696 c 2.675,-16.1097 -7.2088,-45.6573 -20.1541,-61.0783 l 1.2911,-11.6932 c -22.66,1.1203 -8.0684,-8.9403 -0.2585,-17.701 -24.8821,7.8826 -21.8306,4.5715 -12.0403,-10.754 -41.9052,4.3669 22.4326,-36.0966 33.8217,-46.2322 z"
       id="path4212"
       inkscape:connector-curvature="0"
       sodipodi:nodetypes="ccccccccccccccccccccccscccccccccccccccccccccccccccc" />
    <path
       style="color:#000000;display:inline;overflow:visible;visibility:visible;fill:#f2f8d1;fill-opacity:1;fill-rule:nonzero;stroke:none;stroke-width:1px;marker:none;enable-background:accumulate"
       d="m 367.79744,2698.9679 c 36.39441,-19.0572 48.4084,-27.6376 48.29889,-70.8322 -0.10955,-43.1945 17.16485,-44.5253 17.16485,-44.5253 l 17.11255,23.0097 c 0,0 -6.67004,92.7921 -82.57629,92.3478 z"
       id="path3072-0"
       inkscape:connector-curvature="0"
       inkscape:transform-center-x="-94.0856"
       inkscape:transform-center-y="-90.317826" />
    <path
       style="color:#000000;display:inline;overflow:visible;visibility:visible;fill:#f2f8d1;fill-opacity:1;fill-rule:nonzero;stroke:none;stroke-width:1px;marker:none;enable-background:accumulate"
       d="m 247.16308,2570.0648 c -29.71815,-35.5036 -23.14904,-123.9793 177.04365,-123.3553 173.62462,0.5412 205.27057,32.7216 210.57086,44.4275 5.30042,11.7058 47.98794,77.1389 -85.34401,104.7487 -133.3321,27.6098 -255.94519,17.2012 -302.2705,-25.8209 z"
       id="path3525"
       inkscape:connector-curvature="0"
       sodipodi:nodetypes="cscsc" />
    <path
       style="color:#000000;display:inline;overflow:visible;visibility:visible;fill:#f2f8d1;fill-opacity:1;fill-rule:nonzero;stroke:none;stroke-width:1px;marker:none;enable-background:accumulate"
       d="m 657.44703,2691.9394 c 41.26377,0.4885 55.8622,-1.7171 74.19559,-46.4321 18.33332,-44.7151 34.62678,-36.5079 34.62678,-36.5079 l 5.75891,33.2804 c 0,0 -45.6706,92.2277 -114.58128,49.6596 z"
       id="path3072"
       inkscape:connector-curvature="0" />
    <path
       style="color:#000000;display:inline;overflow:visible;visibility:visible;fill:#f2f8d1;fill-opacity:1;fill-rule:nonzero;stroke:none;stroke-width:1px;marker:none;enable-background:accumulate"
       d="m 602.8976,2601.6372 c -6.57038,-29.8177 10.95058,-109.0209 145.64353,-102.4982 134.69285,6.5224 156.59423,43.7946 159.87936,54.9763 3.28524,11.1816 31.75688,74.5442 -73.36926,91.3167 -105.12624,16.7724 -199.30168,-0.9319 -232.15363,-43.7948 z"
       id="path3525-9"
       inkscape:connector-curvature="0" />
    <path
       style="color:#000000;display:inline;overflow:visible;visibility:visible;fill:#f2f8d1;fill-opacity:1;fill-rule:nonzero;stroke:none;stroke-width:1px;marker:none;enable-background:accumulate"
       d="m 1715.8244,2731.9556 c -48.806,-21.3553 -64.7562,-31.8209 -61.5722,-96.2896 3.1844,-64.4687 -20.5229,-63.0947 -20.5229,-63.0947 l -25.1934,37.6594 c 0,0 2.674,137.151 107.2885,121.7249 z"
       id="path3072-6"
       inkscape:connector-curvature="0" />
    <path
       style="color:#000000;display:inline;overflow:visible;visibility:visible;fill:#f2f8d1;fill-opacity:1;fill-rule:nonzero;stroke:none;stroke-width:1px;marker:none;enable-background:accumulate"
       d="m 1391.253,2647.6059 c -6.5704,-25.0264 10.9506,-91.5026 145.6435,-86.028 134.6929,5.4743 156.5943,36.7573 159.8794,46.1423 3.2852,9.3848 31.7569,62.5658 -73.3693,76.6431 -105.1262,14.0773 -199.3017,-0.7821 -232.1536,-36.7574 z"
       id="path3525-9-3"
       inkscape:connector-curvature="0" />
    <path
       style="color:#000000;display:inline;overflow:visible;visibility:visible;fill:#f2f8d1;fill-opacity:1;fill-rule:nonzero;stroke:none;stroke-width:1px;marker:none;enable-background:accumulate"
       d="m 2094.8166,2651.8782 c -35.5068,5.8296 -49.1181,5.0708 -84.7214,-45.6289 -35.6032,-50.6998 -46.087,-38.8932 -46.087,-38.8932 l 9.7006,40.2037 c 0,0 80.236,103.5719 121.1078,44.3184 z"
       id="path3072-6-2"
       inkscape:connector-curvature="0" />
    <path
       style="color:#000000;display:inline;overflow:visible;visibility:visible;fill:#f2f8d1;fill-opacity:1;fill-rule:nonzero;stroke:none;stroke-width:1px;marker:none;enable-background:accumulate"
       d="m 1658.3708,2607.7929 c -8.8822,-29.7459 14.8034,-108.7581 196.8867,-102.2512 182.0833,6.5067 211.6905,43.6891 216.1315,54.8438 4.441,11.1547 42.9302,74.3646 -99.1836,91.0967 -142.1139,16.7319 -269.4241,-0.9297 -313.8346,-43.6893 z"
       id="path3525-9-3-6"
       inkscape:connector-curvature="0" />
  </g>
  <g
     inkscape:groupmode="layer"
     id="layer1"
     inkscape:label="txt">
    <g
       inkscape:groupmode="layer"
       id="layer5"
       inkscape:label="frame01">
      <text
         xml:space="preserve"
         style="font-style:normal;font-variant:normal;font-weight:normal;font-stretch:normal;font-size:12px;line-height:125%;font-family:Lavi;-inkscape-font-specification:Lavi;text-align:center;letter-spacing:0px;word-spacing:0px;text-anchor:middle;fill:#b17d62;fill-opacity:1;stroke:none"
         x="568.03223"
         y="235.33878"
         id="text4246"
         sodipodi:linespacing="125%"><tspan
           sodipodi:role="line"
           style="font-size:45px;fill:#b17d62;fill-opacity:1"
           x="568.03223"
           y="235.33878"
           id="tspan4252">Kaneel, zeer goed.</tspan></text>
      <text
         xml:space="preserve"
         style="font-style:normal;font-variant:normal;font-weight:normal;font-stretch:normal;font-size:12px;line-height:125%;font-family:Lavi;-inkscape-font-specification:Lavi;text-align:center;letter-spacing:0px;word-spacing:0px;text-anchor:middle;fill:#b17d62;fill-opacity:1;stroke:none"
         x="1150.2001"
         y="283.71255"
         id="text4246-6"
         sodipodi:linespacing="125%"><tspan
           sodipodi:role="line"
           style="font-size:45px;fill:#b17d62;fill-opacity:1"
           x="1150.2001"
           y="283.71255"
           id="tspan4252-7">Kamille, goed.</tspan></text>
    </g>
    <g
       inkscape:groupmode="layer"
       id="layer6"
       inkscape:label="frame02"
       style="display:inline">
      <text
         xml:space="preserve"
         style="font-style:normal;font-variant:normal;font-weight:normal;font-stretch:normal;font-size:14.82606888px;line-height:125%;font-family:Lavi;-inkscape-font-specification:Lavi;text-align:center;letter-spacing:0px;word-spacing:0px;text-anchor:middle;fill:#b17d62;fill-opacity:1;stroke:#b17d62;stroke-width:1.10773635;stroke-opacity:1"
         x="315.90826"
         y="1382.0905"
         id="text4246-6-5"
         sodipodi:linespacing="125%"
         transform="scale(0.95778249,1.0440784)"><tspan
           sodipodi:role="line"
           style="font-size:55.59775925px;fill:#b17d62;fill-opacity:1;stroke:#b17d62;stroke-width:1.10773635;stroke-opacity:1"
           x="315.90826"
           y="1382.0905"
           id="tspan4252-7-3">Pepper?!</tspan></text>
    </g>
    <g
       inkscape:groupmode="layer"
       id="layer7"
       inkscape:label="frame03"
       style="display:inline">
      <text
         xml:space="preserve"
         style="font-style:normal;font-variant:normal;font-weight:normal;font-stretch:normal;font-size:12px;line-height:125%;font-family:Lavi;-inkscape-font-specification:Lavi;text-align:center;letter-spacing:0px;word-spacing:0px;text-anchor:middle;fill:#b17d62;fill-opacity:1;stroke:none"
         x="1256.9282"
         y="1430.671"
         id="text4246-6-2"
         sodipodi:linespacing="125%"><tspan
           sodipodi:role="line"
           style="font-size:45px;fill:#b17d62;fill-opacity:1"
           x="1256.9282"
           y="1430.671"
           id="tspan4278">Maar ik ...</tspan></text>
    </g>
    <g
       inkscape:groupmode="layer"
       id="layer8"
       inkscape:label="frame04">
      <text
         xml:space="preserve"
         style="font-style:normal;font-variant:normal;font-weight:normal;font-stretch:normal;font-size:15.28652954px;line-height:125%;font-family:Lavi;-inkscape-font-specification:Lavi;text-align:center;letter-spacing:0px;word-spacing:0px;text-anchor:middle;display:inline;fill:#b17d62;fill-opacity:1;stroke:#b17d62;stroke-opacity:1"
         x="1835.033"
         y="1348.8864"
         id="text4246-6-2-1"
         sodipodi:linespacing="125%"
         transform="scale(0.94299065,1.0604559)"><tspan
           sodipodi:role="line"
           style="font-size:57.32448959px;fill:#b17d62;fill-opacity:1;stroke:#b17d62;stroke-opacity:1"
           x="1835.033"
           y="1348.8864"
           id="tspan4278-2" /><tspan
           sodipodi:role="line"
           style="font-size:57.32448959px;fill:#b17d62;fill-opacity:1;stroke:#b17d62;stroke-opacity:1"
           x="1835.033"
           y="1420.542"
           id="tspan4327"><tspan
   style="font-style:italic"
   id="tspan4946">Alweer</tspan> verprutst!!!</tspan></text>
      <text
         xml:space="preserve"
         style="font-style:normal;font-variant:normal;font-weight:normal;font-stretch:normal;font-size:12px;line-height:125%;font-family:Lavi;-inkscape-font-specification:Lavi;text-align:center;letter-spacing:0px;word-spacing:0px;text-anchor:middle;display:inline;fill:#b17d62;fill-opacity:1;stroke:none"
         x="1768.8324"
         y="2142.8274"
         id="text4246-6-2-7"
         sodipodi:linespacing="125%"><tspan
           sodipodi:role="line"
           style="font-size:45px;fill:#b17d62;fill-opacity:1"
           x="1768.8324"
           y="2142.8274"
           id="tspan4959">Ik herinner je eraan</tspan><tspan
           sodipodi:role="line"
           style="font-size:45px;fill:#b17d62;fill-opacity:1"
           x="1768.8324"
           y="2199.0774"
           id="tspan4963">dat Hippiah geen magie</tspan><tspan
           sodipodi:role="line"
           style="font-size:45px;fill:#b17d62;fill-opacity:1"
           x="1768.8324"
           y="2255.3274"
           id="tspan4965">is om onkruidverdelgers</tspan><tspan
           sodipodi:role="line"
           style="font-size:45px;fill:#b17d62;fill-opacity:1"
           x="1768.8324"
           y="2311.5774"
           id="tspan4967">te maken! ...</tspan></text>
    </g>
    <g
       inkscape:groupmode="layer"
       id="layer9"
       inkscape:label="frame05">
      <text
         xml:space="preserve"
         style="font-style:normal;font-variant:normal;font-weight:normal;font-stretch:normal;font-size:13.33242512px;line-height:125%;font-family:Lavi;-inkscape-font-specification:Lavi;text-align:center;letter-spacing:0px;word-spacing:0px;text-anchor:middle;fill:#b17d62;fill-opacity:1;stroke:#b17d62;stroke-width:4.39599991;stroke-miterlimit:4;stroke-dasharray:none;stroke-opacity:1"
         x="812.90161"
         y="2453.823"
         id="text4246-6-5-6"
         sodipodi:linespacing="125%"
         transform="matrix(0.96240981,0,-0.13855859,1.0390584,0,0)"><tspan
           sodipodi:role="line"
           style="font-size:49.99659729px;fill:#b17d62;fill-opacity:1;stroke:#b17d62;stroke-width:4.39599991;stroke-miterlimit:4;stroke-dasharray:none;stroke-opacity:1"
           x="812.90161"
           y="2453.823"
           id="tspan4252-7-3-1">HA HAHA HA!</tspan></text>
      <text
         xml:space="preserve"
         style="font-style:normal;font-variant:normal;font-weight:normal;font-stretch:normal;font-size:13.33242512px;line-height:125%;font-family:Lavi;-inkscape-font-specification:Lavi;text-align:center;letter-spacing:0px;word-spacing:0px;text-anchor:middle;fill:#b17d62;fill-opacity:1;stroke:#b17d62;stroke-width:4.39599991;stroke-miterlimit:4;stroke-dasharray:none;stroke-opacity:1"
         x="1147.7004"
         y="2494.9968"
         id="text4246-6-5-6-8"
         sodipodi:linespacing="125%"
         transform="matrix(0.96240981,0,-0.13855859,1.0390584,0,0)"><tspan
           sodipodi:role="line"
           style="font-size:49.99659729px;fill:#b17d62;fill-opacity:1;stroke:#b17d62;stroke-width:4.39599991;stroke-miterlimit:4;stroke-dasharray:none;stroke-opacity:1"
           x="1147.7004"
           y="2494.9968"
           id="tspan4252-7-3-1-7">HA HA!</tspan></text>
      <text
         xml:space="preserve"
         style="font-style:normal;font-variant:normal;font-weight:normal;font-stretch:normal;font-size:13.33242512px;line-height:125%;font-family:Lavi;-inkscape-font-specification:Lavi;text-align:center;letter-spacing:0px;word-spacing:0px;text-anchor:middle;fill:#b17d62;fill-opacity:1;stroke:#b17d62;stroke-width:4.39599991;stroke-miterlimit:4;stroke-dasharray:none;stroke-opacity:1"
         x="1973.8583"
         y="2544.5718"
         id="text4246-6-5-6-8-9"
         sodipodi:linespacing="125%"
         transform="matrix(0.96240981,0,-0.13855859,1.0390584,0,0)"><tspan
           sodipodi:role="line"
           style="font-size:49.99659729px;fill:#b17d62;fill-opacity:1;stroke:#b17d62;stroke-width:4.39599991;stroke-miterlimit:4;stroke-dasharray:none;stroke-opacity:1"
           x="1973.8583"
           y="2544.5718"
           id="tspan4252-7-3-1-7-2">HA HA!</tspan></text>
      <text
         xml:space="preserve"
         style="font-style:normal;font-variant:normal;font-weight:normal;font-stretch:normal;font-size:13.33242512px;line-height:125%;font-family:Lavi;-inkscape-font-specification:Lavi;text-align:center;letter-spacing:0px;word-spacing:0px;text-anchor:middle;fill:#b17d62;fill-opacity:1;stroke:#b17d62;stroke-width:4.39599991;stroke-miterlimit:4;stroke-dasharray:none;stroke-opacity:1"
         x="2305.4133"
         y="2500.9087"
         id="text4246-6-5-6-0"
         sodipodi:linespacing="125%"
         transform="matrix(0.96240981,0,-0.13855859,1.0390584,0,0)"><tspan
           sodipodi:role="line"
           style="font-size:49.99659729px;fill:#b17d62;fill-opacity:1;stroke:#b17d62;stroke-width:4.39599991;stroke-miterlimit:4;stroke-dasharray:none;stroke-opacity:1"
           x="2305.4133"
           y="2500.9087"
           id="tspan4252-7-3-1-2">HA HAHA HA!</tspan></text>
    </g>
  </g>
</svg>
