<?xml version="1.0" encoding="UTF-8" standalone="no"?>
<!-- Created with Inkscape (http://www.inkscape.org/) -->

<svg
   xmlns:dc="http://purl.org/dc/elements/1.1/"
   xmlns:cc="http://creativecommons.org/ns#"
   xmlns:rdf="http://www.w3.org/1999/02/22-rdf-syntax-ns#"
   xmlns:svg="http://www.w3.org/2000/svg"
   xmlns="http://www.w3.org/2000/svg"
   xmlns:xlink="http://www.w3.org/1999/xlink"
   xmlns:sodipodi="http://sodipodi.sourceforge.net/DTD/sodipodi-0.dtd"
   xmlns:inkscape="http://www.inkscape.org/namespaces/inkscape"
   id="svg2"
   version="1.1"
   inkscape:version="0.91 r13725"
   width="2481"
   height="3503"
   sodipodi:docname="Pepper-and-Carrot_by-David-Revoy_E18P02.svg">
  <metadata
     id="metadata8">
    <rdf:RDF>
      <cc:Work
         rdf:about="">
        <dc:format>image/svg+xml</dc:format>
        <dc:type
           rdf:resource="http://purl.org/dc/dcmitype/StillImage" />
        <dc:title />
      </cc:Work>
    </rdf:RDF>
  </metadata>
  <defs
     id="defs6">
    <filter
       inkscape:collect="always"
       style="color-interpolation-filters:sRGB"
       id="filter5236-4-16"
       x="-0.0089085409"
       width="1.0178171"
       y="-0.027928527"
       height="1.0558571">
      <feGaussianBlur
         inkscape:collect="always"
         stdDeviation="0.49168068"
         id="feGaussianBlur5238-0-4" />
    </filter>
    <filter
       inkscape:collect="always"
       style="color-interpolation-filters:sRGB"
       id="filter5236-4-16-6"
       x="-0.0089085409"
       width="1.0178171"
       y="-0.027928527"
       height="1.0558571">
      <feGaussianBlur
         inkscape:collect="always"
         stdDeviation="0.49168068"
         id="feGaussianBlur5238-0-4-0" />
    </filter>
    <filter
       inkscape:collect="always"
       style="color-interpolation-filters:sRGB"
       id="filter4721"
       x="-0.036504517"
       width="1.073009"
       y="-0.072016557"
       height="1.1440331">
      <feGaussianBlur
         inkscape:collect="always"
         stdDeviation="3.3941014"
         id="feGaussianBlur4723" />
    </filter>
    <filter
       inkscape:collect="always"
       style="color-interpolation-filters:sRGB"
       id="filter5139"
       x="-0.031537319"
       width="1.0630746"
       y="-0.062851251"
       height="1.1257025">
      <feGaussianBlur
         inkscape:collect="always"
         stdDeviation="3.2141302"
         id="feGaussianBlur5141" />
    </filter>
  </defs>
  <sodipodi:namedview
     pagecolor="#ffffff"
     bordercolor="#666666"
     borderopacity="1"
     objecttolerance="10"
     gridtolerance="10"
     guidetolerance="10"
     inkscape:pageopacity="0"
     inkscape:pageshadow="2"
     inkscape:window-width="1440"
     inkscape:window-height="851"
     id="namedview4"
     showgrid="false"
     inkscape:zoom="0.37067864"
     inkscape:cx="1384.4726"
     inkscape:cy="666.78968"
     inkscape:window-x="0"
     inkscape:window-y="1"
     inkscape:window-maximized="1"
     inkscape:current-layer="layer8"
     showguides="false" />
  <g
     inkscape:groupmode="layer"
     id="layer2"
     inkscape:label="artwork"
     sodipodi:insensitive="true">
    <image
       sodipodi:absref="/Users/almeida/GitHub/peppercarrot_ep18_translation/pt/../gfx_Pepper-and-Carrot_by-David-Revoy_E18P02.png"
       xlink:href="../gfx_Pepper-and-Carrot_by-David-Revoy_E18P02.png"
       y="0"
       x="0"
       id="image10"
       height="3503"
       width="2481" />
  </g>
  <g
     inkscape:groupmode="layer"
     id="layer4"
     inkscape:label="translatornotes"
     style="display:inline"
     sodipodi:insensitive="true">
    <path
       style="color:#000000;clip-rule:nonzero;display:inline;overflow:visible;visibility:visible;opacity:0.481;isolation:auto;mix-blend-mode:normal;color-interpolation:sRGB;color-interpolation-filters:linearRGB;solid-color:#000000;solid-opacity:1;fill:#ffe680;fill-opacity:1;fill-rule:nonzero;stroke:#565656;stroke-width:1.20000005;stroke-linecap:butt;stroke-linejoin:miter;stroke-miterlimit:4;stroke-dasharray:none;stroke-dashoffset:0;stroke-opacity:1;marker:none;color-rendering:auto;image-rendering:auto;shape-rendering:auto;text-rendering:auto;enable-background:accumulate"
       d="m -254.0871,1045.073 0,189.0352 203.830078,0 0,-90.9805 10,0 0,15.6308 30.982422,-26.9824 -30.982422,-26.9804 0,16.6171 -10,0 0,-76.3398 -203.830078,0 z"
       id="rect4191"
       inkscape:connector-curvature="0" />
    <flowRoot
       xml:space="preserve"
       id="flowRoot4212"
       style="font-style:normal;font-variant:normal;font-weight:normal;font-stretch:normal;font-size:25.3241539px;line-height:125%;font-family:Lavi;-inkscape-font-specification:'Lavi, Normal';text-align:center;letter-spacing:0px;word-spacing:0px;writing-mode:lr-tb;text-anchor:middle;display:inline;opacity:0.481;fill:#000000;fill-opacity:1;stroke:none;stroke-width:1px;stroke-linecap:butt;stroke-linejoin:miter;stroke-opacity:1"
       transform="translate(-27.255434,58.270239)"><flowRegion
         id="flowRegion4214"><rect
           id="rect4216"
           width="291.95547"
           height="247.52747"
           x="-275.14545"
           y="1061.6674" /></flowRegion><flowPara
         id="flowPara4218">Wood panel</flowPara></flowRoot>    <path
       style="color:#000000;clip-rule:nonzero;display:inline;overflow:visible;visibility:visible;opacity:0.481;isolation:auto;mix-blend-mode:normal;color-interpolation:sRGB;color-interpolation-filters:linearRGB;solid-color:#000000;solid-opacity:1;fill:#ffe680;fill-opacity:1;fill-rule:nonzero;stroke:#565656;stroke-width:1.20000005;stroke-linecap:butt;stroke-linejoin:miter;stroke-miterlimit:4;stroke-dasharray:none;stroke-dashoffset:0;stroke-opacity:1;marker:none;color-rendering:auto;image-rendering:auto;shape-rendering:auto;text-rendering:auto;enable-background:accumulate"
       d="m -260.06305,1853.4825 0,189.0352 203.83008,0 0,-90.9805 10,0 0,15.6308 30.982419,-26.9824 -30.982419,-26.9804 0,16.6171 -10,0 0,-76.3398 -203.83008,0 z"
       id="rect4191-6"
       inkscape:connector-curvature="0" />
    <flowRoot
       xml:space="preserve"
       id="flowRoot4212-7"
       style="font-style:normal;font-variant:normal;font-weight:normal;font-stretch:normal;font-size:25.3241539px;line-height:125%;font-family:Lavi;-inkscape-font-specification:'Lavi, Normal';text-align:center;letter-spacing:0px;word-spacing:0px;writing-mode:lr-tb;text-anchor:middle;display:inline;opacity:0.481;fill:#000000;fill-opacity:1;stroke:none;stroke-width:1px;stroke-linecap:butt;stroke-linejoin:miter;stroke-opacity:1"
       transform="translate(-33.231381,866.67969)"><flowRegion
         id="flowRegion4214-5"><rect
           id="rect4216-3"
           width="291.95547"
           height="247.52747"
           x="-275.14545"
           y="1061.6674" /></flowRegion><flowPara
         id="flowPara4218-5">Door</flowPara></flowRoot>  </g>
  <g
     inkscape:groupmode="layer"
     id="layer3"
     inkscape:label="speechbubbles"
     style="display:inline">
    <g
       id="g3565">
      <path
         sodipodi:nodetypes="ccccccccccccccccccccc"
         inkscape:connector-curvature="0"
         id="path4280"
         d="m 281.65222,2380.8014 c -12.79221,-9.9328 -36.45627,-10.9446 -38.6865,-31.8447 -6.584,-15.0244 -23.47601,-6.6169 -34.30901,-13.1115 -18.75008,-6.2324 -24.85837,-36.801 -10.7997,-50.7933 7.44128,-7.6475 20.72276,-22.7969 8.92296,-33.567 -12.00984,-9.7582 -31.45556,-9.1097 -37.43518,-27.1588 -5.02352,-17.1368 -2.93268,-37.1075 8.29051,-49.7456 5.67354,-9.0765 16.4149,-14.317 19.43766,-25.0681 -1.64028,-15 -18.72903,-16.9981 -25.53166,-28.0845 -11.00312,-17.8301 -0.55851,-41.5816 13.32769,-51.6982 9.51361,-12.0923 22.9919,4.1481 11.45421,13.2329 -9.13488,6.8604 -19.19461,26.1604 -6.26289,35.5946 10.72621,5.5472 24.63373,12.2653 24.22028,28.1897 2.02982,17.2111 -14.41179,20.9024 -19.85407,33.6955 -6.8729,10.7833 -19.68063,23.5055 -10.73702,38.2555 11.02747,13.525 26.80905,12.7962 35.96675,30.298 11.13961,19.7073 -4.03047,33.7654 -14.12467,47.3263 -9.09475,11.2061 1.95909,35.1919 15.54055,33.557 13.99018,0.973 27.45866,4.8505 31.22754,21.713 4.24152,16.3245 16.01991,8.8078 42.23146,37.0488 z"
         style="color:#000000;clip-rule:nonzero;display:inline;overflow:visible;visibility:visible;opacity:1;isolation:auto;mix-blend-mode:normal;color-interpolation:sRGB;color-interpolation-filters:linearRGB;solid-color:#000000;solid-opacity:1;fill:#f2f8d1;fill-opacity:1;fill-rule:nonzero;stroke:none;stroke-width:2.80699992;stroke-linecap:round;stroke-linejoin:round;stroke-miterlimit:4;stroke-dasharray:none;stroke-dashoffset:0;stroke-opacity:1;marker:none;color-rendering:auto;image-rendering:auto;shape-rendering:auto;text-rendering:auto;enable-background:accumulate" />
      <path
         style="color:#000000;clip-rule:nonzero;display:inline;overflow:visible;visibility:visible;opacity:1;isolation:auto;mix-blend-mode:normal;color-interpolation:sRGB;color-interpolation-filters:linearRGB;solid-color:#000000;solid-opacity:1;fill:#f2f8d1;fill-opacity:1;fill-rule:nonzero;stroke:none;stroke-width:2.80699992;stroke-linecap:round;stroke-linejoin:round;stroke-miterlimit:4;stroke-dasharray:none;stroke-dashoffset:0;stroke-opacity:1;marker:none;color-rendering:auto;image-rendering:auto;shape-rendering:auto;text-rendering:auto;enable-background:accumulate"
         d="m 161.14224,2105.0906 c -3.31434,8.1243 3.31743,15.4578 8.54173,20.8887 2.43252,2.4221 7.63214,7.7916 0.78451,5.5925 -8.49405,-2.9276 -11.65902,-12.9212 -12.1552,-21.0924 -0.15618,-2.3543 -0.22285,-5.3476 2.82896,-5.3888 z"
         id="path4299"
         inkscape:connector-curvature="0" />
      <path
         style="color:#000000;clip-rule:nonzero;display:inline;overflow:visible;visibility:visible;opacity:1;isolation:auto;mix-blend-mode:normal;color-interpolation:sRGB;color-interpolation-filters:linearRGB;solid-color:#000000;solid-opacity:1;fill:#f2f8d1;fill-opacity:1;fill-rule:nonzero;stroke:none;stroke-width:2.80699992;stroke-linecap:round;stroke-linejoin:round;stroke-miterlimit:4;stroke-dasharray:none;stroke-dashoffset:0;stroke-opacity:1;marker:none;color-rendering:auto;image-rendering:auto;shape-rendering:auto;text-rendering:auto;enable-background:accumulate"
         d="m 221.11219,2138.5561 c 2.92628,6.0599 1.57208,13.115 0.82661,19.4129 -2.29699,4.8582 -5.14957,10.3365 -10.27127,12.6047 -6.00238,-3.2774 6.23155,-7.7786 4.88489,-12.7469 3.07654,-5.8337 2.34749,-13.0483 3.27261,-18.9404 0.42905,-0.1101 0.85811,-0.2202 1.28716,-0.3303 z"
         id="path4301"
         inkscape:connector-curvature="0" />
      <path
         style="color:#000000;clip-rule:nonzero;display:inline;overflow:visible;visibility:visible;opacity:1;isolation:auto;mix-blend-mode:normal;color-interpolation:sRGB;color-interpolation-filters:linearRGB;solid-color:#000000;solid-opacity:1;fill:#f2f8d1;fill-opacity:1;fill-rule:nonzero;stroke:none;stroke-width:2.80699992;stroke-linecap:round;stroke-linejoin:round;stroke-miterlimit:4;stroke-dasharray:none;stroke-dashoffset:0;stroke-opacity:1;marker:none;color-rendering:auto;image-rendering:auto;shape-rendering:auto;text-rendering:auto;enable-background:accumulate"
         d="m 161.65188,2199.8206 c -2.85322,9.4161 -0.0246,19.1671 1.19539,28.5988 -7.2032,0.1383 -5.80478,-10.409 -6.39823,-15.5204 0.21774,-4.252 -0.63076,-13.4572 4.51487,-13.6703 l 0.68797,0.5919 0,0 z"
         id="path4303"
         inkscape:connector-curvature="0" />
      <path
         style="color:#000000;clip-rule:nonzero;display:inline;overflow:visible;visibility:visible;opacity:1;isolation:auto;mix-blend-mode:normal;color-interpolation:sRGB;color-interpolation-filters:linearRGB;solid-color:#000000;solid-opacity:1;fill:#f2f8d1;fill-opacity:1;fill-rule:nonzero;stroke:none;stroke-width:2.80699992;stroke-linecap:round;stroke-linejoin:round;stroke-miterlimit:4;stroke-dasharray:none;stroke-dashoffset:0;stroke-opacity:1;marker:none;color-rendering:auto;image-rendering:auto;shape-rendering:auto;text-rendering:auto;enable-background:accumulate"
         d="m 209.00207,2228.1249 c 5.9223,2.2125 10.96833,7.2581 13.37951,13.083 -0.89988,6.6422 -6.47628,-5.8584 -10.41538,-7.3534 -1.45662,-1.5499 -3.22137,-3.4163 -2.96413,-5.7296 z"
         id="path4305"
         inkscape:connector-curvature="0" />
      <path
         style="color:#000000;clip-rule:nonzero;display:inline;overflow:visible;visibility:visible;opacity:1;isolation:auto;mix-blend-mode:normal;color-interpolation:sRGB;color-interpolation-filters:linearRGB;solid-color:#000000;solid-opacity:1;fill:#f2f8d1;fill-opacity:1;fill-rule:nonzero;stroke:none;stroke-width:2.80699992;stroke-linecap:round;stroke-linejoin:round;stroke-miterlimit:4;stroke-dasharray:none;stroke-dashoffset:0;stroke-opacity:1;marker:none;color-rendering:auto;image-rendering:auto;shape-rendering:auto;text-rendering:auto;enable-background:accumulate"
         d="m 207.43812,2179.3554 c 0.79002,-3.435 4.70504,-1.4865 4.89268,-5.094 5.05876,-0.3677 1.82584,2.6102 -0.18764,3.6075 -2.14006,2.3365 -3.28697,2.6242 -4.70504,1.4865 z"
         id="path4307"
         inkscape:connector-curvature="0"
         sodipodi:nodetypes="cccc" />
      <path
         style="color:#000000;clip-rule:nonzero;display:inline;overflow:visible;visibility:visible;opacity:1;isolation:auto;mix-blend-mode:normal;color-interpolation:sRGB;color-interpolation-filters:linearRGB;solid-color:#000000;solid-opacity:1;fill:#f2f8d1;fill-opacity:1;fill-rule:nonzero;stroke:none;stroke-width:2.80699992;stroke-linecap:round;stroke-linejoin:round;stroke-miterlimit:4;stroke-dasharray:none;stroke-dashoffset:0;stroke-opacity:1;marker:none;color-rendering:auto;image-rendering:auto;shape-rendering:auto;text-rendering:auto;enable-background:accumulate"
         d="m 204.44723,2087.7318 c -2.63376,3.6445 0.1902,-1.477 -6.25597,5.8858 -1.69914,2.6706 -2.05256,8.1846 -5.19305,6.158 0.18118,-6.0914 1.80244,-8.9511 6.44534,-12.5367 3.44077,-2.1044 5.89847,-3.3115 5.00368,0.4929 z"
         id="path4309"
         inkscape:connector-curvature="0"
         sodipodi:nodetypes="ccccc" />
      <path
         style="color:#000000;clip-rule:nonzero;display:inline;overflow:visible;visibility:visible;opacity:1;isolation:auto;mix-blend-mode:normal;color-interpolation:sRGB;color-interpolation-filters:linearRGB;solid-color:#000000;solid-opacity:1;fill:#f2f8d1;fill-opacity:1;fill-rule:nonzero;stroke:none;stroke-width:2.80699992;stroke-linecap:round;stroke-linejoin:round;stroke-miterlimit:4;stroke-dasharray:none;stroke-dashoffset:0;stroke-opacity:1;marker:none;color-rendering:auto;image-rendering:auto;shape-rendering:auto;text-rendering:auto;enable-background:accumulate"
         d="m 189.91344,2324.7513 c 2.36909,10.1388 13.07899,14.0949 21.15879,18.7882 2.07679,2.1152 -6.92715,0.6235 -8.99543,-0.4795 -6.98915,-2.6055 -14.1667,-9.0766 -13.11968,-17.2052 0.31877,-0.3678 0.63755,-0.7357 0.95632,-1.1035 z"
         id="path4311"
         inkscape:connector-curvature="0" />
      <path
         style="color:#000000;clip-rule:nonzero;display:inline;overflow:visible;visibility:visible;opacity:1;isolation:auto;mix-blend-mode:normal;color-interpolation:sRGB;color-interpolation-filters:linearRGB;solid-color:#000000;solid-opacity:1;fill:#f2f8d1;fill-opacity:1;fill-rule:nonzero;stroke:none;stroke-width:2.80699992;stroke-linecap:round;stroke-linejoin:round;stroke-miterlimit:4;stroke-dasharray:none;stroke-dashoffset:0;stroke-opacity:1;marker:none;color-rendering:auto;image-rendering:auto;shape-rendering:auto;text-rendering:auto;enable-background:accumulate"
         d="m 239.58523,2326.3652 c 3.98566,-1.6946 10.6073,4.9469 8.2897,7.3922 -1.65164,-4.1345 -9.37638,-2.6095 -8.2897,-7.3922 z"
         id="path4313"
         inkscape:connector-curvature="0" />
      <path
         style="color:#000000;clip-rule:nonzero;display:inline;overflow:visible;visibility:visible;opacity:1;isolation:auto;mix-blend-mode:normal;color-interpolation:sRGB;color-interpolation-filters:linearRGB;solid-color:#000000;solid-opacity:1;fill:#f2f8d1;fill-opacity:1;fill-rule:nonzero;stroke:none;stroke-width:2.80699992;stroke-linecap:round;stroke-linejoin:round;stroke-miterlimit:4;stroke-dasharray:none;stroke-dashoffset:0;stroke-opacity:1;marker:none;color-rendering:auto;image-rendering:auto;shape-rendering:auto;text-rendering:auto;enable-background:accumulate"
         d="m 183.98312,2299.348 c -0.97729,-5.684 2.63307,-11.2556 6.42122,-15.2122 5.2669,-1.5205 -1.51455,5.7675 -1.48737,8.2413 -1.13821,2.4218 -1.71318,6.5368 -4.93385,6.9709 z"
         id="path4315"
         inkscape:connector-curvature="0" />
      <path
         style="color:#000000;clip-rule:nonzero;display:inline;overflow:visible;visibility:visible;opacity:1;isolation:auto;mix-blend-mode:normal;color-interpolation:sRGB;color-interpolation-filters:linearRGB;solid-color:#000000;solid-opacity:1;fill:#f2f8d1;fill-opacity:1;fill-rule:nonzero;stroke:none;stroke-width:2.80699992;stroke-linecap:round;stroke-linejoin:round;stroke-miterlimit:4;stroke-dasharray:none;stroke-dashoffset:0;stroke-opacity:1;marker:none;color-rendering:auto;image-rendering:auto;shape-rendering:auto;text-rendering:auto;enable-background:accumulate"
         d="m 181.10117,2288.2387 c 0.11358,-3.1464 6.28341,-10.2217 7.65687,-8.4665 -2.87801,1.788 -2.88492,13.652 -7.65687,8.4665 z"
         id="path4317"
         inkscape:connector-curvature="0" />
    </g>
    <g
       id="g3594">
      <path
         style="color:#000000;clip-rule:nonzero;display:inline;overflow:visible;visibility:visible;opacity:1;isolation:auto;mix-blend-mode:normal;color-interpolation:sRGB;color-interpolation-filters:linearRGB;solid-color:#000000;solid-opacity:1;fill:#f2f8d1;fill-opacity:1;fill-rule:nonzero;stroke:none;stroke-width:2.80699992;stroke-linecap:round;stroke-linejoin:round;stroke-miterlimit:4;stroke-dasharray:none;stroke-dashoffset:0;stroke-opacity:1;marker:none;color-rendering:auto;image-rendering:auto;shape-rendering:auto;text-rendering:auto;enable-background:accumulate"
         d="m 145.14047,2071.2995 c 4.08161,4.9401 11.60713,4.1762 16.5311,7.7803 -3.10347,5.0016 -10.38159,0.1103 -14.68618,-1.6504 -2.28775,-1.0628 -4.47029,-4.0703 -1.84492,-6.1299 z"
         id="path4295"
         inkscape:connector-curvature="0" />
      <path
         style="color:#000000;clip-rule:nonzero;display:inline;overflow:visible;visibility:visible;opacity:1;isolation:auto;mix-blend-mode:normal;color-interpolation:sRGB;color-interpolation-filters:linearRGB;solid-color:#000000;solid-opacity:1;fill:#f2f8d1;fill-opacity:1;fill-rule:nonzero;stroke:none;stroke-width:2.80699992;stroke-linecap:round;stroke-linejoin:round;stroke-miterlimit:4;stroke-dasharray:none;stroke-dashoffset:0;stroke-opacity:1;marker:none;color-rendering:auto;image-rendering:auto;shape-rendering:auto;text-rendering:auto;enable-background:accumulate"
         d="m 130.1769,2045.2203 c -3.44247,-6.5544 -5.23471,-14.54 -3.40008,-21.8287 2.33663,-5.4269 4.69088,-2.4729 3.53716,1.9875 0.0885,6.3871 1.08331,12.7099 1.63021,19.0634 -0.5891,0.2593 -1.17819,0.5185 -1.76729,0.7778 z"
         id="path4297"
         inkscape:connector-curvature="0" />
      <path
         style="color:#000000;display:inline;overflow:visible;visibility:visible;fill:#f2f8d1;fill-opacity:1;fill-rule:nonzero;stroke:none;stroke-width:1px;marker:none;enable-background:accumulate"
         d="m 142.22749,2046.6384 c -3.29095,-8.0337 -1.56675,-17.5309 -1.25328,-19.2576 0.3135,-1.7268 1.87436,-8.1441 1.87436,-8.1441 l -2.84703,-1.7585 3.7157,-5.2065 -3.16053,-0.032 c 0,0 9.12273,-8.8285 11.21236,-11.6186 2.08973,-2.7901 6.04055,-9.2917 6.04055,-9.2917 0,0 14.64691,-0.016 17.96419,-0.8473 3.31726,-0.8317 14.6014,-10.6656 14.6014,-10.6656 0,0 10.07567,7.7232 14.15692,9.2236 4.08116,1.5005 23.49493,5.7493 27.35422,4.1121 3.85931,-1.6372 7.87535,-4.1378 7.87535,-4.1378 0,0 9.01791,0.4688 11.56463,-0.4788 2.54681,-0.9476 7.33331,-3.3323 7.33331,-3.3323 0,0 7.16341,1.9638 10.32394,1.9954 3.16053,0.032 17.33719,2.6062 18.87831,2.8379 1.54103,0.2317 10.9963,9.192 10.9963,9.192 l 5.60255,8.3812 c 0,0 5.8574,0.437 8.71112,-0.021 2.85361,-0.4579 4.38149,4.2064 4.38149,4.2064 0,0 5.62159,27.8968 6.22226,33.3086 0.60056,5.412 -0.50981,15.8883 -0.50981,15.8883 0,0 -5.72707,7.565 -8.66564,10.671 -2.93857,3.106 -10.97724,10.3235 -14.99327,12.824 -4.01604,2.5006 -9.11614,6.6121 -12.80554,2.9532 -3.6894,-3.6589 -8.00568,-3.8642 -9.93866,-1.9375 -1.93298,1.9267 -15.8488,15.3563 -19.38802,13.0504 -3.53922,-2.306 -16.16818,-6.8652 -19.31555,-11.3296 -3.14737,-4.4644 -10.9575,3.6745 -13.18413,0.6789 -2.22665,-2.9955 -5.21727,-8.3233 -7.91424,-8.7287 -2.69687,-0.4054 -37.01888,5.5219 -40.5581,3.2159 -3.53922,-2.306 -21.37228,-19.6212 -23.3704,-21.6954 -1.99819,-2.0743 -5.89629,-13.3035 -5.89629,-13.3035 z"
         id="path5263"
         inkscape:connector-curvature="0" />
      <path
         sodipodi:nodetypes="cccccccccc"
         style="color:#000000;font-style:normal;font-variant:normal;font-weight:normal;font-stretch:normal;font-size:medium;line-height:normal;font-family:Sans;-inkscape-font-specification:Sans;text-indent:0;text-align:start;text-decoration:none;text-decoration-line:none;letter-spacing:normal;word-spacing:normal;text-transform:none;direction:ltr;block-progression:tb;writing-mode:lr-tb;baseline-shift:baseline;text-anchor:start;display:inline;overflow:visible;visibility:visible;fill:#f2f8d1;fill-opacity:1;fill-rule:nonzero;stroke:none;stroke-width:1px;marker:none;enable-background:accumulate"
         d="m 166.0662,1979.4687 c -0.0541,0 -0.10658,0.01 -0.15978,0.011 l -9.97812,0.055 c -0.57134,0 -1.1361,0.2424 -1.57481,0.6822 l -16.01015,16.0788 c -2.26365,2.2753 0.59515,5.8154 2.8588,3.5402 l 15.29551,-15.4441 9.65104,-2.5015 c 2.81949,-0.021 2.71403,-2.19 -0.0824,-2.4222 z"
         id="path5271"
         inkscape:connector-curvature="0" />
      <path
         sodipodi:nodetypes="cccccccccccc"
         style="color:#000000;font-style:normal;font-variant:normal;font-weight:normal;font-stretch:normal;font-size:medium;line-height:normal;font-family:Sans;-inkscape-font-specification:Sans;text-indent:0;text-align:start;text-decoration:none;text-decoration-line:none;letter-spacing:normal;word-spacing:normal;text-transform:none;direction:ltr;block-progression:tb;writing-mode:lr-tb;baseline-shift:baseline;text-anchor:start;display:inline;overflow:visible;visibility:visible;fill:#f2f8d1;fill-opacity:1;fill-rule:nonzero;stroke:none;stroke-width:1px;marker:none;enable-background:accumulate"
         d="m 184.75973,1961.814 c -0.64711,-0.044 -1.29809,0.2333 -1.7779,0.7578 l -9.78157,10.4408 -10.13463,-7.2494 c -0.68444,-0.4951 -1.59087,-0.4942 -2.33475,0 l -16.85625,11.3566 c -2.82097,1.6676 -0.564,6.1308 2.08908,4.1314 l 15.63724,-10.5503 10.46553,7.5113 c 0.84572,0.5931 1.99013,0.4273 2.75378,-0.3991 l 10.57979,-13.5887 c 1.43372,-1.4886 1.24614,-2.2841 -0.64032,-2.4129 z"
         id="path5273"
         inkscape:connector-curvature="0" />
      <path
         sodipodi:nodetypes="cccccccccccc"
         style="color:#000000;font-style:normal;font-variant:normal;font-weight:normal;font-stretch:normal;font-size:medium;line-height:normal;font-family:Sans;-inkscape-font-specification:Sans;text-indent:0;text-align:start;text-decoration:none;text-decoration-line:none;letter-spacing:normal;word-spacing:normal;text-transform:none;direction:ltr;block-progression:tb;writing-mode:lr-tb;baseline-shift:baseline;text-anchor:start;display:inline;overflow:visible;visibility:visible;fill:#f2f8d1;fill-opacity:1;fill-rule:nonzero;stroke:none;stroke-width:1px;marker:none;enable-background:accumulate"
         d="m 199.78562,1966.7944 c -0.34749,-0.037 -0.70362,0.018 -1.03881,0.1619 l -11.12788,4.4773 c -3.08015,0.9851 -1.70264,6.0145 1.25199,4.571 l 9.59007,-3.8249 4.96537,7.9216 c 0.25717,0.4149 0.63289,0.719 1.07258,0.8681 l 3.35597,-1.0571 c 2.89544,1.2038 3.48136,-2.2282 0.42839,-2.9335 l -1.60819,-0.5245 -5.45466,-8.702 c -0.32737,-0.5315 -0.84541,-0.8773 -1.43483,-0.9579 z"
         id="path5275"
         inkscape:connector-curvature="0" />
      <path
         sodipodi:nodetypes="cccccccccc"
         style="color:#000000;font-style:normal;font-variant:normal;font-weight:normal;font-stretch:normal;font-size:medium;line-height:normal;font-family:Sans;-inkscape-font-specification:Sans;text-indent:0;text-align:start;text-decoration:none;text-decoration-line:none;letter-spacing:normal;word-spacing:normal;text-transform:none;direction:ltr;block-progression:tb;writing-mode:lr-tb;baseline-shift:baseline;text-anchor:start;display:inline;overflow:visible;visibility:visible;fill:#f2f8d1;fill-opacity:1;fill-rule:nonzero;stroke:none;stroke-width:1px;marker:none;enable-background:accumulate"
         d="m 198.53724,1958.9014 c -2.51554,-0.1142 -3.43633,3.8083 -1.1139,4.7456 l 13.35671,6.3554 5.02829,10.4184 c 0.765,3.0838 2.74385,2.0249 1.97884,-1.059 l -2.99332,-12.0078 c -0.16092,-0.6693 -0.58044,-1.2092 -1.15062,-1.4808 l -14.26496,-6.7392 c -0.2595,-0.1408 -0.54555,-0.2199 -0.841,-0.2328 z"
         id="path5277"
         inkscape:connector-curvature="0" />
      <path
         sodipodi:nodetypes="cccccc"
         style="color:#000000;font-style:normal;font-variant:normal;font-weight:normal;font-stretch:normal;font-size:medium;line-height:normal;font-family:Sans;-inkscape-font-specification:Sans;text-indent:0;text-align:start;text-decoration:none;text-decoration-line:none;letter-spacing:normal;word-spacing:normal;text-transform:none;direction:ltr;block-progression:tb;writing-mode:lr-tb;baseline-shift:baseline;text-anchor:start;display:inline;overflow:visible;visibility:visible;fill:#f2f8d1;fill-opacity:1;fill-rule:nonzero;stroke:none;stroke-width:1px;marker:none;enable-background:accumulate"
         d="m 274.60878,1976.8759 c -0.27178,-0.014 -0.54686,0.029 -0.81133,0.1254 l -4.77272,1.6154 c -3.2416,0.7063 -2.59073,3.9668 0.49146,2.5339 l 5.29336,0.527 c 2.47932,-0.7315 2.31352,-4.6967 -0.20077,-4.8017 z"
         id="path5279"
         inkscape:connector-curvature="0" />
      <path
         sodipodi:nodetypes="sscccccs"
         style="color:#000000;font-style:normal;font-variant:normal;font-weight:normal;font-stretch:normal;font-size:medium;line-height:normal;font-family:Sans;-inkscape-font-specification:Sans;text-indent:0;text-align:start;text-decoration:none;text-decoration-line:none;letter-spacing:normal;word-spacing:normal;text-transform:none;direction:ltr;block-progression:tb;writing-mode:lr-tb;baseline-shift:baseline;text-anchor:start;display:inline;overflow:visible;visibility:visible;fill:#f2f8d1;fill-opacity:1;fill-rule:nonzero;stroke:none;stroke-width:1px;marker:none;enable-background:accumulate"
         d="m 283.9904,1979.0638 c -2.88642,-0.4339 -4.13704,5.2543 -1.23401,5.5578 l 16.59712,1.7353 8.19922,9.2857 c 1.75792,2.4797 4.29071,0.1088 2.5323,-2.3706 l -7.69104,-10.8054 c -0.32413,-0.4582 -0.79807,-0.7561 -1.33073,-0.8363 z"
         id="path5281"
         inkscape:connector-curvature="0" />
      <path
         sodipodi:nodetypes="cccccccccc"
         style="color:#000000;font-style:normal;font-variant:normal;font-weight:normal;font-stretch:normal;font-size:medium;line-height:normal;font-family:Sans;-inkscape-font-specification:Sans;text-indent:0;text-align:start;text-decoration:none;text-decoration-line:none;letter-spacing:normal;word-spacing:normal;text-transform:none;direction:ltr;block-progression:tb;writing-mode:lr-tb;baseline-shift:baseline;text-anchor:start;display:inline;overflow:visible;visibility:visible;fill:#f2f8d1;fill-opacity:1;fill-rule:nonzero;stroke:none;stroke-width:1px;marker:none;enable-background:accumulate"
         d="m 297.13415,1970.2594 c -2.89911,-0.3656 -3.68769,4.5007 -0.78837,4.8651 l 9.76365,1.8212 5.28525,5.4751 c 1.52357,2.717 3.77035,0.7187 2.18154,-1.9492 l -4.21188,-7.2073 c -0.3081,-0.5242 -0.79962,-0.8777 -1.36715,-0.9831 l -10.64785,-1.9894 c -0.0717,-0.011 -0.14337,-0.022 -0.215,-0.032 z"
         id="path5283"
         inkscape:connector-curvature="0" />
      <path
         sodipodi:nodetypes="cccccccccc"
         style="color:#000000;font-style:normal;font-variant:normal;font-weight:normal;font-stretch:normal;font-size:medium;line-height:normal;font-family:Sans;-inkscape-font-specification:Sans;text-indent:0;text-align:start;text-decoration:none;text-decoration-line:none;letter-spacing:normal;word-spacing:normal;text-transform:none;direction:ltr;block-progression:tb;writing-mode:lr-tb;baseline-shift:baseline;text-anchor:start;display:inline;overflow:visible;visibility:visible;fill:#f2f8d1;fill-opacity:1;fill-rule:nonzero;stroke:none;stroke-width:1px;marker:none;enable-background:accumulate"
         d="m 323.96677,2002.8165 c -2.64756,-0.295 -2.94041,2.0209 -0.41706,2.8478 l 14.02807,6.9743 -0.32929,13.629 c -0.0671,3.2652 4.35724,3.0467 4.42432,-0.2185 l 0.35906,-15.3565 c 0.0207,-1.0351 -0.55024,-1.9282 -1.42495,-2.2288 l -16.21612,-5.5481 c -0.13689,-0.049 -0.27894,-0.082 -0.42369,-0.099 z"
         id="path5285"
         inkscape:connector-curvature="0" />
      <path
         sodipodi:nodetypes="ccccccccc"
         style="color:#000000;font-style:normal;font-variant:normal;font-weight:normal;font-stretch:normal;font-size:medium;line-height:normal;font-family:Sans;-inkscape-font-specification:Sans;text-indent:0;text-align:start;text-decoration:none;text-decoration-line:none;letter-spacing:normal;word-spacing:normal;text-transform:none;direction:ltr;block-progression:tb;writing-mode:lr-tb;baseline-shift:baseline;text-anchor:start;display:inline;overflow:visible;visibility:visible;fill:#f2f8d1;fill-opacity:1;fill-rule:nonzero;stroke:none;stroke-width:1px;marker:none;enable-background:accumulate"
         d="m 323.17238,2009.6248 c -2.27525,-0.3703 -3.65925,2.9494 -1.84405,4.4237 l 3.15019,2.6296 1.18174,26.1563 c 0.14602,3.2502 2.8149,2.854 2.66889,-0.3962 l 0.47958,-27.3713 c -0.0371,-0.6732 -0.32681,-1.2801 -0.79984,-1.6754 l -3.84872,-3.3001 c -0.28265,-0.2484 -0.62245,-0.409 -0.98779,-0.4666 z"
         id="path5287"
         inkscape:connector-curvature="0" />
      <path
         sodipodi:nodetypes="ccccccccc"
         style="color:#000000;font-style:normal;font-variant:normal;font-weight:normal;font-stretch:normal;font-size:medium;line-height:normal;font-family:Sans;-inkscape-font-specification:Sans;text-indent:0;text-align:start;text-decoration:none;text-decoration-line:none;letter-spacing:normal;word-spacing:normal;text-transform:none;direction:ltr;block-progression:tb;writing-mode:lr-tb;baseline-shift:baseline;text-anchor:start;display:inline;overflow:visible;visibility:visible;fill:#f2f8d1;fill-opacity:1;fill-rule:nonzero;stroke:none;stroke-width:1px;marker:none;enable-background:accumulate"
         d="m 328.52334,2059.3822 c -0.95061,-0.097 -1.88968,0.5056 -2.32069,1.4891 l -4.95347,10.7777 -4.91323,5.5176 c -2.33506,2.3944 -0.52045,4.3446 1.62005,1.7368 l 6.58339,-4.1795 c 0.17733,-0.1995 0.32542,-0.4281 0.43825,-0.6764 l 5.12676,-11.2113 c 0.72585,-1.5289 -0.0822,-3.2941 -1.58106,-3.454 z"
         id="path5289"
         inkscape:connector-curvature="0" />
      <path
         sodipodi:nodetypes="ccccccccc"
         style="color:#000000;font-style:normal;font-variant:normal;font-weight:normal;font-stretch:normal;font-size:medium;line-height:normal;font-family:Sans;-inkscape-font-specification:Sans;text-indent:0;text-align:start;text-decoration:none;text-decoration-line:none;letter-spacing:normal;word-spacing:normal;text-transform:none;direction:ltr;block-progression:tb;writing-mode:lr-tb;baseline-shift:baseline;text-anchor:start;display:inline;overflow:visible;visibility:visible;fill:#f2f8d1;fill-opacity:1;fill-rule:nonzero;stroke:none;stroke-width:1px;marker:none;enable-background:accumulate"
         d="m 334.18743,2057.5474 c -1.04537,-0.02 -2.00843,0.7811 -2.30347,1.9158 l -2.89399,10.3805 -4.80458,8.2201 c -1.75188,2.8452 0.0964,4.5097 1.72227,1.5797 l 6.9158,-7.633 c 0.12144,-0.2073 0.21473,-0.4315 0.27851,-0.665 l 2.98722,-10.72 c 0.46505,-1.5363 -0.47093,-3.0512 -1.90176,-3.0781 z"
         id="path5291"
         inkscape:connector-curvature="0" />
      <path
         sodipodi:nodetypes="ccccccccc"
         style="color:#000000;font-style:normal;font-variant:normal;font-weight:normal;font-stretch:normal;font-size:medium;line-height:normal;font-family:Sans;-inkscape-font-specification:Sans;text-indent:0;text-align:start;text-decoration:none;text-decoration-line:none;letter-spacing:normal;word-spacing:normal;text-transform:none;direction:ltr;block-progression:tb;writing-mode:lr-tb;baseline-shift:baseline;text-anchor:start;display:inline;overflow:visible;visibility:visible;fill:#f2f8d1;fill-opacity:1;fill-rule:nonzero;stroke:none;stroke-width:1px;marker:none;enable-background:accumulate"
         d="m 301.22481,2088.4675 c -0.34749,-0.038 -0.70364,0.018 -1.03884,0.162 l -7.77565,3.2139 -7.34716,-0.3623 c -3.08944,-0.3932 -3.64266,4.9331 -0.50602,4.8723 l 7.84473,0.4016 c 0.30478,0.022 0.61471,-0.028 0.90975,-0.146 l 8.89048,-4.4533 c 2.29904,-0.8783 1.38432,-3.4855 -0.97729,-3.6882 z"
         id="path5293"
         inkscape:connector-curvature="0" />
      <path
         sodipodi:nodetypes="cccccccccccc"
         style="color:#000000;font-style:normal;font-variant:normal;font-weight:normal;font-stretch:normal;font-size:medium;line-height:normal;font-family:Sans;-inkscape-font-specification:Sans;text-indent:0;text-align:start;text-decoration:none;text-decoration-line:none;letter-spacing:normal;word-spacing:normal;text-transform:none;direction:ltr;block-progression:tb;writing-mode:lr-tb;baseline-shift:baseline;text-anchor:start;display:inline;overflow:visible;visibility:visible;fill:#f2f8d1;fill-opacity:1;fill-rule:nonzero;stroke:none;stroke-width:1px;marker:none;enable-background:accumulate"
         d="m 269.98181,2096.8838 c -0.56841,-0.029 -1.13972,0.1895 -1.59317,0.6088 l -8.19991,7.4624 -11.83026,-3.1217 -9.08105,-6.4495 c -2.06615,-2.172 -2.96474,0.6919 -0.89859,2.864 l 7.22736,7.6254 c 0.25917,0.2766 0.58202,0.471 0.93831,0.5652 l 13.45105,3.5772 c 0.68367,0.1797 1.42609,-0.024 1.99231,-0.5488 l 8.37216,-9.3391 c 1.60578,-1.4444 1.61377,-3.1525 -0.37821,-3.2439 z"
         id="path5295"
         inkscape:connector-curvature="0" />
      <path
         sodipodi:nodetypes="cccccccccccc"
         style="color:#000000;font-style:normal;font-variant:normal;font-weight:normal;font-stretch:normal;font-size:medium;line-height:normal;font-family:Sans;-inkscape-font-specification:Sans;text-indent:0;text-align:start;text-decoration:none;text-decoration-line:none;letter-spacing:normal;word-spacing:normal;text-transform:none;direction:ltr;block-progression:tb;writing-mode:lr-tb;baseline-shift:baseline;text-anchor:start;display:inline;overflow:visible;visibility:visible;fill:#f2f8d1;fill-opacity:1;fill-rule:nonzero;stroke:none;stroke-width:1px;marker:none;enable-background:accumulate"
         d="m 210.0245,2083.6292 c -1.99325,-0.082 -3.20968,2.5977 -1.8925,4.1691 l 9.82468,12.2571 c 0.34416,0.444 0.83375,0.7192 1.37398,0.7721 l 5.44242,0.4293 c 0.58703,0.05 1.18328,-0.1664 1.65448,-0.5996 l 2.87713,-2.6424 c 2.34521,-2.1452 0.60112,-4.3731 -1.74407,-2.2281 l -3.08616,0.5123 -3.66709,-0.3039 -9.28607,-11.5753 c -0.36943,-0.4828 -0.90865,-0.7675 -1.4968,-0.7906 z"
         id="path5297"
         inkscape:connector-curvature="0" />
      <path
         style="color:#000000;font-style:normal;font-variant:normal;font-weight:normal;font-stretch:normal;font-size:medium;line-height:normal;font-family:Sans;-inkscape-font-specification:Sans;text-indent:0;text-align:start;text-decoration:none;text-decoration-line:none;letter-spacing:normal;word-spacing:normal;text-transform:none;direction:ltr;block-progression:tb;writing-mode:lr-tb;baseline-shift:baseline;text-anchor:start;display:inline;overflow:visible;visibility:visible;fill:#f2f8d1;fill-opacity:1;fill-rule:nonzero;stroke:none;stroke-width:1px;marker:none;enable-background:accumulate"
         d="m 144.55278,2054.8775 a 2.1815516,2.4661957 16.62698 0 0 -2.07672,4.1413 l 2.79729,3.5309 a 2.1824087,2.4671645 16.62698 1 0 3.38928,-3.3785 l -2.79729,-3.5308 a 2.1815516,2.4661957 16.62698 0 0 -1.31256,-0.7629 z"
         id="path5301"
         inkscape:connector-curvature="0" />
    </g>
    <path
       style="color:#000000;clip-rule:nonzero;display:inline;overflow:visible;visibility:visible;opacity:1;isolation:auto;mix-blend-mode:normal;color-interpolation:sRGB;color-interpolation-filters:linearRGB;solid-color:#000000;solid-opacity:1;fill:#f2f8d1;fill-opacity:1;fill-rule:nonzero;stroke:#f2f8d1;stroke-width:0;stroke-linecap:round;stroke-linejoin:round;stroke-miterlimit:4;stroke-dasharray:none;stroke-dashoffset:0;stroke-opacity:1;marker:none;color-rendering:auto;image-rendering:auto;shape-rendering:auto;text-rendering:auto;enable-background:accumulate"
       d="m 329.85402,2805.3972 c -0.55374,-0.1058 -1.04076,-0.02 -1.50999,0.06 -2.5372,0.6455 -5.22867,1.2018 -7.1398,2.5746 2.71637,5.9713 6.22873,11.8899 9.56039,17.813 1.1439,2.7527 4.13677,5.5023 7.50555,6.6508 1.38742,0.5757 2.80793,0.1944 2.77673,-0.9436 1.3883,-1.6095 1.7137,-3.9564 0.83766,-6.3945 -3.24188,-6.6749 -7.37264,-13.2922 -12.03054,-19.7604 z m -20.26682,15.6926 c -0.13387,0.058 -0.25039,0.132 -0.3731,0.2007 -0.42628,-0.2882 -0.86509,-0.5734 -1.28469,-0.8647 -0.33749,0.025 -0.5266,0.2372 -0.73517,0.4012 -1.54579,1.605 -3.13235,3.2631 -3.7521,5.4402 2.09559,1.7095 4.12792,3.471 6.22603,5.1784 3.71633,2.9724 7.74104,6.1533 12.34771,7.543 1.51243,0.26 3.15637,1.2904 4.55705,1.0724 1.33942,-0.368 0.98902,-1.9864 0.14899,-3.155 -0.9297,-1.3113 -1.83939,-2.6341 -2.70658,-3.9481 -3.2738,-3.973 -7.84912,-7.0249 -12.3753,-10.0339 -0.67715,-0.624 -1.37862,-1.2354 -2.05305,-1.8339 z m 8.65884,25.2619 c -5.44429,-3.1949 -11.54151,-4.8709 -17.26506,-5.9857 -0.25109,0.2908 -0.28402,0.7029 -0.31848,1.0959 0.0282,2.4069 -0.0661,4.8492 0.90586,7.444 1.45071,0.4326 2.90148,0.831 4.35,1.1845 0.0947,0.2591 0.19208,0.5186 0.30706,0.7794 0.78348,-0.038 1.54855,-0.1129 2.30392,-0.2039 0.3896,0.077 0.7804,0.1605 1.16855,0.2289 4.31935,0.8433 8.42858,0.7514 12.06557,-0.01 1.67798,-0.2372 0.48636,-2.5755 -1.22736,-3.0693 -0.74791,-0.5216 -1.51241,-1.0088 -2.29004,-1.4654 z"
       id="path4891"
       inkscape:connector-curvature="0" />
    <path
       style="color:#000000;display:inline;overflow:visible;visibility:visible;fill:#f2f8d1;fill-opacity:1;fill-rule:nonzero;stroke:none;stroke-width:1px;marker:none;filter:url(#filter5139);enable-background:accumulate"
       d="m 122.5651,2729.5696 c 3.5286,-38.9854 41.17237,-67.2887 138.06028,-59.3441 51.89839,4.2553 110.85289,7.2023 106.28646,64.3166 -4.56649,57.1146 -89.3316,55.1155 -106.85136,56.3423 -39.64852,2.0444 -131.72307,4.3561 -137.49538,-61.3148 z"
       id="path4546-6"
       inkscape:connector-curvature="0"
       sodipodi:nodetypes="csscc"
       transform="matrix(1.0577834,0,0,0.89551622,-17.311548,286.21205)" />
    <path
       style="fill:#f2f8d1;fill-opacity:1;stroke:none"
       d="m 2113.8229,2752.3976 c 14.33,57.9847 -22.3574,94.4709 47.817,134.1546 -107.831,-35.326 -56.1664,-102.2768 -93.6599,-98.4722 -13.2287,2.1822 -45.0086,-5.8896 -34.155,-21.6777 26.8081,-3.8262 53.3118,-9.4557 79.9979,-14.0047 z"
       id="path3276"
       inkscape:connector-curvature="0"
       sodipodi:nodetypes="ccccc" />
    <path
       style="color:#000000;display:inline;overflow:visible;visibility:visible;fill:#f2f8d1;fill-opacity:1;fill-rule:nonzero;stroke:none;stroke-width:1px;marker:none;enable-background:accumulate"
       d="m 1856.1792,2749.3178 c -0.063,-39.7099 57.12,-68.539 211.6231,-60.4468 82.7599,4.3344 176.7722,7.336 169.4903,65.5118 -7.2821,58.1758 -142.4532,56.1397 -170.3912,57.3893 -63.2257,2.0824 -211.0013,1.5918 -210.7222,-62.4543 z"
       id="path4546-6-5"
       inkscape:connector-curvature="0"
       sodipodi:nodetypes="csscc" />
  </g>
  <g
     inkscape:groupmode="layer"
     id="layer1"
     inkscape:label="txt">
    <g
       inkscape:groupmode="layer"
       id="layer5"
       inkscape:label="frame01">
      <text
         sodipodi:linespacing="125%"
         id="text4178-6-5-9-0-7-0-4-8"
         style="font-style:normal;font-variant:normal;font-weight:normal;font-stretch:normal;font-size:9.76241112px;line-height:125%;font-family:Lavi;-inkscape-font-specification:Lavi;text-align:center;letter-spacing:0px;word-spacing:0px;text-anchor:middle;display:inline;opacity:0.63300003;fill:#000000;fill-opacity:1;stroke:#552e22;stroke-width:3.56912017;stroke-miterlimit:4;stroke-dasharray:none;stroke-opacity:1;filter:url(#filter5236-4-16-6)"
         xml:space="preserve"
         y="3129.8394"
         x="1318.7137"
         transform="matrix(0.9043445,0.18201027,-0.20486125,0.83222717,-204.56319,-1756.8524)"><tspan
           y="3129.8394"
           x="1320.59"
           style="font-style:normal;font-variant:normal;font-weight:normal;font-stretch:normal;font-size:32.92485428px;font-family:Fondamento;-inkscape-font-specification:Fondamento;letter-spacing:3.7524426px;fill:#000000;fill-opacity:1;stroke:#552e22;stroke-width:3.56912017;stroke-miterlimit:4;stroke-dasharray:none;stroke-opacity:1"
           sodipodi:role="line"
           id="tspan4403">Escola de</tspan><tspan
           y="3170.9954"
           x="1320.59"
           style="font-style:normal;font-variant:normal;font-weight:normal;font-stretch:normal;font-size:32.92485428px;font-family:Fondamento;-inkscape-font-specification:Fondamento;letter-spacing:3.7524426px;fill:#000000;fill-opacity:1;stroke:#552e22;stroke-width:3.56912017;stroke-miterlimit:4;stroke-dasharray:none;stroke-opacity:1"
           sodipodi:role="line"
           id="tspan3409">Bruxaria</tspan><tspan
           y="3212.1516"
           x="1320.59"
           style="font-style:normal;font-variant:normal;font-weight:normal;font-stretch:normal;font-size:32.92485428px;font-family:Fondamento;-inkscape-font-specification:Fondamento;letter-spacing:3.7524426px;fill:#000000;fill-opacity:1;stroke:#552e22;stroke-width:3.56912017;stroke-miterlimit:4;stroke-dasharray:none;stroke-opacity:1"
           sodipodi:role="line"
           id="tspan3643">de Hippiah</tspan></text>
      <use
         x="0"
         y="0"
         xlink:href="#text4178-6-5-9-0-7-0-4"
         id="use4439"
         transform="matrix(0.17332253,0.08530708,0.05098025,0.22975965,948.71284,597.29365)"
         width="100%"
         height="100%"
         style="filter:url(#filter4721)" />
      <text
         xml:space="preserve"
         style="font-style:normal;font-weight:normal;font-size:40px;line-height:125%;font-family:sans-serif;letter-spacing:0px;word-spacing:0px;fill:#000000;fill-opacity:1;stroke:none;stroke-width:1px;stroke-linecap:butt;stroke-linejoin:miter;stroke-opacity:1"
         x="-246.08047"
         y="866.69604"
         id="text3420"
         sodipodi:linespacing="125%"><tspan
           sodipodi:role="line"
           id="tspan3422"
           x="-246.08047"
           y="866.69604" /></text>
    </g>
    <g
       inkscape:groupmode="layer"
       id="layer6"
       inkscape:label="frame02">
      <text
         sodipodi:linespacing="125%"
         id="text4178-6-5-9-0-7-0-4"
         style="font-style:normal;font-variant:normal;font-weight:normal;font-stretch:normal;font-size:9.76241112px;line-height:125%;font-family:Lavi;-inkscape-font-specification:Lavi;text-align:center;letter-spacing:0px;word-spacing:0px;text-anchor:middle;opacity:0.63300003;fill:#b26b42;fill-opacity:1;stroke:#794230;stroke-width:3.56912017;stroke-miterlimit:4;stroke-dasharray:none;stroke-opacity:1;filter:url(#filter5236-4-16)"
         xml:space="preserve"
         y="3129.8394"
         x="1318.7137"
         transform="matrix(0.82759813,-0.04418685,-0.25777964,1.0253367,484.83193,-1216.0063)"><tspan
           y="3129.8394"
           x="1320.59"
           style="font-style:normal;font-variant:normal;font-weight:normal;font-stretch:normal;font-size:38.25247955px;font-family:Fondamento;-inkscape-font-specification:Fondamento;letter-spacing:3.7524426px;fill:#b26b42;fill-opacity:1;stroke:#794230;stroke-width:3.56912017;stroke-miterlimit:4;stroke-dasharray:none;stroke-opacity:1"
           sodipodi:role="line"
           id="tspan4725">MERCADO</tspan></text>
      <text
         xml:space="preserve"
         style="color:#000000;font-style:normal;font-variant:normal;font-weight:normal;font-stretch:normal;font-size:54.99290848px;line-height:125%;font-family:Arial;-inkscape-font-specification:Arial;letter-spacing:0px;word-spacing:0px;display:inline;overflow:visible;visibility:visible;opacity:1;fill:#b27f64;fill-opacity:1;fill-rule:nonzero;stroke:#b17d62;stroke-width:2.80699992;stroke-miterlimit:4;stroke-dasharray:none;stroke-opacity:1;marker:none;enable-background:accumulate"
         x="1047.8595"
         y="1928.0765"
         id="text4190-8"
         sodipodi:linespacing="125%"
         transform="matrix(0.94248685,0.04084103,-0.39405881,1.0439469,0,0)"><tspan
           sodipodi:role="line"
           id="tspan4192-5"
           x="1050.0433"
           y="1928.0765"
           style="font-style:normal;font-variant:normal;font-weight:normal;font-stretch:normal;font-family:Lavi;-inkscape-font-specification:Lavi;text-align:center;letter-spacing:4.36773443px;text-anchor:middle;fill:#b27f64;fill-opacity:1;stroke:#b17d62;stroke-width:2.80699992;stroke-miterlimit:4;stroke-dasharray:none;stroke-opacity:1">Groo</tspan></text>
    </g>
    <g
       inkscape:groupmode="layer"
       id="layer7"
       inkscape:label="frame04">
      <text
         xml:space="preserve"
         style="font-style:normal;font-variant:normal;font-weight:normal;font-stretch:normal;font-size:8.80235195px;line-height:125%;font-family:Lavi;-inkscape-font-specification:Lavi;text-align:center;letter-spacing:0px;word-spacing:0px;text-anchor:middle;opacity:0.519;fill:#b17d62;fill-opacity:1;stroke:none"
         x="241.81339"
         y="2739.2471"
         id="text4246"
         sodipodi:linespacing="125%"
         transform="scale(1.0068894,0.99315774)"><tspan
           sodipodi:role="line"
           style="font-size:33.00881958px;fill:#b17d62;fill-opacity:1"
           x="241.81339"
           y="2739.2471"
           id="tspan4252">Muito bem,</tspan><tspan
           sodipodi:role="line"
           style="font-size:33.00881958px;fill:#b17d62;fill-opacity:1"
           x="241.81339"
           y="2780.5081"
           id="tspan3424">Oregano</tspan></text>
    </g>
    <g
       inkscape:groupmode="layer"
       id="layer8"
       inkscape:label="frame05">
      <text
         xml:space="preserve"
         style="font-style:normal;font-variant:normal;font-weight:normal;font-stretch:normal;font-size:10.49112225px;line-height:125%;font-family:Lavi;-inkscape-font-specification:Lavi;text-align:center;letter-spacing:0px;word-spacing:0px;text-anchor:middle;display:inline;fill:#b17d62;fill-opacity:1;stroke:none"
         x="2097.9534"
         y="2675.6177"
         id="text4246-4"
         sodipodi:linespacing="125%"
         transform="scale(0.97796546,1.022531)"><tspan
           sodipodi:role="line"
           style="font-size:39.34170914px;fill:#b17d62;fill-opacity:1"
           x="2097.9534"
           y="2675.6177"
           id="tspan4252-1">Excelente,</tspan><tspan
           sodipodi:role="line"
           style="font-size:39.34170914px;fill:#b17d62;fill-opacity:1"
           x="2097.9534"
           y="2724.7949"
           id="tspan3426">Cardamom</tspan></text>
    </g>
  </g>
</svg>
