<?xml version="1.0" encoding="UTF-8" standalone="no"?>
<!-- Created with Inkscape (http://www.inkscape.org/) -->

<svg
   xmlns:dc="http://purl.org/dc/elements/1.1/"
   xmlns:cc="http://creativecommons.org/ns#"
   xmlns:rdf="http://www.w3.org/1999/02/22-rdf-syntax-ns#"
   xmlns:svg="http://www.w3.org/2000/svg"
   xmlns="http://www.w3.org/2000/svg"
   xmlns:xlink="http://www.w3.org/1999/xlink"
   xmlns:sodipodi="http://sodipodi.sourceforge.net/DTD/sodipodi-0.dtd"
   xmlns:inkscape="http://www.inkscape.org/namespaces/inkscape"
   id="svg2"
   version="1.1"
   inkscape:version="0.91 r13725"
   width="2481"
   height="3503"
   sodipodi:docname="Pepper-and-Carrot_by-David-Revoy_E18P05.svg">
  <metadata
     id="metadata8">
    <rdf:RDF>
      <cc:Work
         rdf:about="">
        <dc:format>image/svg+xml</dc:format>
        <dc:type
           rdf:resource="http://purl.org/dc/dcmitype/StillImage" />
        <dc:title />
      </cc:Work>
    </rdf:RDF>
  </metadata>
  <defs
     id="defs6">
    <filter
       inkscape:collect="always"
       style="color-interpolation-filters:sRGB"
       id="filter5236-4-16"
       x="-0.0089085409"
       width="1.0178171"
       y="-0.027928527"
       height="1.0558571">
      <feGaussianBlur
         inkscape:collect="always"
         stdDeviation="0.49168068"
         id="feGaussianBlur5238-0-4" />
    </filter>
  </defs>
  <sodipodi:namedview
     pagecolor="#ffffff"
     bordercolor="#666666"
     borderopacity="1"
     objecttolerance="10"
     gridtolerance="10"
     guidetolerance="10"
     inkscape:pageopacity="0"
     inkscape:pageshadow="2"
     inkscape:window-width="1920"
     inkscape:window-height="1042"
     id="namedview4"
     showgrid="false"
     inkscape:zoom="0.46000001"
     inkscape:cx="1482.95"
     inkscape:cy="2156.2296"
     inkscape:window-x="1920"
     inkscape:window-y="23"
     inkscape:window-maximized="1"
     inkscape:current-layer="layer1" />
  <g
     inkscape:groupmode="layer"
     id="layer2"
     inkscape:label="artwork"
     sodipodi:insensitive="true">
    <image
       sodipodi:absref="/home/deevad/peppercarrot/webcomics/New/lang/fr/../gfx_Pepper-and-Carrot_by-David-Revoy_E18P05.png"
       xlink:href="../gfx_Pepper-and-Carrot_by-David-Revoy_E18P05.png"
       width="2481"
       height="3503"
       id="image10"
       x="0"
       y="0" />
  </g>
  <g
     inkscape:groupmode="layer"
     id="layer3"
     inkscape:label="speechbubbles" />
  <g
     inkscape:groupmode="layer"
     id="layer1"
     inkscape:label="txt">
    <path
       style="color:#000000;display:inline;overflow:visible;visibility:visible;fill:#f2f8d1;fill-opacity:1;fill-rule:nonzero;stroke:none;stroke-width:1px;marker:none;enable-background:accumulate"
       d="m 660.67791,1704.4164 c 41.99842,30.1483 90.59447,83.4461 39.12775,129.9107 8.55406,37.8061 11.06337,66.754 -33.16588,101.2009 26.76667,-32.9242 37.25631,-54.8942 20.67853,-110.3649 22.74356,-28.1973 9.35622,-73.4099 -46.45121,-101.4015 -55.80753,-27.9916 -42.17397,-16.3041 -42.17397,-16.3041 l 45.77865,-11.7676 z"
       id="path5074"
       inkscape:connector-curvature="0"
       sodipodi:nodetypes="ccccsccc" />
    <path
       style="color:#000000;display:inline;overflow:visible;visibility:visible;fill:#f2f8d1;fill-opacity:1;fill-rule:nonzero;stroke:none;stroke-width:1px;marker:none;enable-background:accumulate"
       d="m 149.83599,78.54239 c 19.01177,4.15475 28.48905,-0.875416 45.84396,22.38879 17.35489,23.2642 16.32671,43.89449 13.01819,54.12416 24.47845,-4.58916 49.20423,-28.5595 58.71282,-40.47664 9.50869,-11.9172 15.32853,52.83988 15.32853,52.83988 0,0 -56.6292,24.74211 -86.75378,15.31922 C 165.8613,173.31496 176.93708,130.9104 168.21479,113.58928 159.49254,96.268248 137.95906,103.42587 127.35302,90.763858 116.74694,78.101757 92.867066,34.274501 92.867066,34.274501 123.56999,59.569859 126.89438,73.365136 149.83599,78.54239 Z"
       id="path4538"
       inkscape:connector-curvature="0"
       sodipodi:nodetypes="cscscssscc" />
    <path
       style="color:#000000;clip-rule:nonzero;display:inline;overflow:visible;visibility:visible;opacity:1;isolation:auto;mix-blend-mode:normal;color-interpolation:sRGB;color-interpolation-filters:linearRGB;solid-color:#000000;solid-opacity:1;fill:#f2f8d1;fill-opacity:1;fill-rule:evenodd;stroke:none;stroke-width:1px;stroke-linecap:butt;stroke-linejoin:miter;stroke-miterlimit:4;stroke-dasharray:none;stroke-dashoffset:0;stroke-opacity:1;marker:none;color-rendering:auto;image-rendering:auto;shape-rendering:auto;text-rendering:auto;enable-background:accumulate"
       d="m 121.43463,133.8613 c 28.05695,-32.83804 171.60949,-13.94175 224.32071,-15.8077 61.10599,-2.16312 75.37939,22.13888 79.14341,47.42318 1.32435,8.89648 -3.5424,49.00393 -29.51991,56.90787 -25.97745,7.90385 -100.36741,11.85578 -126.34497,11.85578 -25.97743,0 -89.65983,2.25052 -124.55125,-15.4116 -33.43815,-16.92645 -51.105065,-52.12958 -23.04799,-84.96753 z"
       id="path3330-3"
       inkscape:connector-curvature="0"
       sodipodi:nodetypes="zsssssz" />
    <path
       style="color:#000000;clip-rule:nonzero;display:inline;overflow:visible;visibility:visible;opacity:1;isolation:auto;mix-blend-mode:normal;color-interpolation:sRGB;color-interpolation-filters:linearRGB;solid-color:#000000;solid-opacity:1;fill:#f2f8d1;fill-opacity:1;fill-rule:evenodd;stroke:none;stroke-width:1px;stroke-linecap:butt;stroke-linejoin:miter;stroke-miterlimit:4;stroke-dasharray:none;stroke-dashoffset:0;stroke-opacity:1;marker:none;color-rendering:auto;image-rendering:auto;shape-rendering:auto;text-rendering:auto;enable-background:accumulate"
       d="m 224.03484,212.31783 c 39.04705,-52.12843 255.19534,-29.52255 328.39868,-23.66144 82.33999,6.59265 104.90603,35.14417 110.14442,75.2815 1.84317,14.12262 9.44216,73.37245 -38.38139,96.06726 -72.6578,34.47997 -151.8395,23.11739 -187.99263,23.11739 -36.153,0 -136.93773,3.57257 -185.49637,-24.46498 -46.53608,-26.86974 -65.71993,-94.21143 -26.67271,-146.33973 z"
       id="path3330"
       inkscape:connector-curvature="0"
       sodipodi:nodetypes="zsssssz" />
    <text
       xml:space="preserve"
       style="font-style:normal;font-variant:normal;font-weight:normal;font-stretch:normal;font-size:11.60694695px;line-height:125%;font-family:Lavi;-inkscape-font-specification:Lavi;text-align:center;letter-spacing:0px;word-spacing:0px;text-anchor:middle;fill:#b17d62;fill-opacity:1;stroke:#b17d62;stroke-width:0.96724564;stroke-opacity:1"
       x="275.07883"
       y="175.99283"
       id="text4246-7"
       sodipodi:linespacing="125%"
       transform="scale(0.96629729,1.0348782)"><tspan
         sodipodi:role="line"
         style="font-size:43.52605057px;fill:#b17d62;fill-opacity:1;stroke:#b17d62;stroke-width:0.96724564;stroke-opacity:1"
         x="275.07883"
         y="175.99283"
         id="tspan4272">Heum Heum...</tspan></text>
    <flowRoot
       xml:space="preserve"
       id="flowRoot4171"
       style="fill:black;stroke:none;stroke-opacity:1;stroke-width:1px;stroke-linejoin:miter;stroke-linecap:butt;fill-opacity:1;font-family:Lavi;font-style:normal;font-weight:normal;font-size:15px;line-height:125%;letter-spacing:0px;word-spacing:0px;-inkscape-font-specification:'Lavi, Normal';font-stretch:normal;font-variant:normal;text-anchor:middle;text-align:center;writing-mode:lr"><flowRegion
         id="flowRegion4173"><rect
           id="rect4175"
           width="132.5"
           height="17.5"
           x="247.5"
           y="210.50009" /></flowRegion><flowPara
         id="flowPara4177" /></flowRoot>    <text
       xml:space="preserve"
       style="font-style:normal;font-variant:normal;font-weight:normal;font-stretch:normal;font-size:12px;line-height:125%;font-family:Lavi;-inkscape-font-specification:Lavi;text-align:center;letter-spacing:0px;word-spacing:0px;text-anchor:middle;fill:#b17d62;fill-opacity:1;stroke:none;stroke-opacity:1"
       x="445.52319"
       y="246.46317"
       id="text4246-7-7"
       sodipodi:linespacing="125%"><tspan
         sodipodi:role="line"
         style="font-size:45px;fill:#b17d62;fill-opacity:1;stroke:none;stroke-opacity:1"
         x="445.52319"
         y="246.46317"
         id="tspan4198">Si vous voulez,</tspan><tspan
         sodipodi:role="line"
         style="font-size:45px;fill:#b17d62;fill-opacity:1;stroke:none;stroke-opacity:1"
         x="445.52319"
         y="302.71317"
         id="tspan4282">on peut s'occuper</tspan><tspan
         sodipodi:role="line"
         style="font-size:45px;fill:#b17d62;fill-opacity:1;stroke:none;stroke-opacity:1"
         x="445.52319"
         y="358.96317"
         id="tspan4284">d'elle...</tspan></text>
    <path
       style="color:#000000;clip-rule:nonzero;display:inline;overflow:visible;visibility:visible;opacity:1;isolation:auto;mix-blend-mode:normal;color-interpolation:sRGB;color-interpolation-filters:linearRGB;solid-color:#000000;solid-opacity:1;fill:#f2f8d1;fill-opacity:1;fill-rule:evenodd;stroke:none;stroke-width:1px;stroke-linecap:butt;stroke-linejoin:miter;stroke-miterlimit:4;stroke-dasharray:none;stroke-dashoffset:0;stroke-opacity:1;marker:none;color-rendering:auto;image-rendering:auto;shape-rendering:auto;text-rendering:auto;enable-background:accumulate"
       d="m 1360.4325,177.13809 c 39.2312,-55.98186 244.1733,-41.98714 316.9036,-29.63438 91.4238,15.5277 99.2278,32.63174 117.1855,72.3987 6.3158,13.98623 16.0083,80.9082 -32.0407,105.28064 -73.0004,37.02879 -167.7727,33.274 -204.0964,33.274 -36.3234,0 -133.2355,-0.38719 -182.0231,-30.49734 -46.7555,-28.856 -55.1601,-94.83991 -15.9289,-150.82162 z"
       id="path3330-5"
       inkscape:connector-curvature="0"
       sodipodi:nodetypes="zsssssz" />
    <path
       style="fill:#f2f8d1;fill-opacity:1;stroke:none"
       d="m 1315.9475,456.92405 c 44.1075,-14.32257 72.1707,-30.60525 65.1591,-41.01591 -7.0116,-10.41089 -11.8375,-28.95953 -6.4103,-38.54964 5.4268,-9.58981 10.9353,-17.47759 21.7728,-25.42421 10.8372,-7.94665 8.1846,-29.284 11.2244,-38.3122 2.7876,-8.27931 12.035,-37.41081 12.035,-37.41081 0,0 31.6318,21.01552 36.8399,30.87861 5.2083,9.86278 9.0467,-3.48364 9.2974,1.40877 0.2504,4.89273 -6.4319,18.99083 -15.7526,28.58127 -9.3205,9.59041 -18.115,22.37594 -26.8066,29.03057 -8.6921,6.65469 -29.2803,18.81083 -26.9204,28.40007 2.3598,9.58913 5.7127,26.0601 -2.4937,38.40777 -11.4029,17.15742 -77.945,24.00571 -77.945,24.00571 z"
       id="path3023-2"
       inkscape:connector-curvature="0"
       sodipodi:nodetypes="csssscssssssc" />
    <text
       xml:space="preserve"
       style="font-style:normal;font-variant:normal;font-weight:normal;font-stretch:normal;font-size:12px;line-height:125%;font-family:Lavi;-inkscape-font-specification:Lavi;text-align:center;letter-spacing:0px;word-spacing:0px;text-anchor:middle;fill:#b17d62;fill-opacity:1;stroke:none;stroke-opacity:1"
       x="1572.9677"
       y="210.59818"
       id="text4246-7-7-6"
       sodipodi:linespacing="125%"><tspan
         sodipodi:role="line"
         style="font-size:45px;fill:#b17d62;fill-opacity:1;stroke:none;stroke-opacity:1"
         x="1572.9677"
         y="210.59818"
         id="tspan4198-1">On recherche</tspan><tspan
         sodipodi:role="line"
         style="font-size:45px;fill:#b17d62;fill-opacity:1;stroke:none;stroke-opacity:1"
         x="1572.9677"
         y="266.84814"
         id="tspan4293">justement une élève</tspan><tspan
         sodipodi:role="line"
         style="font-size:45px;fill:#b17d62;fill-opacity:1;stroke:none;stroke-opacity:1"
         x="1572.9677"
         y="323.09814"
         id="tspan4179"> à Chaosah...</tspan></text>
    <path
       style="color:#000000;clip-rule:nonzero;display:inline;overflow:visible;visibility:visible;opacity:1;isolation:auto;mix-blend-mode:normal;color-interpolation:sRGB;color-interpolation-filters:linearRGB;solid-color:#000000;solid-opacity:1;fill:#f2f8d1;fill-opacity:1;fill-rule:evenodd;stroke:none;stroke-width:1px;stroke-linecap:butt;stroke-linejoin:miter;stroke-miterlimit:4;stroke-dasharray:none;stroke-dashoffset:0;stroke-opacity:1;marker:none;color-rendering:auto;image-rendering:auto;shape-rendering:auto;text-rendering:auto;enable-background:accumulate"
       d="m 912.77183,969.75076 c 36.10164,-55.97591 235.94487,-43.59053 303.62637,-37.29683 76.1286,7.07923 96.9924,49.62707 101.8357,92.72677 1.7041,15.165 8.7299,78.788 -35.4861,103.1578 -67.177,37.0248 -140.3856,24.8236 -173.8116,24.8236 -33.4258,0 -126.60794,3.8363 -171.50364,-26.2707 -43.02571,-28.8529 -60.76236,-101.1649 -24.66073,-157.14064 z"
       id="path3330-5-2"
       inkscape:connector-curvature="0"
       sodipodi:nodetypes="zsssssz" />
    <path
       style="fill:#f2f8d1;fill-opacity:1;stroke:none"
       d="m 1343.72,860.27913 c -40.7355,11.72426 -66.8124,25.55823 -60.6185,34.97431 6.1938,9.41623 10.2043,26.01727 5.0182,34.41919 -5.1857,8.40168 -10.4085,15.28828 -20.5156,22.10516 -10.1071,6.81699 -8.1501,25.84776 -11.1359,33.80466 -2.7383,7.2969 -11.8588,32.98475 -11.8588,32.98475 0,0 -28.5188,-19.40775 -33.0722,-28.29565 -4.5537,-8.8877 -8.3673,2.8901 -8.4884,-1.4652 -0.1208,-4.3556 6.3155,-16.73659 15.0693,-25.04973 8.7537,-8.31306 17.0962,-19.4788 25.2084,-25.19623 8.1127,-5.71745 27.2483,-16.05378 25.2988,-24.63314 -1.9496,-8.57919 -4.6563,-23.29938 3.1377,-34.08933 10.8297,-14.99292 71.957,-19.55879 71.957,-19.55879 z"
       id="path3023-2-7"
       inkscape:connector-curvature="0"
       sodipodi:nodetypes="csssscssssssc" />
    <text
       xml:space="preserve"
       style="font-style:normal;font-variant:normal;font-weight:normal;font-stretch:normal;font-size:12px;line-height:125%;font-family:Lavi;-inkscape-font-specification:Lavi;text-align:center;letter-spacing:0px;word-spacing:0px;text-anchor:middle;fill:#b17d62;fill-opacity:1;stroke:none;stroke-opacity:1"
       x="1105.2504"
       y="998.72797"
       id="text4246-7-7-6-0"
       sodipodi:linespacing="125%"><tspan
         sodipodi:role="line"
         style="font-size:45px;fill:#b17d62;fill-opacity:1;stroke:none;stroke-opacity:1"
         x="1105.2504"
         y="998.72797"
         id="tspan4293-6">...et celle-ci</tspan><tspan
         sodipodi:role="line"
         style="font-size:45px;fill:#b17d62;fill-opacity:1;stroke:none;stroke-opacity:1"
         x="1105.2504"
         y="1054.978"
         id="tspan4330">semble être la</tspan><tspan
         sodipodi:role="line"
         style="font-size:45px;fill:#b17d62;fill-opacity:1;stroke:none;stroke-opacity:1"
         x="1105.2504"
         y="1111.228"
         id="tspan4332">candidate idéale</tspan></text>
    <path
       style="color:#000000;clip-rule:nonzero;display:inline;overflow:visible;visibility:visible;opacity:1;isolation:auto;mix-blend-mode:normal;color-interpolation:sRGB;color-interpolation-filters:linearRGB;solid-color:#000000;solid-opacity:1;fill:#f2f8d1;fill-opacity:1;fill-rule:evenodd;stroke:none;stroke-width:1px;stroke-linecap:butt;stroke-linejoin:miter;stroke-miterlimit:4;stroke-dasharray:none;stroke-dashoffset:0;stroke-opacity:1;marker:none;color-rendering:auto;image-rendering:auto;shape-rendering:auto;text-rendering:auto;enable-background:accumulate"
       d="m 397.48196,1528.6619 c 20.15976,-21.7406 131.75562,-16.9302 169.5501,-14.4859 42.51151,2.7496 54.16222,19.2749 56.8668,36.0144 0.95159,5.8901 4.87492,30.6005 -19.81604,40.0656 -37.51278,14.3801 -78.39371,9.6414 -97.05935,9.6414 -18.66554,0 -70.70003,1.4898 -95.77055,-10.2034 -24.02629,-11.2062 -33.93074,-39.2916 -13.77096,-61.0321 z"
       id="path3330-5-2-0"
       inkscape:connector-curvature="0"
       sodipodi:nodetypes="zsssssz" />
    <text
       xml:space="preserve"
       style="font-style:normal;font-variant:normal;font-weight:normal;font-stretch:normal;font-size:8.86580276px;line-height:125%;font-family:Lavi;-inkscape-font-specification:Lavi;text-align:center;letter-spacing:0px;word-spacing:0px;text-anchor:middle;fill:#b17d62;fill-opacity:1;stroke:none;stroke-opacity:1"
       x="504.19281"
       y="1568.0043"
       id="text4246-7-7-6-0-6"
       sodipodi:linespacing="125%"><tspan
         sodipodi:role="line"
         style="font-size:33.24675751px;fill:#b17d62;fill-opacity:1;stroke:none;stroke-opacity:1"
         x="504.19281"
         y="1568.0043"
         id="tspan4332-1">Cayenne?!</tspan></text>
    <path
       style="color:#000000;clip-rule:nonzero;display:inline;overflow:visible;visibility:visible;opacity:1;isolation:auto;mix-blend-mode:normal;color-interpolation:sRGB;color-interpolation-filters:linearRGB;solid-color:#000000;solid-opacity:1;fill:#f2f8d1;fill-opacity:1;fill-rule:evenodd;stroke:none;stroke-width:1px;stroke-linecap:butt;stroke-linejoin:miter;stroke-miterlimit:4;stroke-dasharray:none;stroke-dashoffset:0;stroke-opacity:1;marker:none;color-rendering:auto;image-rendering:auto;shape-rendering:auto;text-rendering:auto;enable-background:accumulate"
       d="m 447.65579,1590.329 c 23.77779,-22.0831 155.40145,-17.1969 199.97882,-14.714 50.14093,2.7928 63.88255,19.5785 67.07252,36.5817 1.12237,5.9828 5.74981,31.0826 -23.37238,40.6968 -44.2451,14.6067 -92.46281,9.7932 -114.47832,9.7932 -22.0154,0 -83.38838,1.5134 -112.95823,-10.3641 -28.33823,-11.3827 -40.0202,-39.9105 -16.24241,-61.9936 z"
       id="path3330-5-2-0-8"
       inkscape:connector-curvature="0"
       sodipodi:nodetypes="zsssssz" />
    <text
       xml:space="preserve"
       style="font-style:normal;font-variant:normal;font-weight:normal;font-stretch:normal;font-size:8.38865089px;line-height:125%;font-family:Lavi;-inkscape-font-specification:Lavi;text-align:center;letter-spacing:0px;word-spacing:0px;text-anchor:middle;fill:#b17d62;fill-opacity:1;stroke:none;stroke-opacity:1"
       x="585.18689"
       y="1630.1206"
       id="text4246-7-7-6-0-6-7"
       sodipodi:linespacing="125%"><tspan
         sodipodi:role="line"
         style="font-size:31.45743942px;fill:#b17d62;fill-opacity:1;stroke:none;stroke-opacity:1"
         x="585.18689"
         y="1630.1206"
         id="tspan4332-1-9">Thym?! Cumin?!</tspan></text>
    <path
       style="color:#000000;clip-rule:nonzero;display:inline;overflow:visible;visibility:visible;opacity:1;isolation:auto;mix-blend-mode:normal;color-interpolation:sRGB;color-interpolation-filters:linearRGB;solid-color:#000000;solid-opacity:1;fill:#f2f8d1;fill-opacity:1;fill-rule:evenodd;stroke:none;stroke-width:1px;stroke-linecap:butt;stroke-linejoin:miter;stroke-miterlimit:4;stroke-dasharray:none;stroke-dashoffset:0;stroke-opacity:1;marker:none;color-rendering:auto;image-rendering:auto;shape-rendering:auto;text-rendering:auto;enable-background:accumulate"
       d="m 504.4992,1672.3835 c 33.07055,-38.5555 216.13496,-30.0246 278.13393,-25.6896 69.73682,4.8761 88.84891,34.1827 93.28559,63.8691 1.56099,10.4456 7.99691,54.2681 -32.50672,71.0537 -61.53683,25.5022 -128.59883,17.0985 -159.21838,17.0985 -30.61938,0 -115.97794,2.6422 -157.10421,-18.095 -39.41326,-19.8735 -55.66075,-69.6811 -22.59021,-108.2367 z"
       id="path3330-5-2-0-8-2"
       inkscape:connector-curvature="0"
       sodipodi:nodetypes="zsssssz" />
    <text
       xml:space="preserve"
       style="font-style:normal;font-variant:normal;font-weight:normal;font-stretch:normal;font-size:8.38865089px;line-height:125%;font-family:Lavi;-inkscape-font-specification:Lavi;text-align:center;letter-spacing:0px;word-spacing:0px;text-anchor:middle;fill:#b17d62;fill-opacity:1;stroke:none;stroke-opacity:1"
       x="677.60773"
       y="1689.8"
       id="text4246-7-7-6-0-6-7-0"
       sodipodi:linespacing="125%"><tspan
         sodipodi:role="line"
         style="font-size:31.45743942px;fill:#b17d62;fill-opacity:1;stroke:none;stroke-opacity:1"
         x="677.60773"
         y="1689.8"
         id="tspan4432">Mais je croyais</tspan><tspan
         sodipodi:role="line"
         style="font-size:31.45743942px;fill:#b17d62;fill-opacity:1;stroke:none;stroke-opacity:1"
         x="677.60773"
         y="1729.1218"
         id="tspan4482">que vous étiez toutes...</tspan><tspan
         sodipodi:role="line"
         style="font-size:31.45743942px;fill:#b17d62;fill-opacity:1;stroke:none;stroke-opacity:1"
         x="677.60773"
         y="1768.4436"
         id="tspan4492">...c'est impossible!</tspan></text>
    <text
       sodipodi:linespacing="125%"
       id="text4178-6-5-9-0-7-0-4"
       style="font-style:normal;font-variant:normal;font-weight:normal;font-stretch:normal;font-size:9.76241112px;line-height:125%;font-family:Lavi;-inkscape-font-specification:Lavi;text-align:center;letter-spacing:0px;word-spacing:0px;text-anchor:middle;display:inline;opacity:0.63300003;fill:#b26b42;fill-opacity:1;stroke:#794230;stroke-width:3.56912017;stroke-miterlimit:4;stroke-dasharray:none;stroke-opacity:1;filter:url(#filter5236-4-16)"
       xml:space="preserve"
       y="3129.8394"
       x="1318.7137"
       transform="matrix(0.86194289,-0.04952251,-0.14842456,0.98854309,959.80754,-1406.2496)"><tspan
         y="3129.8394"
         x="1320.59"
         style="font-style:normal;font-variant:normal;font-weight:normal;font-stretch:normal;font-size:40.67671585px;font-family:Fondamento;-inkscape-font-specification:Fondamento;letter-spacing:3.7524426px;fill:#b26b42;fill-opacity:1;stroke:#794230;stroke-width:3.56912017;stroke-miterlimit:4;stroke-dasharray:none;stroke-opacity:1"
         sodipodi:role="line"
         id="tspan4725">CUISINES</tspan></text>
    <path
       style="color:#000000;clip-rule:nonzero;display:inline;overflow:visible;visibility:visible;opacity:0.481;isolation:auto;mix-blend-mode:normal;color-interpolation:sRGB;color-interpolation-filters:linearRGB;solid-color:#000000;solid-opacity:1;fill:#ffe680;fill-opacity:1;fill-rule:nonzero;stroke:#565656;stroke-width:1.20000005;stroke-linecap:butt;stroke-linejoin:miter;stroke-miterlimit:4;stroke-dasharray:none;stroke-dashoffset:0;stroke-opacity:1;marker:none;color-rendering:auto;image-rendering:auto;shape-rendering:auto;text-rendering:auto;enable-background:accumulate"
       d="m 2768.2152,1693.1697 0,-189.0352 -203.8301,0 0,90.9805 -10,0 0,-15.6308 -30.9824,26.9824 30.9824,26.9804 0,-16.6171 10,0 0,76.3398 203.8301,0 z"
       id="rect4191-6"
       inkscape:connector-curvature="0" />
    <flowRoot
       xml:space="preserve"
       id="flowRoot4212-7"
       style="font-style:normal;font-variant:normal;font-weight:normal;font-stretch:normal;font-size:25.3241539px;line-height:125%;font-family:Lavi;-inkscape-font-specification:'Lavi, Normal';text-align:center;letter-spacing:0px;word-spacing:0px;writing-mode:lr-tb;text-anchor:middle;display:inline;opacity:0.481;fill:#000000;fill-opacity:1;stroke:none;stroke-width:1px;stroke-linecap:butt;stroke-linejoin:miter;stroke-opacity:1"
       transform="translate(2798.6164,523.09268)"><flowRegion
         id="flowRegion4214-5"><rect
           id="rect4216-3"
           width="291.95547"
           height="247.52747"
           x="-275.14545"
           y="1061.6674" /></flowRegion><flowPara
         id="flowPara4206">on the door</flowPara></flowRoot>  </g>
</svg>
